STARTFONT 2.3
FONT -FontForge-Lobster-Book-R-Normal--28-280-72-72-P-164-ISO10646-1
SIZE 28 72 72  4
FONTBOUNDINGBOX 57 42 -13 -14
COMMENT "Generated by fontforge, http://fontforge.sourceforge.net"
COMMENT "Copyright 2010 The Lobster Project Authors (https://github.com/impallari/The-Lobster-Font), with Reserved Font Name "Lobster"."
STARTPROPERTIES 41
FOUNDRY "FontForge"
FAMILY_NAME "Lobster"
WEIGHT_NAME "Book"
SLANT "R"
SETWIDTH_NAME "Normal"
ADD_STYLE_NAME ""
PIXEL_SIZE 28
POINT_SIZE 280
RESOLUTION_X 72
RESOLUTION_Y 72
SPACING "P"
AVERAGE_WIDTH 164
CHARSET_REGISTRY "ISO10646"
CHARSET_ENCODING "1"
FONTNAME_REGISTRY ""
CHARSET_COLLECTIONS "ISO8859-2 ISO8859-5 ISO8859-9 ISO8859-4 ISO10646-1"
BITS_PER_PIXEL 4
FONT_NAME "Lobster-Regular"
FACE_NAME "Lobster Regular"
COPYRIGHT "Copyright 2010 The Lobster Project Authors (https://github.com/impallari/The-Lobster-Font), with Reserved Font Name "Lobster"."
FONT_VERSION "2.100"
FONT_ASCENT 22
FONT_DESCENT 6
UNDERLINE_POSITION -3
UNDERLINE_THICKNESS 2
X_HEIGHT 14
CAP_HEIGHT 20
DEFAULT_CHAR 1
RAW_ASCENT 800
RAW_DESCENT 200
NORM_SPACE 6
RELATIVE_WEIGHT 40
RELATIVE_SETWIDTH 50
SUPERSCRIPT_X 0
SUPERSCRIPT_Y 9
SUPERSCRIPT_SIZE 16
SUBSCRIPT_X 0
SUBSCRIPT_Y 2
SUBSCRIPT_SIZE 16
AVG_LOWERCASE_WIDTH 131
AVG_UPPERCASE_WIDTH 174
ENDPROPERTIES
CHARS 1148
STARTCHAR NULL.dup1
ENCODING 0
SWIDTH 600 0
DWIDTH 17 0
BBX 1 1 0 0
BITMAP
00
ENDCHAR
STARTCHAR nonmarkingreturn
ENCODING 13
SWIDTH 600 0
DWIDTH 17 0
BBX 1 1 0 0
BITMAP
00
ENDCHAR
STARTCHAR space
ENCODING 32
SWIDTH 217 0
DWIDTH 6 0
BBX 1 1 0 0
BITMAP
00
ENDCHAR
STARTCHAR exclam
ENCODING 33
SWIDTH 257 0
DWIDTH 7 0
BBX 9 21 1 0
BITMAP
0001579B10
0004FFFC00
0006FFF800
0008FFF400
000BFFE000
000DFFA000
000FFF6000
003FFF2000
005FFC0000
007FF80000
00AFF40000
00CFE00000
00EFA00000
01FF600000
0288100000
0000000000
0000000000
5DE8000000
EFFF300000
EFFF300000
5DE8000000
ENDCHAR
STARTCHAR quotedbl
ENCODING 34
SWIDTH 353 0
DWIDTH 10 0
BBX 10 6 2 15
BITMAP
00CFE17FF6
03FF80CFD0
08FE12FF60
0DF707FD00
4FE10DF500
9F703FD000
ENDCHAR
STARTCHAR numbersign
ENCODING 35
SWIDTH 659 0
DWIDTH 18 0
BBX 16 19 1 1
BITMAP
0000004510015400
000000EF2004FB00
000002FE0007F900
000005FB000AF600
000008F8000DF300
00000BF5001FF000
00CFFFFFFFFFFFF7
00AACFEAAADFCAA3
00006FA000CF5000
00009F7000EF2000
0000CF4002FE0000
0AAAFFBAACFEAA30
3FFFFFFFFFFFFF20
0007F8000CF30000
000AF5001FF00000
000DF2004FC00000
001FE0007F900000
005FB000AF600000
0013200023100000
ENDCHAR
STARTCHAR dollar
ENCODING 36
SWIDTH 548 0
DWIDTH 15 0
BBX 15 27 0 -3
BITMAP
00000000007E0000
0000000000AB0000
0000000000D80000
00000039DEFD7100
000008FFCAFBFD20
00007FFC09C0DFA0
0000EFF70D90DFD0
0002FFF71F55FFB0
0001FFFC5F17ED30
0000CFFFEC000000
00004FFFF9000000
000007FFFF500000
000000AFFFF40000
0000000CFFFE1000
0000000DFFFF9000
03CFB21F7FFFF200
1EFFFB4F1AFFF600
6FFE508D05FFF800
8FF700BA04FFF600
8FF500E606FFF300
5FF803F31DFFB000
0DFE67F4CFFD2000
02DFFFFFFFC20000
0017CFFDB5000000
00002F5000000000
00006F1000000000
0000AB0000000000
ENDCHAR
STARTCHAR percent
ENCODING 37
SWIDTH 796 0
DWIDTH 22 0
BBX 21 21 1 0
BITMAP
0003AEEA2000000DF20000
006FD37FC000007F800000
03FF404FF20001EE100000
0CFC004FF40009F7000000
2FF7005FF4002FD0000000
6FF3007FF200AF50000000
8FF100AFD003FC00000000
8FF000EF700CF300000000
6FF006FD105FA000000000
1FF53ED200DF2000000000
04CED81007F90006CED800
000000001EE100AFA1CF70
000000008F7008FD109FC0
00000002FD002FF7009FE0
0000000AF5007FF200AFE0
0000003FC000BFD000CFC0
000000CF4000DFB000EF80
000005FA0000DFA004FF30
00000DF20000BFA00BF900
00007F9000006FE17FA000
0001EE10000007DEC60000
ENDCHAR
STARTCHAR ampersand
ENCODING 38
SWIDTH 682 0
DWIDTH 19 0
BBX 19 21 0 0
BITMAP
00000006CEFC60000000
000002CFFDBFF9000000
00001DFFA006FF300000
00008FFE1004FF700000
0000DFF90008FF500000
0000FFF7002EFD100000
0000EFF9000241000000
0000AFFE200000000000
00002DFFD40000000400
00006DFFC61000029F50
001BFFF90018BDFFFF60
01CFFFA002DFFFFFFD10
08FFFE1008FFFFFFA200
1FFFF90009F94AA00000
6FFFF50003400E700000
8FFFF50000007F300000
9FFFF8000005FB000000
6FFFFE40029FE3000000
1EFFFFFEEFFF40000000
04EFFFFFFFD300000000
0029DEEDA50000000000
ENDCHAR
STARTCHAR quotesingle
ENCODING 39
SWIDTH 196 0
DWIDTH 5 0
BBX 6 7 2 14
BITMAP
00CFE1
02FF90
07FF20
0CF900
2FF200
7FA000
572000
ENDCHAR
STARTCHAR parenleft
ENCODING 40
SWIDTH 437 0
DWIDTH 12 0
BBX 11 29 4 -7
BITMAP
000000000020
000000003CB0
00000007FB10
000000AFB000
00000AFC1000
00008FF20000
0005FF800000
001EFE100000
008FF7000000
01EFF2000000
07FFB0000000
0DFF60000000
2FFF30000000
6FFE00000000
8FFB00000000
AFF900000000
BFF800000000
CFF700000000
BFF600000000
AFF600000000
8FF700000000
5FF800000000
1FFB00000000
0BFD00000000
03FF20000000
00BF70000000
003ED0000000
0005F5000000
000051000000
ENDCHAR
STARTCHAR parenright
ENCODING 41
SWIDTH 413 0
DWIDTH 12 0
BBX 11 29 -2 -7
BITMAP
000000200000
000005E20000
000001ED1000
0000009F8000
0000004FE100
0000000EF800
0000000CFE00
00000009FF30
00000008FF70
00000007FF90
00000006FFB0
00000007FFB0
00000008FFB0
00000009FFA0
0000000BFF80
0000000EFF60
0000002FFF20
0000005FFD00
000000AFF800
000001FFF200
000006FFA000
00000DFF2000
00006FF70000
0001EFB00000
000AFC100000
007FC1000000
08FB10000000
AE7000000000
520000000000
ENDCHAR
STARTCHAR asterisk
ENCODING 42
SWIDTH 515 0
DWIDTH 14 0
BBX 11 11 2 10
BITMAP
00009F800000
0100FF700000
2E60EF438500
5FF8BF7FFF10
1CFFFFFFD800
004BFFE60000
4BFFFFFFE400
8FFBBF6EFB00
1760DF53D700
0001FF601000
0002ED200000
ENDCHAR
STARTCHAR plus
ENCODING 43
SWIDTH 442 0
DWIDTH 12 0
BBX 12 10 0 4
BITMAP
000005FD0000
000008FA0000
00000BF70000
00000EF40000
2AAABFFBAAA1
6FFFFFFFFFD0
0000BF800000
0000EF500000
0002FF100000
0005FD000000
ENDCHAR
STARTCHAR comma
ENCODING 44
SWIDTH 216 0
DWIDTH 6 0
BBX 5 8 0 -4
BITMAP
07ED30
2FFFA0
4FFFB0
0CFF80
01CF10
01D700
0AA000
080000
ENDCHAR
STARTCHAR hyphen
ENCODING 45
SWIDTH 290 0
DWIDTH 8 0
BBX 7 2 0 6
BITMAP
1AAAAA60
5FFFFF40
ENDCHAR
STARTCHAR period
ENCODING 46
SWIDTH 263 0
DWIDTH 7 0
BBX 6 4 0 0
BITMAP
05DE70
1FFFF3
1FFFF3
05DE70
ENDCHAR
STARTCHAR slash
ENCODING 47
SWIDTH 311 0
DWIDTH 9 0
BBX 9 28 0 -7
BITMAP
000000DF20
000001FE00
000004FB00
000007F800
00000BF500
00000EF100
00002FD000
00005FA000
00008F7000
0000CF4000
0000EF1000
0003FC0000
0006F90000
0009F60000
000CF30000
001FE00000
004FC00000
007F800000
00AF500000
00DF200000
01FE000000
05FB000000
08F7000000
0BF4000000
0EF1000000
2FD0000000
6FA0000000
9F70000000
ENDCHAR
STARTCHAR zero
ENCODING 48
SWIDTH 546 0
DWIDTH 15 0
BBX 16 21 0 0
BITMAP
00000017CEEC8100
000005EFFDDFFC10
00006FFF800DFF90
0004FFFB0008FFF1
001DFFF20006FFF5
007FFFA00005FFF7
00EFFF400005FFF7
05FFFE000006FFF7
0AFFFA000007FFF6
0DFFF7000009FFF4
1FFFF400000BFFF2
4FFFF100000EFFD0
5FFFE000002FFFA0
6FFFD000005FFF60
6FFFC00000AFFF10
5FFFC00001FFF900
3FFFD00007FFE200
0EFFF0002EFF6000
07FFF601CFF90000
01CFFFBEFF900000
0007CEFD93000000
ENDCHAR
STARTCHAR one
ENCODING 49
SWIDTH 317 0
DWIDTH 9 0
BBX 9 21 0 0
BITMAP
0000000180
0000039EC0
01BCEFFF90
04FFFFFF50
0000CFFF20
0001FFFE00
0004FFFB00
0007FFF800
000AFFF400
000EFFF100
002FFFD000
005FFFA000
008FFF7000
00CFFF3000
00FFFF0000
03FFFC0000
06FFF90000
0AFFF60000
0DFFF20000
1FFFE00000
4FFFB00000
ENDCHAR
STARTCHAR two
ENCODING 50
SWIDTH 492 0
DWIDTH 14 0
BBX 15 21 -1 0
BITMAP
0000039DFEC70000
00008FFBDFFFC100
0006FF400AFFFA00
000DFC0003FFFF10
001FFC0001FFFF30
000FFF2001FFFF20
0009FFB003FFFE00
0000661008FFF700
000000002FFFC000
00000000CFFC1000
0000000AFFB10000
0000009FF8000000
00000AFE40000000
0000AFC200000000
000AFA1000000000
008FB00000001100
04FF89864104C500
0DFFFFFFFFFFF700
3FFFFFFFFFFFF500
5FFDDFFFFFFFC000
27100048CEE91000
ENDCHAR
STARTCHAR three
ENCODING 51
SWIDTH 514 0
DWIDTH 14 0
BBX 14 21 0 0
BITMAP
000004ADFEC600
0000AFFCBEFFC1
0008FF8002EFF8
000EFF1000BFFD
000FFF2000BFFD
000CFF9001EFFA
0002993008FFF3
000000005FFF70
00000019FFE600
000001BFFF9100
00000007FFFE30
00000000AFFFE1
018A81002FFFF6
1DFFF8000DFFF9
8FFE51000BFFF8
BFF800000CFFF6
CFF500001FFFE1
BFF600007FFF60
6FFC1005FFF900
0AFFEBDFFF7000
004ADFEC820000
ENDCHAR
STARTCHAR four
ENCODING 52
SWIDTH 476 0
DWIDTH 13 0
BBX 14 21 0 0
BITMAP
000001DEA10000
000000FFFA0000
000000EFFD0000
000001FFFC0000
000004FFF60000
00000AFFD13730
00001EFF40AF40
00009FF901EF10
0003FFB005FD00
000CFD100AFA00
007FD2001EF700
03FD20005FF4A2
1DFBDFEBDFFDF5
BFFFFFFFFFFFF2
CC989CFFFFFE50
0000001CFF8100
0000002FFF2000
0000007FFE0000
000000DFFA0000
000003FFF70000
000009FFF40000
ENDCHAR
STARTCHAR five
ENCODING 53
SWIDTH 517 0
DWIDTH 14 0
BBX 14 20 0 0
BITMAP
0000342100236A
0000CFFFFFFFFF
0000FFFFFFFFFA
0004FF79BDFEA1
0007FD00000000
000AF900000000
000EF501210000
002FF9DFFFC300
006FFFFFFFFF30
009C6204DFFFD0
002000003FFFF3
000000000CFFF6
019DD6000AFFF7
0CFFFA000AFFF5
5FFF30000CFFF3
8FFA00001FFFD0
8FF900008FFF50
4FFE3007FFF900
0AFFFDEFFF7000
006BEFDC720000
ENDCHAR
STARTCHAR six
ENCODING 54
SWIDTH 500 0
DWIDTH 14 0
BBX 15 21 0 0
BITMAP
00000017CEEC7000
000005EFFDBFFB00
00006FFF7007FF30
0005FFF80005FF30
001EFFD0000BFE10
009FFF600008B400
02FFFE0000000000
08FFF90000000000
0DFFF4169A820000
1FFFF5EFFFFE4000
4FFFEC413DFFE100
6FFFF30005FFF500
7FFFC00002FFF700
8FFF900001FFF800
8FFF800002FFF600
7FFF800005FFF200
4FFF900009FFB000
1FFFC0002FFE2000
09FFF401BFF60000
01DFFFBEFE500000
0017CEFD82000000
ENDCHAR
STARTCHAR seven
ENCODING 55
SWIDTH 464 0
DWIDTH 13 0
BBX 14 21 1 0
BITMAP
029DEC50000001
1EFFFFFB4115B6
5FFFFFFFFFFFE1
5D4114897DFF50
120000003FFB00
00000001DFE200
0000000BFF6000
0000008FFB0000
000005FFE20000
00003FFF700000
0001DFFD000000
0009FFF5000000
003FFFC0000000
00BFFF60000000
03FFFE10000000
09FFFA00000000
0CFFF700000000
0DFFF600000000
0CFFF600000000
07FFF900000000
008EE800000000
ENDCHAR
STARTCHAR eight
ENCODING 56
SWIDTH 499 0
DWIDTH 14 0
BBX 14 21 0 0
BITMAP
0000028DEEC710
00006FFFDBFFD1
0005FFF7005FFA
000DFFD0000FFF
002FFFB0001FFF
003FFFE0005FFB
001FFFF600DFF3
0009FFFF49FF50
0001EFFFFFC300
00003EFFFF5000
00029FFFFFF500
007FFC6FFFFF30
0AFFD105FFFFD0
6FFF40008FFFF5
DFFD00001EFFF8
FFFB00000BFFF7
FFFB00000BFFF4
BFFD00001EFFC0
4FFF8001BFFE20
05EFFDBEFFB200
0028CEEDA40000
ENDCHAR
STARTCHAR nine
ENCODING 57
SWIDTH 489 0
DWIDTH 14 0
BBX 14 21 0 0
BITMAP
000005AEFEA200
0001BFFCEFFE30
002EFE301DFFC0
00CFF60007FFF3
07FFE00005FFF8
0DFFA00004FFFA
2FFF600004FFFB
3FFF500006FFFC
3FFF50000AFFFB
1FFF80002FFFFA
0AFFE404DDFFF8
01CFFFFF8BFFF5
0006AA830EFFF2
000000003FFFC0
000000008FFF60
05930000EFFE10
4FF80006FFF600
9FF0002EFFB000
8FF203DFFC1000
2EFFDFFFA10000
02ADFDA4000000
ENDCHAR
STARTCHAR colon
ENCODING 58
SWIDTH 267 0
DWIDTH 7 0
BBX 6 11 1 2
BITMAP
009ED4
05FFFD
05FFFD
009ED4
000000
000000
000000
2CEA10
BFFF70
BFFF70
3CEA10
ENDCHAR
STARTCHAR semicolon
ENCODING 59
SWIDTH 276 0
DWIDTH 8 0
BBX 6 14 1 -3
BITMAP
008ED4
04FFFE
04FFFE
008ED4
000000
000000
1BFA00
8FFF40
AFFF50
4FFF20
04FA00
05E200
2E5000
540000
ENDCHAR
STARTCHAR less
ENCODING 60
SWIDTH 358 0
DWIDTH 10 0
BBX 10 11 0 2
BITMAP
0000000004
00000006DC
000005DFF9
0005DFFC40
05DFFD5000
9FFD600000
7EFE810000
02AFFE7100
0003CFFE40
000005DF50
0000000710
ENDCHAR
STARTCHAR equal
ENCODING 61
SWIDTH 515 0
DWIDTH 14 0
BBX 12 9 1 3
BITMAP
05FFFFFFFFFF
08FFFFFFFFFC
0BFFFFFFFFF8
000000000000
000000000000
000000000000
8FFFFFFFFFC0
CFFFFFFFFF80
FFFFFFFFFF50
ENDCHAR
STARTCHAR greater
ENCODING 62
SWIDTH 362 0
DWIDTH 10 0
BBX 10 11 0 2
BITMAP
0050000000
03FC300000
04FFFA2000
0029FFF810
00002AFFE6
000003CFFB
0002AFFE81
029FFE8100
6FFF810000
AF91000000
6200000000
ENDCHAR
STARTCHAR question
ENCODING 63
SWIDTH 441 0
DWIDTH 12 0
BBX 12 21 1 0
BITMAP
0007CEFD9200
02DFDBEFFE40
0DFB103FFFC0
5FF4000DFFF1
8FF4000CFFF0
7FFB000EFFB0
1DFE305FFF30
012001EFF600
00000CFF6000
0000AFE40000
0007FE300000
002FE3000000
009F70000000
00DF10000000
00FC00000000
000000000000
000000000000
1BEB20000000
9FFFA0000000
9FFFA0000000
1BEB20000000
ENDCHAR
STARTCHAR at
ENCODING 64
SWIDTH 688 0
DWIDTH 19 0
BBX 20 20 -1 -3
BITMAP
000000000489A9620000
00000018EFFFFFFF9100
000003DFFB52016EFB00
00005FFE50000002EF70
0003FFE3000000009FD0
001DFE202BEBAC705FF1
009FF603EFECFF604FF3
01FFB01DFD23FF205FF2
07FF408FF407FD007FF0
0CFD00EFC00BF900CFB0
0FF904FF701FF503FF50
2FF605FF505FF20BFC00
3FF505FF72CFF38FE300
3FF501EFFF6CFFFE3000
2FF6003993029A710000
0EF90000000007000000
0AFE10000000AF100000
02EFC300004CFE100000
004EFFDBCEFFD3000000
00017BEFECA500000000
ENDCHAR
STARTCHAR A
ENCODING 65
SWIDTH 668 0
DWIDTH 19 0
BBX 20 24 0 -3
BITMAP
000000000000004AEFD3
00000000000009FFFFF2
000000000001CF8FFFE0
00000000001CF55FFFB0
0000000000BF708FFF80
0000000008FC00BFFF40
000000005FF300EFFF10
00000001EF9002FFFD00
00158AACFF3006FFFA00
06EFFFFFFFFD8BFFF700
5FFD41CFF226BFFFF300
AFF505FFA0000FFFF000
8FF70DFF40003FFFC000
04406FFD00007FFF9000
0000CFF80000AFFF6000
0003FFF30000DFFF2000
0009FFD00001FFFE0000
000EFF800004FFFB0000
004FFF400008FFF80000
007FFF10000BFFF50000
009FFD00000EFFF10000
009FFC00000000000000
005FFB00000000000000
0007DD00000000000000
ENDCHAR
STARTCHAR B
ENCODING 66
SWIDTH 641 0
DWIDTH 18 0
BBX 17 21 0 0
BITMAP
00000059CEFEC81000
00005DFFDBBDFFE400
001BFF8200106FFE10
01CFD24ACE9009FF50
0BFE209FFF5006FF60
4FF700DFFF2009FF30
8FF201FFFD003FFB00
9FF004FFFA04EFC100
7FE007FFFDDFFE5000
09E20BFFFFFFFFFA00
00000EFFF114DFFF60
00002FFFC0004FFFC0
00005FFF90000FFFE0
00009FFF60000EFFE0
0000CFFF30001FFFC0
0000FFFF00003FFF90
0003FFFC00009FFF40
0007FFF86104FFFD00
000AFFF5DFDFFFF400
000DFFF2CFFFFF7000
001FFFE03BEEB40000
ENDCHAR
STARTCHAR C
ENCODING 67
SWIDTH 497 0
DWIDTH 14 0
BBX 15 21 0 0
BITMAP
00000017CEED9200
000005EFFFCCFF40
00006FFFE4008FC0
0003FFFF40005FE0
000DFFF900009FE0
007FFFF20004FF80
00DFFFA000005500
04FFFF4000000000
09FFFF0000000000
0CFFFC0000000000
1FFFF80000000000
4FFFF60000000000
5FFFF40000000000
6FFFF30000000000
7FFFF40000000000
6FFFF50000000230
4FFFFA0000002D40
1FFFFF600028FA00
09FFFFFEDEFFB000
01CFFFFFFFE70000
0006BEFEB7100000
ENDCHAR
STARTCHAR D
ENCODING 68
SWIDTH 663 0
DWIDTH 19 0
BBX 19 21 0 0
BITMAP
00000059CEFEC8200000
00006EFFDBBEFFF70000
002CFE7200006FFF6000
02DFC248AC6008FFE100
0DFD10CFFF4002FFF700
6FF600EFFF1000DFFC00
BFF103FFFC0000CFFE00
CFD006FFF90000DFFF00
AFC00AFFF60000DFFF10
2CD00DFFF20000EFFF00
00101FFFE00002FFFD00
00004FFFB00004FFFA00
00008FFF700007FFF700
0000BFFF40000CFFF300
0000EFFF10002FFFC000
0003FFFD00008FFF6000
0006FFF90002FFFD0000
0009FFF6000BFFF50000
000CFFF934BFFF900000
001FFFFFFFFFFA000000
004FFFB3AEFC50000000
ENDCHAR
STARTCHAR E
ENCODING 69
SWIDTH 459 0
DWIDTH 13 0
BBX 14 21 0 0
BITMAP
00000017CEEA30
000003EFFCCFF3
00002EFF6008FA
0000BFFB0006FB
0002FFF6000AF9
0004FFF4004FE2
0004FFF6000210
0000EFFC000000
00005FFFA20000
00018EFFB50000
004EFFF8000000
02EFFF90000000
0BFFFD10000000
4FFFF700000000
8FFFF300000000
BFFFF100000033
CFFFF4000002D2
AFFFFC20028F70
4FFFFFFDEFF800
09FFFFFFFD5000
005BEFEB610000
ENDCHAR
STARTCHAR F
ENCODING 70
SWIDTH 459 0
DWIDTH 13 0
BBX 17 21 0 0
BITMAP
000016ADEFFFFFFFC0
0006EFFFFFFFFFFF60
00AFA29FFFAACED700
08FC00CFFF30000000
1FF501FFFF00000000
6FF104FFFD00000000
9FE007FFFA00000000
BFD00AFFF700000000
9FD00DFFF500000000
4FE01FFFFFFFF30000
02615FFFFFFFE00000
00008FFFA000000000
0000BFFF6000000000
0000EFFF3000000000
0002FFFE0000000000
0006FFFB0000000000
0009FFF80000000000
000CFFF40000000000
000FFFF10000000000
003FFFD00000000000
006FFF900000000000
ENDCHAR
STARTCHAR G
ENCODING 71
SWIDTH 578 0
DWIDTH 16 0
BBX 16 27 0 -6
BITMAP
00000027BEFEC810
000018FFFFCBEFD2
0002DFFFC3001EFA
001DFFFB00000CFD
00BFFFD100001FFC
04FFFF500000AFF6
0BFFFC0000002640
1FFFF70000000000
4FFFF20000000000
6FFFF0000001CCC2
7FFFD0000006FFF0
6FFFD000000BFFC0
4FFFF000004FFF90
0EFFF50001DFFF50
08FFFD303CFFFF20
01CFFFFFFCDFFE00
0018EFFE81FFFB00
0000012004FFF700
0000000007FFF400
00017A930BFFF100
002DFFFE0EFFB000
00AFD3173FFF6000
00FF60007FFE1000
00FF6000DFF80000
00BFC21AFFC00000
002DFFFFFC100000
000058A950000000
ENDCHAR
STARTCHAR H
ENCODING 72
SWIDTH 665 0
DWIDTH 19 0
BBX 20 21 0 0
BITMAP
00000049DEF3000AFFF5
00004CFFFFF0000DFFF2
0009FFDFFFC0001FFFE0
00AFF55FFF90004FFFA0
08FF509FFF60007FFF70
2FF900CFFF3000AFFF40
7FF401FFFF0000DFFF10
9FF104FFFC0001FFFD00
8FE007FFF90005FFFA00
2FF00AFFFFFFFFFFF600
02610DFFFFFFFFFFF300
00002FFFE0000EFFF000
00005FFFB0002FFFC000
00008FFF80006FFF9000
0000CFFF40009FFF5000
0000FFFF1000CFFF2000
0003FFFD0001FFFE0000
0007FFF90004FFFB0000
000AFFF60007FFF80000
000DFFF2000BFFF50000
001FFFE0000EFFF10000
ENDCHAR
STARTCHAR I
ENCODING 73
SWIDTH 375 0
DWIDTH 11 0
BBX 11 21 0 0
BITMAP
0000016ADFE0
00006EFFFFC0
002CFB8FFF90
02DF809FFF60
1DFB00DFFF20
7FF301FFFE00
BFE004FFFB00
CFC007FFF800
9FC00BFFF500
1AC00EFFF100
00002FFFD000
00005FFFA000
00008FFF7000
0000CFFF4000
0000FFFF1000
0003FFFC0000
0006FFF90000
0009FFF60000
000DFFF30000
001FFFE00000
004FFFB00000
ENDCHAR
STARTCHAR J
ENCODING 74
SWIDTH 536 0
DWIDTH 15 0
BBX 17 27 0 -6
BITMAP
000000000005ADFF10
0000000006EFFFFD00
00000001BFC8FFFA00
0000001CFB08FFF700
000000CFD10BFFF300
000005FF500FFFF100
00000AFF103FFFC000
00000BFD007FFF9000
000008FD00AFFF6000
000001BE10DFFF3000
0000000002FFFE0000
0000000005FFFB0000
0000000008FFF80000
000000000CFFF50000
000000000FFFF20000
000000003FFFD00000
000000007FFFA00000
00000000AFFF700000
00000000EFFF400000
006AA712FFFF100000
0AFFFF85FFFC000000
3FF81359FFF8000000
7FE0000DFFF2000000
7FE0003FFF90000000
3FF713CFFD10000000
08FFFFFFB200000000
0049A9730000000000
ENDCHAR
STARTCHAR K
ENCODING 75
SWIDTH 601 0
DWIDTH 17 0
BBX 19 21 0 0
BITMAP
0000016ADFE0000BFE30
00007EFFFFC0007FF500
002DFA8FFF9004FF6000
03EF80AFFF601DF80000
1DFA00DFFF20AFA00000
7FF301FFFE07FC100000
BFE004FFFB3FD1000000
CFC007FFF9DE20000000
8FC00BFFFEF400000000
18B00EFFFFFFFB300000
00002FFFD35EFFD00000
00005FFFA008FFF30000
00008FFF7008FFF30000
0000CFFF300AFFF10000
0000FFFF100EFFD00000
0003FFFC003FFFA00000
0006FFF9007FFF600000
0009FFF600BFFF200000
000DFFF300DFFE000000
001FFFE000EFFE000000
004FFFB0006EFF600000
ENDCHAR
STARTCHAR L
ENCODING 76
SWIDTH 379 0
DWIDTH 11 0
BBX 19 28 0 -7
BITMAP
0000016ADFE000000000
00007EFFFFC000000000
002DFA8FFF9000000000
03EF70AFFF5000000000
1DFA00DFFF2000000000
7FF301FFFE0000000000
BFE005FFFB0000000000
CFC008FFF70000000000
8FC00BFFF40000000000
07A00EFFF10000000000
00003FFFC00000000000
00006FFF900000000000
00009FFF600000000000
0000DFFF300000000000
0001FFFE000000000000
0004FFFB000000000000
0007FFF8000000000000
000BFFF5000000000000
000EFFF1000000000000
002FFFD0000000000000
006FFFFD700000000000
000138FFFD4000000000
0000002BFFFA20000000
000000007FFFF9410330
0000000005EFFFFFFF50
00000000003DFFFFFF20
000000000001BFFFFA00
00000000000006CEC100
ENDCHAR
STARTCHAR M
ENCODING 77
SWIDTH 787 0
DWIDTH 22 0
BBX 21 21 2 0
BITMAP
000004ADFFE00000BFFF70
0003CFDFFFE00002FFFF50
006FE55FFFD00008FFFF20
06FE30BFFFC0000EFFFF00
3FF501FFFFC0005FFFFD00
AFE007FFFFB000CFFFFB00
EFA00CFFFFA003FFFFF900
FF803FFFFFA009FFFFF700
BF808FDFFF901EFEFFF500
1880DF9FFF806FCDFFF300
0004FE5FFF80CF6FFFF100
000AF95FFF74FE3FFFE000
001EF36FFF6AF84FFFC000
006FD07FFF7FF26FFF9000
00BF707FFFCFB08FFF7000
02FF208FFFFF50AFFF5000
07FB009FFFFD00CFFF3000
0DF6009FFFF800EFFF1000
3FE100AFFFF202FFFE0000
9FA000BFFFA004FFFC0000
EF4000BFFF4006FFFA0000
ENDCHAR
STARTCHAR N
ENCODING 78
SWIDTH 668 0
DWIDTH 19 0
BBX 20 21 0 0
BITMAP
000016BDFEA000000BFF
0006EFFFFFF200000EFC
009FF86FFFF500002FF8
08FF608FFFF900005FF5
2FFA00CFFFFC00008FF2
8FF300FFFFFF1000BFE0
BFF103FFFFFF4000EFA0
CFE007FFDFFF7002FF70
9FF00AFF6FFFB005FF40
2DF40DFD1FFFE008FF10
00332FFA0CFFF20BFC00
00005FF609FFF60EF900
00008FF305FFF93FF600
0000CFE001FFFC6FF300
0000FFB000DFFFAFE000
0003FF80009FFFFFB000
0006FF40006FFFFF8000
000AFF10002FFFFF5000
000DFC00000EFFFF1000
001FF900000AFFFD0000
005FF5000007FFFA0000
ENDCHAR
STARTCHAR O
ENCODING 79
SWIDTH 665 0
DWIDTH 19 0
BBX 19 21 0 0
BITMAP
000000159CEFEC920000
000018EFFDBBDFFF6000
0005EFD6113107FFF300
007FF802AFF700CFFB00
05FF802EFF80008FFF10
1EFC00CFFD10006FFF40
5FF507FFF700006FFF50
8FF21FFFE100007FFF50
6FF07FFF9000008FFF50
1BF1DFFF400000AFFF30
0003FFFE000000DFFF00
0006FFFB000002FFFC00
000AFFF8000006FFF700
000CFFF500000CFFF300
000DFFF400003FFFB000
000EFFF30000BFFF4000
000EFFF40004FFFA0000
000BFFF7002DFFD10000
0006FFFE56DFFD200000
0000BFFFFFFFB1000000
000007CFEDA400000000
ENDCHAR
STARTCHAR P
ENCODING 80
SWIDTH 573 0
DWIDTH 16 0
BBX 17 21 0 0
BITMAP
0000005ADFEDA40000
00006EFFCBBEFFA100
001CFD500001AFFA00
02DFA048AC601EFF30
0CFC00BFFF400AFF70
6FF400EFFF1008FF90
BFE003FFFC0009FF70
CFD006FFF9000DFF40
AFC00AFFF6003FFD00
2CD00DFFF300BFF500
00101FFFE007FF9000
00004FFFB19FF70000
00008FFFEFEA300000
0000BFFF6100000000
0000EFFF1000000000
0003FFFD0000000000
0006FFFA0000000000
0009FFF60000000000
000CFFF30000000000
001FFFE00000000000
004FFFC00000000000
ENDCHAR
STARTCHAR Q
ENCODING 81
SWIDTH 665 0
DWIDTH 19 0
BBX 19 24 0 -3
BITMAP
000000159CEFEC920000
000029EFFDBBDFFF5000
0006EFC6124206FFF300
008FF702BFF600BFFA00
07FF703EFF80008FFF10
1EFB00DFFD00006FFF30
6FF508FFF600006FFF50
8FF11FFFD000006FFF50
5FF07FFF8000008FFF40
07B2DFFF300000AFFF30
0003FFFD000000EFFF10
0006FFFA000003FFFC00
000AFFF7000008FFF800
000CFFF500000DFFF300
000DFFF300005FFFD000
000EFFF30000DFFF6000
000EFFFCDD89FFFC0000
000BFFFA3CFFFFF30000
0006FFFD04FFFF600000
0000BFFFCEFFF6000000
000007CEFEDFFA000000
00000000001FFFD75000
000000000009FFFFA000
0000000000008EEA1000
ENDCHAR
STARTCHAR R
ENCODING 82
SWIDTH 601 0
DWIDTH 17 0
BBX 17 21 0 0
BITMAP
0000016ADFEDA50000
00007EFFDBBDFFC100
002DFD6100007FFC00
03EFB15ACE700CFF30
1EFC10CFFF3009FF50
7FF500FFFF000BFF30
CFE003FFFC002FFC00
BFC007FFF800BFE300
7FC00AFFF53BFE4000
06900DFFFFFFFC3000
00001FFFD12DFFE000
00005FFF9008FFF300
00008FFF6008FFF300
0000BFFF300BFFF100
0000EFFF000EFFD000
0003FFFC003FFF9000
0006FFF9007FFF6000
0009FFF600BFFF2000
000DFFF300DFFE0000
001FFFE000EFFE0000
004FFFB0006EFF6000
ENDCHAR
STARTCHAR S
ENCODING 83
SWIDTH 570 0
DWIDTH 16 0
BBX 15 21 1 0
BITMAP
0000006BEFEB4000
00002DFFEBCFF800
0001DFFD2008FF30
0007FFF60004FF70
000AFFF50006FF60
000AFFF8002EFF20
0007FFFE20068300
0001EFFFC1000000
00005FFFFB000000
000009FFFFA00000
000000BFFFF80000
0000001CFFFF3000
029DC502EFFFC000
2EFFFE207FFFF300
AFFE50001FFFF500
EFF600000DFFF400
FFF200000EFFF200
DFF500005FFFA000
7FFD3016EFFD1000
09FFFFFFFFA20000
004ADFED94000000
ENDCHAR
STARTCHAR T
ENCODING 84
SWIDTH 481 0
DWIDTH 13 0
BBX 21 21 0 0
BITMAP
000016ADEFEB7100000310
0007EFFFFFFFFE94117E00
00AFFA53BFFFFFFFFFFC00
08FF5000EFFFFFFFFFF500
1FF80002FFFF88BDEC6000
7FF20005FFFF1000000000
AFE00008FFFC0000000000
CFC0000BFFF80000000000
BFC0000EFFF50000000000
7FC0003FFFF10000000000
07A0006FFFD00000000000
0000009FFF900000000000
000000CFFF600000000000
000001FFFF200000000000
000004FFFE000000000000
000007FFFA000000000000
00000AFFF7000000000000
00000DFFF3000000000000
00001FFFF0000000000000
00004FFFC0000000000000
00008FFF80000000000000
ENDCHAR
STARTCHAR U
ENCODING 85
SWIDTH 716 0
DWIDTH 20 0
BBX 23 21 -1 0
BITMAP
00000016ACEFC00000BFFF40
000029FEDFFF900000EFFF10
0006FF819FFF500002FFFC00
007FE400DFFF100006FFF900
05FF6002FFFC000009FFF600
0CFD0006FFF800000CFFF300
1FF9000AFFF400001FFFE000
1FF8000EFFE000004FFFB000
0CFA002FFFB000007FFF8000
02AD106FFF700000AFFF5000
000000AFFF300000EFFF2000
000000EFFE000002FFFD0000
000003FFFA000005FFFA0000
000006FFF6000009FFF60000
000008FFF300000DFFF20000
00000AFFF100004FFFB00000
000009FFF20000BFFF400000
000007FFF70008FFFA000000
000001FFFFA8CFFFC1000000
0000006FFFFFFFFA10000000
00000003ADFED94000000000
ENDCHAR
STARTCHAR V
ENCODING 86
SWIDTH 615 0
DWIDTH 17 0
BBX 20 21 0 0
BITMAP
0000016ADFF200000EE1
00006EFFFFF200004FA0
002CFA3FFFF200009F40
02DF800FFFF20000ED00
1DFB000FFFF30004F800
7FF3000FFFF30009F200
BFE0000EFFF3000EC000
CFC0000EFFF3005F6000
9FC0000EFFF400AF1000
1AC0000DFFF400EA0000
0000000DFFF405F50000
0000000DFFF40AE00000
0000000CFFF51E900000
0000000CFFF55F300000
0000000CFFF5AC000000
0000000BFFF6F7000000
0000000BFFFBF1000000
0000000AFFFFB0000000
0000000AFFFF50000000
0000000AFFFE00000000
00000009FFF900000000
ENDCHAR
STARTCHAR W
ENCODING 87
SWIDTH 962 0
DWIDTH 27 0
BBX 29 21 0 0
BITMAP
0000016ADFF200000EFFC000004FB0
00006EFFFFF200004FFFC000009F50
002CFA3FFFF200009FFFD00000EE00
02DF800FFFF20000EFFFD00004F900
1DFB000FFFF30004FFFFD00009F300
7FF3000FFFF30009FFFFD0000ED000
BFE0000EFFF3000EFFFFD0004F7000
CFC0000EFFF3005FBFFFE0009F2000
9FC0000EFFF400AF5FFFE000EB0000
1AC0000DFFF400EB3FFFE004F60000
0000000DFFF405F52FFFE00AE10000
0000000DFFF40AE02FFFF00E900000
0000000CFFF51E902FFFF05F400000
0000000CFFF55F301FFFF0AD000000
0000000CFFF5AD001FFFF1E8000000
0000000BFFF6F7001FFFF6F2000000
0000000BFFFBF2000FFFFBC0000000
0000000AFFFFB0000FFFFF60000000
0000000AFFFF50000FFFFF10000000
0000000AFFFE10000EFFFA00000000
00000009FFF900000EFFF400000000
ENDCHAR
STARTCHAR X
ENCODING 88
SWIDTH 620 0
DWIDTH 17 0
BBX 18 21 0 0
BITMAP
0000016ADFF3000BF4
00006EFFFFF6004FA0
002CFA2EFFF900CF20
02DF800BFFFC06F800
1DFB0008FFFF1DE100
7FF30005FFFFBF6000
BFE00001FFFFFC0000
CFC00000DFFFF40000
9FC00000AFFFE00000
1AC000007FFFF10000
000000004FFFF40000
000000001FFFF70000
000000006FFFFA0000
00000001EFFFFE0000
00000008F9FFFF2000
0000002FA3FFFF5000
000000BE20EFFF8000
000004F700BFFFB000
00000CD0008FFFE000
00006F50005FFFF200
0001EB00002FFFF500
ENDCHAR
STARTCHAR Y
ENCODING 89
SWIDTH 620 0
DWIDTH 17 0
BBX 20 21 0 0
BITMAP
0000016ADFF3000008F5
00006EFFFFF700000DD0
002CFA2EFFFB00005F70
02DF800AFFFE0000BE10
1DFB0006FFFF3002F800
7FF30002FFFF6008F200
BFE00000DFFFA01EA000
CFC000009FFFE06F3000
9FC000006FFFF2CC0000
1AC000002FFFF9F50000
000000000DFFFFD00000
0000000009FFFF700000
0000000007FFFF100000
0000000009FFFD000000
000000000CFFFA000000
000000001FFFF6000000
000000004FFFF3000000
000000007FFFF0000000
00000000AFFFC0000000
00000000EFFF90000000
00000002FFFF60000000
ENDCHAR
STARTCHAR Z
ENCODING 90
SWIDTH 542 0
DWIDTH 15 0
BBX 16 21 0 0
BITMAP
0003BEFFFFFFFFF3
002EFDBAAAFFFFB0
007FF40005FFFF30
008FF6000CFFFB00
002A91005FFFF300
00000000CFFFB000
00000005FFFF3000
0000000CFFFB0000
0000005FFFF30000
000000DFFFB00000
000005FFFF300000
00000DFFFB000000
00006FFFF3000000
0000DFFFB0000000
0006FFFF30000000
000DFFFB00000000
006FFFF30005B500
00DFFFB0001FFE00
06FFFF30000DFD00
0DFFFEAAABDFF500
7FFFFFFFFFFC5000
ENDCHAR
STARTCHAR bracketleft
ENCODING 91
SWIDTH 400 0
DWIDTH 11 0
BBX 13 28 -1 -7
BITMAP
0000006FFFFF80
0000009FFBAA40
000000DFF10000
000001FFD00000
000004FFA00000
000007FF600000
00000AFF300000
00000DFF000000
00001FFC000000
00005FF9000000
00008FF5000000
0000BFF2000000
0000EFE0000000
0002FFB0000000
0005FF80000000
0009FF40000000
000CFF10000000
000FFD00000000
003FFA00000000
006FF700000000
009FF400000000
00DFF100000000
01FFC000000000
04FF9000000000
07FF6000000000
0AFF3000000000
0DFFAAA0000000
1FFFFFD0000000
ENDCHAR
STARTCHAR backslash
ENCODING 92
SWIDTH 362 0
DWIDTH 10 0
BBX 9 28 1 -7
BITMAP
BF40000000
8F80000000
5FB0000000
1FE0000000
0DF2000000
0AF5000000
07F8000000
04FC000000
01FF000000
00CF300000
009F600000
006F900000
003FD00000
000EF10000
000BF40000
0008F70000
0005FA0000
0002FD0000
0000EF2000
0000AF5000
00007F8000
00004FB000
00001FE000
00000DF300
00000AF600
000006F900
000003FC00
000000FF10
ENDCHAR
STARTCHAR bracketright
ENCODING 93
SWIDTH 400 0
DWIDTH 11 0
BBX 13 28 -2 -7
BITMAP
000000DFFFFF10
000000AAAFFD00
000000003FFA00
000000006FF700
000000009FF400
00000000CFF100
00000001FFC000
00000004FF9000
00000007FF6000
0000000AFF3000
0000000DFE0000
0000001FFC0000
0000005FF80000
0000008FF50000
000000BFF20000
000000EFE00000
000002FFB00000
000005FF800000
000009FF500000
00000CFF100000
00000FFD000000
00003FFA000000
00006FF7000000
0000AFF4000000
0000DFF1000000
0001FFD0000000
4AABFF90000000
9FFFFF60000000
ENDCHAR
STARTCHAR asciicircum
ENCODING 94
SWIDTH 421 0
DWIDTH 12 0
BBX 9 5 1 15
BITMAP
000004E100
00007FF600
0009FFFB00
01BFA27F20
2C92000A70
ENDCHAR
STARTCHAR underscore
ENCODING 95
SWIDTH 444 0
DWIDTH 12 0
BBX 11 2 1 0
BITMAP
6AAAAAAAAA20
DFFFFFFFFE00
ENDCHAR
STARTCHAR grave
ENCODING 96
SWIDTH 201 0
DWIDTH 6 0
BBX 5 5 0 15
BITMAP
2FFA00
0AFD00
03FF00
00CF30
005F50
ENDCHAR
STARTCHAR a
ENCODING 97
SWIDTH 526 0
DWIDTH 15 0
BBX 17 14 -1 0
BITMAP
000017CFE8AFFF5000
0002DFFFBEEFFF2000
001CFFE304FFFE0000
009FFF6005FFFA0000
02FFFD0008FFF70000
09FFF7000BFFF40000
0DFFF3000EFFF10000
2FFFE0003FFFC00000
4FFFD0006FFF900010
5FFFC000AFFF6007A0
4FFFE003FFFF501E30
1FFFFB9EDFFFD8DA00
09FFFFF93FFFFFC100
008DFC6006DFC60000
ENDCHAR
STARTCHAR b
ENCODING 98
SWIDTH 444 0
DWIDTH 12 0
BBX 13 20 -1 0
BITMAP
00000135100000
0001EFFE000000
0005FFFB000000
0008FFF7000000
000BFFF4000000
000EFFF1000000
003FFFEAEEA100
006FFFFCDFFB00
009FFF600DFF20
00CFFF2008FF50
01FFFE0007FF60
04FFFB0008FF50
07FFF7000AFF30
0AFFF4000EFE00
0EFFF1004FFB00
1FFFD000BFF400
2FFFE107FFC000
1FFFFEEFFE2000
09FFFFFFD30000
007DEEC7100000
ENDCHAR
STARTCHAR c
ENCODING 99
SWIDTH 384 0
DWIDTH 11 0
BBX 13 14 -1 0
BITMAP
000006CEEC4000
0002CFFECFE100
000CFFE20EF400
009FFF600EF200
02FFFE00196000
08FFF800000000
0DFFF400000000
2FFFF100000000
4FFFD000000000
5FFFC000000950
4FFFD00001AA00
1FFFF8347DB100
09FFFFFFF90000
006CFFD9300000
ENDCHAR
STARTCHAR d
ENCODING 100
SWIDTH 525 0
DWIDTH 15 0
BBX 17 20 -1 0
BITMAP
000000000000013300
000000000008EFF600
00000000000CFFF300
00000000001FFFE000
00000000004FFFB000
00000000007FFF8000
000017CFE8AFFF5000
0002DFFFBEEFFF1000
001CFFE204FFFD0000
009FFF5005FFFA0000
02FFFC0009FFF70000
09FFF7000CFFF30000
0DFFF2001FFFF00000
2FFFE0004FFFC00000
4FFFC0007FFF800130
5FFFC000BFFF500990
4FFFF207FFFF604F30
1FFFFEEFCFFFFDF900
09FFFFF82FFFFFB000
008DFC5005DFD70000
ENDCHAR
STARTCHAR e
ENCODING 101
SWIDTH 384 0
DWIDTH 11 0
BBX 13 14 -1 0
BITMAP
000007CEEC4000
0002CFFECFE100
001CFFE20EF300
009FFF500FF300
02FFFD005FE000
09FFF702EF7000
0DFFF45EFA0000
2FFFFFFF800000
4FFFE971000000
5FFFC000000750
4FFFD000009C00
1FFFF8337DC100
09FFFFFFF91000
006CFFD9300000
ENDCHAR
STARTCHAR f
ENCODING 102
SWIDTH 267 0
DWIDTH 7 0
BBX 17 28 -6 -7
BITMAP
000000000029DFC500
0000000003EFFFFF50
000000000CFFF83CA0
000000004FFFB009B0
000000008FFF700000
00000000CFFF300000
00000000FFFF100000
00000003FFFFFE0000
00000006FFFEA80000
00000009FFF8000000
0000000DFFF5000000
0000001FFFF1000000
0000004FFFD0000000
0000007FFFA0000000
000000AFFF70000000
000000EFFF30000000
000002FFFF00000000
000005FFFC00000000
000008FFF800000000
00000BFFF500000000
00001EFFF200000000
004BFFFFD000000000
0AFA8FFFA000000000
7F508FFF7000000000
BC00CFFF3000000000
BE47FFFB0000000000
5FFFFFE20000000000
05CED8100000000000
ENDCHAR
STARTCHAR g
ENCODING 103
SWIDTH 507 0
DWIDTH 14 0
BBX 17 21 -1 -7
BITMAP
000017CFE8AFFF5000
0002DFFFBEEFFF2000
001CFFE204FFFD0000
009FFF5005FFFA0000
02FFFC0008FFF70000
09FFF7000CFFF40000
0DFFF2000FFFF10000
2FFFE0003FFFC00000
4FFFC0007FFF900310
5FFFC000BFFF602F20
4FFFF207FFFF208B00
1FFFFEEFFFFE05E200
09FFFFFDFFFD9E5000
008DFC68FFFFA20000
000004BFFFF5000000
0001AFDFFFF2000000
000BF71FFFE0000000
001F905FFF90000000
002F70BFFF30000000
000DECFFF800000000
0002AEEB5000000000
ENDCHAR
STARTCHAR h
ENCODING 104
SWIDTH 505 0
DWIDTH 14 0
BBX 17 20 -1 0
BITMAP
000001351000000000
0001EFFE0000000000
0004FFFB0000000000
0008FFF80000000000
000BFFF50000000000
000EFFF20000000000
002FFFD2AEE9100000
006FFFDEFFFFA00000
009FFFFEEFFFE00000
00CFFFC11FFFE00000
01FFFF300FFFD00000
03FFFD002FFFA00000
07FFF9005FFF600000
0AFFF6008FFF200000
0DFFF300CFFE000210
1FFFE000FFFB003F10
5FFFB002FFFC01CA00
8FFF8002FFFFEEF200
BFFF4000CFFFFF6000
EFFF10002AEEB40000
ENDCHAR
STARTCHAR i
ENCODING 105
SWIDTH 267 0
DWIDTH 7 0
BBX 10 19 -1 0
BITMAP
0000AEC300
0006FFFC00
0006FFFC00
0000AEC300
0000000000
003FFFC000
006FFF9000
009FFF6000
00DFFF3000
01FFFE0000
04FFFB0000
07FFF80000
0BFFF50000
0EFFF20011
2FFFE000C6
3FFFD007E1
2FFFFBCF50
0CFFFFF700
02BEEA3000
ENDCHAR
STARTCHAR j
ENCODING 106
SWIDTH 240 0
DWIDTH 7 0
BBX 14 26 -6 -7
BITMAP
000000002BEB10
00000000AFFF80
00000000AFFF90
000000002BEB10
00000000000000
00000003FFFD00
00000006FFFA00
00000009FFF700
0000000CFFF400
0000001FFFF100
0000004FFFC000
0000007FFF9000
000000AFFF6000
000000DFFF3000
000001FFFF0059
000004FFFC00C6
000008FFF905D0
00000BFFF64D30
00000EFFFCB200
0005BFFFE20000
02CFFFFFA00000
2EF89FFF700000
8F40BFFF300000
9E03FFFC000000
5FCEFFE2000000
06DED810000000
ENDCHAR
STARTCHAR k
ENCODING 107
SWIDTH 518 0
DWIDTH 15 0
BBX 17 20 -1 0
BITMAP
000002461000000000
0001FFFE0000000000
0005FFFB0000000000
0008FFF70000000000
000BFFF40000000000
000EFFF10000000000
003FFFD0004EF80000
006FFFA007FD300000
009FFF61AF91000000
00CFFF5CE700000000
01FFFFEFFFF7000000
04FFFFFFFFFF400000
07FFFE62BFFF800000
0AFFF5008FFF900000
0DFFF200AFFF700000
1FFFE000CFFF300B70
5FFFB000EFFF204E10
8FFF7000EFFFB9E800
BFFF40009FFFFFB000
EFFF100018DFD70000
ENDCHAR
STARTCHAR l
ENCODING 108
SWIDTH 267 0
DWIDTH 7 0
BBX 10 20 -1 0
BITMAP
0000002400
0001DFFE00
0004FFFB00
0008FFF800
000BFFF500
000EFFF100
002FFFD000
006FFFA000
009FFF7000
00CFFF4000
01FFFF1000
04FFFC0000
07FFF90000
0AFFF60000
0EFFF20000
1FFFE000B7
3FFFD005E1
2FFFF9AF60
0CFFFFF800
02BEEA4000
ENDCHAR
STARTCHAR m
ENCODING 109
SWIDTH 752 0
DWIDTH 21 0
BBX 24 14 -1 0
BITMAP
003FFFC5BEEB205CED910000
006FFFEFFFFFB9FFFFF80000
009FFFE65FFFFE56FFFD0000
00DFFF601FFFF501FFFD0000
01FFFE103FFFD002FFFB0000
04FFFB006FFFA004FFF80000
07FFF8009FFF6008FFF50000
0AFFF500CFFF300BFFF10000
0DFFF200FFFF100EFFC00041
2FFFE003FFFC002FFFA005E0
5FFFA006FFF9004FFFB02D80
8FFF7009FFF6003FFFFDFE10
BFFF400DFFF3000CFFFFF400
EFFF101FFFF00002AEEA3000
ENDCHAR
STARTCHAR n
ENCODING 110
SWIDTH 505 0
DWIDTH 14 0
BBX 17 14 -1 0
BITMAP
003FFFC5CEE9100000
006FFFEFFFFFA00000
009FFFE55FFFE00000
00DFFF600EFFE00000
01FFFE101FFFD00000
04FFFB003FFFA00000
07FFF8006FFF600000
0AFFF500AFFF200000
0DFFF200DFFE000410
2FFFE001FFFB003E10
5FFFA002FFFC01C900
8FFF7001FFFFEFE200
BFFF4000BFFFFF5000
EFFF10001AEEB30000
ENDCHAR
STARTCHAR o
ENCODING 111
SWIDTH 439 0
DWIDTH 12 0
BBX 17 14 -1 0
BITMAP
000006BEFC40000000
0001CFFEBFF3000000
000CFFE309F9000000
009FFF700AFC002980
02FFFE103FFE8BE800
08FFF9002EFEA61000
0DFFF4000AFA000000
2FFFF1000DF7000000
4FFFD0002FF4000000
5FFFC0008FD0000000
5FFFD002EF60000000
2FFFF54CFB00000000
09FFFFFFB100000000
006CEEC60000000000
ENDCHAR
STARTCHAR p
ENCODING 112
SWIDTH 468 0
DWIDTH 13 0
BBX 16 22 -3 -7
BITMAP
00000EFFF1000000
00003FFFD6CEEA10
00006FFFFDCFFFC0
00009FFFA00BFFF3
0000DFFF2007FFF5
0001FFFE0007FFF6
0004FFFB0008FFF5
0007FFF8000BFFF3
000BFFF5000EFFF1
000EFFF1003FFFC0
002FFFD000AFFF60
005FFFA004FFFE10
008FFFE79FFFF500
00CFFFFFFFFF7000
00FFFF6DFEA40000
03FFFC0000000000
06FFF90000000000
0AFFF60000000000
0DFFF30000000000
1FFFE00000000000
4FFF900000000000
5741000000000000
ENDCHAR
STARTCHAR q
ENCODING 113
SWIDTH 486 0
DWIDTH 14 0
BBX 15 21 -1 -7
BITMAP
000017CFE8BFFF40
0002DFFFBEEFFF10
001CFFE204FFFD00
009FFF5005FFFA00
02FFFC0009FFF700
09FFF7000CFFF300
0DFFF2001FFFF000
2FFFE0004FFFC000
4FFFC0007FFF9000
5FFFC000CFFF5000
4FFFF207FFFF2000
1FFFFEEFFFFE0000
09FFFFFDFFFB0000
008DFC68FFF70000
0000000BFFF40000
0000000EFFF10000
0000003FFFD00000
0000006FFFA00000
0000009FFF600000
000000CFFD300000
0000009520000000
ENDCHAR
STARTCHAR r
ENCODING 114
SWIDTH 376 0
DWIDTH 11 0
BBX 12 14 -1 0
BITMAP
003FFFC2AED4
006FFFDEFFFC
009FFFE68FFC
00DFFF301ED4
01FFFE000000
04FFFB000000
07FFF8000000
0AFFF5000000
0DFFF2000000
2FFFE0000000
5FFFA0000000
8FFF70000000
BFFF40000000
EFFF10000000
ENDCHAR
STARTCHAR s
ENCODING 115
SWIDTH 382 0
DWIDTH 11 0
BBX 13 15 -1 0
BITMAP
00000357920000
00003FFFF30000
00008FFFF40000
0000DFFFF50000
0004ECFFF60000
000B9AFFF70000
002F39FFF80000
00AA08FFF90000
03F306FFFA0000
3EF505FFFB0000
BFF704FFFC1C50
DB6106FFFDD500
BD001CFFFC2000
3FDBEFFF700000
03BEFD93000000
ENDCHAR
STARTCHAR t
ENCODING 116
SWIDTH 267 0
DWIDTH 7 0
BBX 10 19 -1 0
BITMAP
0000002400
0004DFFB00
0008FFF700
000BFFF400
000EFFF100
01FFFFFF80
02CFFFEA40
008FFF8000
00BFFF5000
00EFFF1000
03FFFD0000
06FFF90000
0AFFF60000
0DFFF30000
1FFFE000A6
3FFFD005E1
2FFFFABF60
0CFFFFF800
02BEEA4000
ENDCHAR
STARTCHAR u
ENCODING 117
SWIDTH 505 0
DWIDTH 14 0
BBX 17 14 -1 0
BITMAP
003FFFC004FFFB0000
006FFF9008FFF80000
009FFF600BFFF50000
00DFFF300EFFF20000
01FFFE002FFFD00000
04FFFB005FFFA00000
07FFF8009FFF700000
0BFFF500CFFF400000
0EFFF200FFFF100100
2FFFE005FFFD002F10
3FFFD01DFFFC00AA00
2FFFFBDCFFFFBDE200
0CFFFFE2BFFFFE4000
02BEE9102BEE920000
ENDCHAR
STARTCHAR v
ENCODING 118
SWIDTH 414 0
DWIDTH 12 0
BBX 13 14 -1 0
BITMAP
003FFFC01CE800
006FFF904FFF10
009FFF601CDF20
00DFFF30008F10
01FFFE0000AF00
04FFFB0000EC00
07FFF80003F800
0BFFF50009F400
0EFFF2002FD000
2FFFE000AF6000
3FFFD008FC0000
2FFFFBDFE20000
0CFFFFFE400000
02AEFD81000000
ENDCHAR
STARTCHAR w
ENCODING 119
SWIDTH 661 0
DWIDTH 19 0
BBX 20 14 -1 0
BITMAP
003FFFC004FFFB01CE70
006FFF9008FFF806FFE0
009FFF600BFFF502CDF1
00DFFF300EFFF20009F0
01FFFE002FFFD0000BD0
04FFFB005FFFA0001FB0
07FFF8009FFF70005F70
0BFFF500CFFF4000BF30
0EFFF200FFFF1003FB00
2FFFE005FFFD000CF500
3FFFE01DFFFC009FB000
2FFFFBDEFFFFBDFE1000
0CFFFFE2DFFFFFE30000
02BEE9202AEED8100000
ENDCHAR
STARTCHAR x
ENCODING 120
SWIDTH 522 0
DWIDTH 15 0
BBX 16 15 0 0
BITMAP
00000000002DE600
00007DED506FFD00
000BDEFFF219EE00
008A06FFF701EA00
02E102FFFA0BE200
097000EFFDAF4000
1E1000CFFFF50000
6B0000AFFF500000
B70000CFFF300000
920009FFFF500024
00007F8FFF8000B7
0004F71FFFD108E1
003EB00BFFFEEF60
01DD1004FFFFF800
0CF300006EEB4000
ENDCHAR
STARTCHAR y
ENCODING 121
SWIDTH 486 0
DWIDTH 14 0
BBX 16 21 -1 -7
BITMAP
003FFFC004FFFB00
006FFF9008FFF800
009FFF600BFFF500
00DFFF300EFFF100
01FFFE002FFFD000
04FFFB006FFFA000
07FFF8009FFF7000
0BFFF500CFFF3000
0EFFF201FFFF1011
2FFFE005FFFC00A9
3FFFE01DFFF902F3
2FFFFBEFFFF61C90
0CFFFFDFFFF7DB10
02BEE93FFFFD7000
000017DFFFC00000
0005EECFFF800000
004F91BFFF500000
00AD01EFFF100000
00BE4AFFF9000000
007FFFFFD1000000
0007DFD810000000
ENDCHAR
STARTCHAR z
ENCODING 122
SWIDTH 428 0
DWIDTH 12 0
BBX 12 14 0 0
BITMAP
002BEFFFFFFB
01DFCAAFFFF2
05FF405FFF90
05FF21DFFE10
003207FFF700
00002EFFD000
0000AFFF5000
0004FFFB0000
000CFFF30000
006FFF900100
01EFFE109F90
08FFF700BFC0
2FFFFDBBEF50
BFFFFFFFC500
ENDCHAR
STARTCHAR braceleft
ENCODING 123
SWIDTH 352 0
DWIDTH 10 0
BBX 11 28 1 -7
BITMAP
0000017CEF20
00000BFFEB00
00006FFB1000
0000CFF30000
0001FFE00000
0003FFC00000
0006FFA00000
0007FF900000
0008FF700000
0009FF600000
000AFF400000
000CFF200000
003FFB000000
5BEF91000000
AFFD30000000
01CFD0000000
00CFF0000000
00EFE0000000
03FFA0000000
07FF70000000
0BFF30000000
1FFE00000000
5FFB00000000
8FFA00000000
AFFA00000000
9FFD00000000
3FFF92000000
03AEF3000000
ENDCHAR
STARTCHAR bar
ENCODING 124
SWIDTH 532 0
DWIDTH 15 0
BBX 3 28 6 -7
BITMAP
DFB0
DFB0
DFB0
DFB0
DFB0
DFB0
DFB0
DFB0
DFB0
DFB0
DFB0
DFB0
DFB0
DFB0
DFB0
DFB0
DFB0
DFB0
DFB0
DFB0
DFB0
DFB0
DFB0
DFB0
DFB0
DFB0
DFB0
DFB0
ENDCHAR
STARTCHAR braceright
ENCODING 125
SWIDTH 352 0
DWIDTH 10 0
BBX 11 28 -2 -7
BITMAP
00000CEC6000
000008FFF800
0000008FFE00
0000004FFF10
0000004FFE00
0000005FFB00
0000008FF700
000000BFF300
000001FFD000
000004FF9000
000007FF6000
000009FF3000
000009FF2000
000003DFDA10
000002AFFE00
00003EFB2000
0000AFF40000
0000DFF10000
0000FFF00000
0001FFE00000
0003FFD00000
0004FFC00000
0006FF900000
0009FF700000
000DFF300000
006FFC000000
7DFFE3000000
BFDA20000000
ENDCHAR
STARTCHAR asciitilde
ENCODING 126
SWIDTH 431 0
DWIDTH 12 0
BBX 12 3 1 16
BITMAP
006CEEC73134
0BFFFFFFFFB1
33137BEEC600
ENDCHAR
STARTCHAR uni00A0
ENCODING 160
SWIDTH 217 0
DWIDTH 6 0
BBX 1 1 0 0
BITMAP
00
ENDCHAR
STARTCHAR exclamdown
ENCODING 161
SWIDTH 219 0
DWIDTH 6 0
BBX 9 21 -2 -7
BITMAP
00003CE900
0000CFFF60
0000CFFF60
00003CE900
0000000000
0000000000
0000DF9000
0002FF7000
0006FF4000
000BFF2000
000EFF0000
004FFC0000
008FFA0000
00DFF80000
02FFF50000
06FFF30000
0AFFF10000
0EFFD00000
4FFFB00000
8FFE700000
3310000000
ENDCHAR
STARTCHAR cent
ENCODING 162
SWIDTH 384 0
DWIDTH 11 0
BBX 12 21 0 -1
BITMAP
00000006F100
00000009C000
0000000CA200
000006BFFFC1
0004DFDF2EF8
004FF79C0DFA
02EFB0D92FF7
0BFF51F50770
2FFE04F20000
7FFB08E00000
AFFA0BA00000
BFF90E700000
AFFA3F400000
7FFE7F100200
1FFFFD35C800
05FFFFFFF400
003BFFEB4000
0005F1000000
0008D0000000
000C90000000
000730000000
ENDCHAR
STARTCHAR sterling
ENCODING 163
SWIDTH 455 0
DWIDTH 13 0
BBX 15 21 0 0
BITMAP
000000017CEEB300
0000003DFFCEFE20
000001EFFA06FF50
000009FFF207FF40
00000EFFC00AFA00
00004FFF80000000
00007FFF50000000
0000BFFF10000000
0000EFFC00000000
0CFFFFFFFFF80000
0AACFFFCAAA40000
0008FFF300000000
000BFFF000000000
000EFFC000000000
003FFF8000000000
006FFF3000000000
00AFF70000000200
01FFEDCA6202AA00
09FFFFFFFFFFFB00
7FFFFFFFFFFFF600
47310259CEEB5000
ENDCHAR
STARTCHAR currency
ENCODING 164
SWIDTH 500 0
DWIDTH 14 0
BBX 10 11 2 4
BITMAP
4300000035
CE49EEB5ED
2DFFCBFFE2
0BE3002DD0
2F700005F5
4F500002F6
2F900007F4
0AF8116EC0
4FEFFFFEF5
CC159961BD
2100000002
ENDCHAR
STARTCHAR yen
ENCODING 165
SWIDTH 558 0
DWIDTH 16 0
BBX 14 21 2 0
BITMAP
0DFFFB000000ED
0AFFFE000005F7
06FFFF30000BE1
02FFFF60002F90
00EFFFA0008F30
00AFFFD000EB00
006FFFF205F500
003FFFF50BD000
000EFFF92F7000
000BFFFC8F1000
0007FFFFE90000
0003FFFFF30000
0112FFFFC11100
0BFFFFFFFFFF20
0448FFFF644400
3AADFFFFAAA500
8FFFFFFFFFF500
000EFFF8000000
003FFFF4000000
006FFFF1000000
009FFFD0000000
ENDCHAR
STARTCHAR brokenbar
ENCODING 166
SWIDTH 532 0
DWIDTH 15 0
BBX 3 28 6 -7
BITMAP
DFB0
DFB0
DFB0
DFB0
DFB0
DFB0
DFB0
DFB0
DFB0
DFB0
DFB0
DFB0
0000
0000
0000
DFB0
DFB0
DFB0
DFB0
DFB0
DFB0
DFB0
DFB0
DFB0
DFB0
DFB0
DFB0
DFB0
ENDCHAR
STARTCHAR section
ENCODING 167
SWIDTH 542 0
DWIDTH 15 0
BBX 15 23 0 -2
BITMAP
000000028CEEC700
0000005FFC319F70
000003FFE1003FA0
00000AFFB0006F80
00000CFFA000BA10
00000CFFE2000000
0001AFFFFC100000
000CFADFFFD30000
006FF62EFFFE4000
009FFC02CFFFE300
008FFFA00AFFFB00
003FFFFB10BFFF10
0005FFFFC11FFF20
00005FFFFA0CFF00
000004FFFF4CFB00
04AA206FFFCFE300
3FFFA00DFFFC4000
9FF4000AFFD00000
BFE0000AFFB00000
AFE0000DFF600000
5FF9339FFA000000
06DFFFFD70000000
0002442000000000
ENDCHAR
STARTCHAR dieresis
ENCODING 168
SWIDTH 392 0
DWIDTH 11 0
BBX 9 3 1 16
BITMAP
1CE701BE70
6FFE05FFF0
1CE701CE80
ENDCHAR
STARTCHAR copyright
ENCODING 169
SWIDTH 587 0
DWIDTH 16 0
BBX 14 14 1 2
BITMAP
00005BEEC82000
002CC52139E500
01D90000003E50
0AC018DEC405E1
1F41CFDBDF40B7
6E07F5001CA06C
8C0AD00000004E
8C0AE00000004E
6E06F80008306C
2F40BFDBEF50B7
0AB018DEC404E1
01D90000003E50
002CC52138E500
00005BEEC82000
ENDCHAR
STARTCHAR ordfeminine
ENCODING 170
SWIDTH 345 0
DWIDTH 10 0
BBX 8 8 1 12
BITMAP
007DECFD
09F91BF9
2FE10EF5
7F903FF2
BF607FD0
CF91CFC0
AFFFBFF7
18931991
ENDCHAR
STARTCHAR guillemotleft
ENCODING 171
SWIDTH 589 0
DWIDTH 16 0
BBX 16 9 0 3
BITMAP
00000002940002A3
0000029FD103AFC0
00029FC503AFC400
02AFC503AFC40000
3FD5005FC4000000
3DE8104DE7100000
006EE8117EE81000
00018FF7019FE600
000002A90002B700
ENDCHAR
STARTCHAR logicalnot
ENCODING 172
SWIDTH 444 0
DWIDTH 12 0
BBX 12 7 0 1
BITMAP
1AAAAAAAAAA1
5FFFFFFFFFD0
00000008FFA0
0000000CFF70
0000000FFF30
0000003FFE00
000000377600
ENDCHAR
STARTCHAR uni00AD
ENCODING 173
SWIDTH 290 0
DWIDTH 8 0
BBX 7 2 0 6
BITMAP
1AAAAA60
5FFFFF40
ENDCHAR
STARTCHAR registered
ENCODING 174
SWIDTH 553 0
DWIDTH 15 0
BBX 14 14 1 2
BITMAP
00029DEDB50000
006E93125CB100
06E30000009C00
2F51FFFEA20C80
8B01F302AC04E1
D601F3019D00E5
F401FEEFD300B7
F401F52B9000B7
D601F305E100E5
8B01F300D804E1
2F41D3006B0B80
06E30000009C00
006E83115CB100
00028DEEB50000
ENDCHAR
STARTCHAR macron
ENCODING 175
SWIDTH 446 0
DWIDTH 12 0
BBX 10 2 2 16
BITMAP
7AAAAAAAA3
EFFFFFFFF1
ENDCHAR
STARTCHAR degree
ENCODING 176
SWIDTH 314 0
DWIDTH 9 0
BBX 7 9 1 10
BITMAP
006CEC20
08F91E90
3FC00CC0
9F600DC0
DF300EA0
EF103F60
EF108E10
BF44E500
2CED5000
ENDCHAR
STARTCHAR plusminus
ENCODING 177
SWIDTH 479 0
DWIDTH 13 0
BBX 13 14 0 3
BITMAP
00000018810000
0000004FE00000
0000008FB00000
000000BF700000
00EFFFFFFFFF50
03FFFFFFFFFF20
013338FC333300
000009F9000000
00000CF6000000
00000FF3000000
00002BB1000000
00000000000000
0AAAAAAAAA8000
4FFFFFFFFF9000
ENDCHAR
STARTCHAR uni00B2
ENCODING 178
SWIDTH 328 0
DWIDTH 9 0
BBX 8 12 1 9
BITMAP
005CFE91
04F61DF9
08F30BFD
04D70CFB
00003FF3
0001CF50
000AE400
009D2000
08D20000
4FB95155
8FFFFFF4
42148A50
ENDCHAR
STARTCHAR uni00B3
ENCODING 179
SWIDTH 336 0
DWIDTH 9 0
BBX 9 13 1 8
BITMAP
0019EEA200
00CD27FC00
03FB03FF10
01EE25FE00
00112DE400
0003ED3000
00005FE300
1BE30DFB00
7FA10BFD00
8F400DFA00
4F807FE200
06EFFA2000
0001000000
ENDCHAR
STARTCHAR acute
ENCODING 180
SWIDTH 316 0
DWIDTH 9 0
BBX 6 5 3 15
BITMAP
005FF7
00DFA0
06FC10
0DE200
6F5000
ENDCHAR
STARTCHAR uni00B5
ENCODING 181
SWIDTH 505 0
DWIDTH 14 0
BBX 18 19 -2 -5
BITMAP
0003FFFC004FFFB000
0006FFF9008FFF8000
0009FFF600BFFF5000
000DFFF300EFFF2000
001FFFF002FFFE0000
004FFFC005FFFA0000
007FFF8008FFF70000
00AFFF500BFFF40000
00EFFF200EFFF10000
02FFFE004FFFD001E2
05FFFD00BFFFB009A0
08FFFF9CDFFFF9BE20
0BFFFFFE3CFFFFF500
0EFFFEA202BEEA3000
3FFFD0000000000000
6FFF90000000000000
9FFF60000000000000
CFEB20000000000000
630000000000000000
ENDCHAR
STARTCHAR paragraph
ENCODING 182
SWIDTH 542 0
DWIDTH 15 0
BBX 13 23 2 -2
BITMAP
00028DFFD82000
005EFFFFFFE300
05FFFFFFF7FC00
1EFFFFFFC3FF10
7FFFFFFF95FF30
CFFFFFFF68FF20
EFFFFFFF2BFE00
EFFFFFFE0EFB00
DFFFFFFB3FF800
8FFFFFF76FF500
2EFFFFF4AFF200
04EFFFFFFFE000
0029EFE6FFA000
0000EFA3FF7000
0002FF77FF4000
0005FF3AFF1000
0009FF1DFC0000
000CFC1FF90000
000FF94FF60000
003FF67FF30000
006FF3AFE00000
009FF0EFB00000
00DFC2FF800000
ENDCHAR
STARTCHAR periodcentered
ENCODING 183
SWIDTH 434 0
DWIDTH 12 0
BBX 6 5 3 5
BITMAP
07EE80
5FFFF7
9FFFFB
6FFFF7
07EE90
ENDCHAR
STARTCHAR cedilla
ENCODING 184
SWIDTH 227 0
DWIDTH 6 0
BBX 7 7 0 -6
BITMAP
003E1000
00990000
01E87500
05FFFF60
0213FF90
7414FF30
4BEEB300
ENDCHAR
STARTCHAR uni00B9
ENCODING 185
SWIDTH 229 0
DWIDTH 6 0
BBX 5 12 1 8
BITMAP
0148D0
9FFFC0
3AEF90
00FF50
03FF20
06FE00
09FB00
0DF800
1FF500
4FF100
7FD000
7A7000
ENDCHAR
STARTCHAR ordmasculine
ENCODING 186
SWIDTH 329 0
DWIDTH 9 0
BBX 8 9 1 12
BITMAP
007DEA00
09F91701
3FE11DB2
8FA02F70
BF700F30
CF503E10
BF81B900
8FFFD100
07A81000
ENDCHAR
STARTCHAR guillemotright
ENCODING 187
SWIDTH 586 0
DWIDTH 16 0
BBX 16 9 0 3
BITMAP
0095000077000000
00BFB2007FC30000
0006EE7004DF9100
00001AFD4008FE60
0000004DF2002BF5
000004AFD0039EE2
0027DFA416CFC600
2AFE8209EE930000
6B50003C61000000
ENDCHAR
STARTCHAR onequarter
ENCODING 188
SWIDTH 749 0
DWIDTH 21 0
BBX 20 21 1 0
BITMAP
00000000000009F70000
0148D00000002FD00000
9FFFC0000000AF500000
3AEF90000004FC000000
00FF5000000CF3000000
03FF2000005FA0000000
06FE000000DF20000000
09FB000007F800000000
0DF800001EE100000000
1FF500009F7000000000
4FF10002FD0006E708A7
7FD0000AF50005FD1FF6
7A70003FC00007FB4FF2
000000CF40000BF58FE0
000005FA00002FB0BFA0
00000DF200008D11EF70
00007F900002FFFFFFF4
0001EE1000013338FF30
0008F70000000009FC00
002FD0000000000DF800
00AF50000000001FF500
ENDCHAR
STARTCHAR onehalf
ENCODING 189
SWIDTH 745 0
DWIDTH 21 0
BBX 20 21 1 0
BITMAP
00000000000009F70000
0148D00000002FD00000
9FFFC0000000AF500000
3AEF90000004FC000000
00FF5000000CF3000000
03FF2000005FA0000000
06FE000000DF20000000
09FB000007F800000000
0DF800001EE100000000
1FF500009F7000000000
4FF10002FD00008DFD60
7FD0000AF50008E24FF5
7A70003FC0000DD00FF8
000000CF400008D33FF5
000005FA000000009FB0
00000DF200000006FB10
00007F900000005FA000
0001EE10000005F80000
0008F70000003F700000
002FD0000000BFAAABD0
00AF50000000DFFFFE80
ENDCHAR
STARTCHAR threequarters
ENCODING 190
SWIDTH 836 0
DWIDTH 23 0
BBX 22 21 1 0
BITMAP
0019EEA200000002FD0000
00CD27FC0000000BF50000
03FB03FF1000004FB00000
01EE25FE000000CF300000
00112DE4000006FA000000
0003ED3000001DF2000000
00005FE300007F80000000
1BE30DFB0001EE10000000
7FA10BFD0009F600000000
8F400DFA002FD000000000
4F807FE200AF5001EC149B
06EFFA2004FB0000EF49FC
000100000CF30000FF2DF9
000000005FA00004FB1FF5
00000000DF20000AF34FF2
00000007F800002F608FD0
0000001EE10000BFFFFFFB
0000009F7000003333FF82
000002FD0000000003FF30
00000AF50000000006FF00
00004FC0000000000AFC00
ENDCHAR
STARTCHAR questiondown
ENCODING 191
SWIDTH 439 0
DWIDTH 12 0
BBX 12 21 -1 -7
BITMAP
00000004DE80
0000000EFFF4
0000000EFFF5
00000004DE80
000000000000
000000000000
00000000EA00
00000003F900
00000009F500
0000005FD000
000005FF3000
00007FF50000
000AFF700000
00BFFA001300
09FFE107FFB0
1FFFA002EFF3
5FFF80009FF4
5FFF80009FF1
2FFFD102EF90
07FFFEBEFA00
005BEFDA5000
ENDCHAR
STARTCHAR Agrave
ENCODING 192
SWIDTH 668 0
DWIDTH 19 0
BBX 20 30 0 -3
BITMAP
00000000000003FF9000
00000000000000DFC000
000000000000008FE000
000000000000003FF200
000000000000000DF400
00000000000000000000
000000000000004AEFD3
00000000000009FFFFF2
000000000001CF8FFFE0
00000000001CF55FFFB0
0000000000BF708FFF80
0000000008FC00BFFF40
000000005FF300EFFF10
00000001EF9002FFFD00
00158AACFF3006FFFA00
06EFFFFFFFFD8BFFF700
5FFD41CFF226BFFFF300
AFF505FFA0000FFFF000
8FF70DFF40003FFFC000
04406FFD00007FFF9000
0000CFF80000AFFF6000
0003FFF30000DFFF2000
0009FFD00001FFFE0000
000EFF800004FFFB0000
004FFF400008FFF80000
007FFF10000BFFF50000
009FFD00000EFFF10000
009FFC00000000000000
005FFB00000000000000
0007DD00000000000000
ENDCHAR
STARTCHAR Aacute
ENCODING 193
SWIDTH 668 0
DWIDTH 19 0
BBX 22 31 0 -3
BITMAP
0000000000000000004883
000000000000000000DFD1
000000000000000006FF30
00000000000000000DF800
00000000000000006FC000
0000000000000000683000
0000000000000000000000
000000000000004AEFD300
00000000000009FFFFF200
000000000001CF8FFFE000
00000000001CF55FFFB000
0000000000BF708FFF8000
0000000008FC00BFFF4000
000000005FF300EFFF1000
00000001EF9002FFFD0000
00158AACFF3006FFFA0000
06EFFFFFFFFD8BFFF70000
5FFD41CFF226BFFFF30000
AFF505FFA0000FFFF00000
8FF70DFF40003FFFC00000
04406FFD00007FFF900000
0000CFF80000AFFF600000
0003FFF30000DFFF200000
0009FFD00001FFFE000000
000EFF800004FFFB000000
004FFF400008FFF8000000
007FFF10000BFFF5000000
009FFD00000EFFF1000000
009FFC0000000000000000
005FFB0000000000000000
0007DD0000000000000000
ENDCHAR
STARTCHAR Acircumflex
ENCODING 194
SWIDTH 668 0
DWIDTH 19 0
BBX 22 31 0 -3
BITMAP
0000000000000000001600
000000000000000003DF10
00000000000000004EFF60
0000000000000007FE9EB0
000000000000009E7105F1
0000000000000461000052
0000000000000000000000
000000000000004AEFD300
00000000000009FFFFF200
000000000001CF8FFFE000
00000000001CF55FFFB000
0000000000BF708FFF8000
0000000008FC00BFFF4000
000000005FF300EFFF1000
00000001EF9002FFFD0000
00158AACFF3006FFFA0000
06EFFFFFFFFD8BFFF70000
5FFD41CFF226BFFFF30000
AFF505FFA0000FFFF00000
8FF70DFF40003FFFC00000
04406FFD00007FFF900000
0000CFF80000AFFF600000
0003FFF30000DFFF200000
0009FFD00001FFFE000000
000EFF800004FFFB000000
004FFF400008FFF8000000
007FFF10000BFFF5000000
009FFD00000EFFF1000000
009FFC0000000000000000
005FFB0000000000000000
0007DD0000000000000000
ENDCHAR
STARTCHAR Atilde
ENCODING 195
SWIDTH 668 0
DWIDTH 19 0
BBX 23 29 0 -3
BITMAP
000000000000004675100010
0000000000003DFFFFFB8A50
000000000002A8AEFFFFE500
000000000001000047751000
000000000000000000000000
000000000000004AEFD30000
00000000000009FFFFF20000
000000000001CF8FFFE00000
00000000001CF55FFFB00000
0000000000BF708FFF800000
0000000008FC00BFFF400000
000000005FF300EFFF100000
00000001EF9002FFFD000000
00158AACFF3006FFFA000000
06EFFFFFFFFD8BFFF7000000
5FFD41CFF226BFFFF3000000
AFF505FFA0000FFFF0000000
8FF70DFF40003FFFC0000000
04406FFD00007FFF90000000
0000CFF80000AFFF60000000
0003FFF30000DFFF20000000
0009FFD00001FFFE00000000
000EFF800004FFFB00000000
004FFF400008FFF800000000
007FFF10000BFFF500000000
009FFD00000EFFF100000000
009FFC000000000000000000
005FFB000000000000000000
0007DD000000000000000000
ENDCHAR
STARTCHAR Adieresis
ENCODING 196
SWIDTH 668 0
DWIDTH 19 0
BBX 22 29 0 -3
BITMAP
0000000000000AE900AE90
0000000000003FFF13FFF2
0000000000000BE900BEA0
0000000000000000000000
0000000000000000000000
000000000000004AEFD300
00000000000009FFFFF200
000000000001CF8FFFE000
00000000001CF55FFFB000
0000000000BF708FFF8000
0000000008FC00BFFF4000
000000005FF300EFFF1000
00000001EF9002FFFD0000
00158AACFF3006FFFA0000
06EFFFFFFFFD8BFFF70000
5FFD41CFF226BFFFF30000
AFF505FFA0000FFFF00000
8FF70DFF40003FFFC00000
04406FFD00007FFF900000
0000CFF80000AFFF600000
0003FFF30000DFFF200000
0009FFD00001FFFE000000
000EFF800004FFFB000000
004FFF400008FFF8000000
007FFF10000BFFF5000000
009FFD00000EFFF1000000
009FFC0000000000000000
005FFB0000000000000000
0007DD0000000000000000
ENDCHAR
STARTCHAR Aring
ENCODING 197
SWIDTH 668 0
DWIDTH 19 0
BBX 20 30 0 -3
BITMAP
0000000000000003DE70
000000000000000D62E1
000000000000002F00D2
000000000000001F23E1
0000000000000007ED50
00000000000000000000
000000000000004AEFD3
00000000000009FFFFF2
000000000001CF8FFFE0
00000000001CF55FFFB0
0000000000BF708FFF80
0000000008FC00BFFF40
000000005FF300EFFF10
00000001EF9002FFFD00
00158AACFF3006FFFA00
06EFFFFFFFFD8BFFF700
5FFD41CFF226BFFFF300
AFF505FFA0000FFFF000
8FF70DFF40003FFFC000
04406FFD00007FFF9000
0000CFF80000AFFF6000
0003FFF30000DFFF2000
0009FFD00001FFFE0000
000EFF800004FFFB0000
004FFF400008FFF80000
007FFF10000BFFF50000
009FFD00000EFFF10000
009FFC00000000000000
005FFB00000000000000
0007DD00000000000000
ENDCHAR
STARTCHAR AE
ENCODING 198
SWIDTH 764 0
DWIDTH 21 0
BBX 26 24 0 -3
BITMAP
000000000000004AEE81000013
0000000000001AFFFFFE7215D3
000000000001CE6FFFFFFFFFE0
00000000001DE35FFFFFFFFF70
0000000001CF509FFFC17BC800
0000000009FA00CFFF70000000
000000006FE100FFFF30000000
00000002EF7003FFFE00000000
00169AACFF5106FFF900000000
07EFFFFFFFFFBCFFFFFFFA0000
7FFA31CFF2148FFFFFFFF60000
BFF705FFA0001FFFE000000000
5EE40DFF40004FFFB000000000
00006FFD00007FFF8000000000
0000CFF80000AFFF5000000000
0004FFF30000DFFF2000000000
0009FFD00002FFFE0000000000
000EFF800005FFFB0000000000
004FFF400008FFFFEEEEEB0000
007FFF10000BFFFFFFFFF90000
009FFE00000EFFFFFFFFF60000
009FFC00000000000000000000
005FFB00000000000000000000
0008DC00000000000000000000
ENDCHAR
STARTCHAR Ccedilla
ENCODING 199
SWIDTH 497 0
DWIDTH 14 0
BBX 15 27 0 -6
BITMAP
00000017CEED9200
000005EFFFCCFF40
00005FFFE4008FC0
0003FFFF40005FE0
000DFFFA00009FD0
006FFFF20004FF80
00DFFFA000004400
04FFFF5000000000
09FFFE0000000000
0CFFFB0000000000
1FFFF80000000000
3FFFF60000000000
5FFFF40000000000
6FFFF30000000000
7FFFF40000000000
6FFFF50000000340
4FFFFB0000004E30
1FFFFF82014AF800
0AFFFFFFFFFF9000
02DFFFFFFFC40000
0018CEFC73000000
000000D300000000
000005FEFB000000
00000217FF200000
00000004FF000000
0000CC37F8000000
00017CEC60000000
ENDCHAR
STARTCHAR Egrave
ENCODING 200
SWIDTH 459 0
DWIDTH 13 0
BBX 14 28 0 0
BITMAP
0000000CFF1000
00000007FF4000
00000002FF6000
00000000CF9000
000000007FB000
00000000000000
00000000000000
00000017CEEA30
000003EFFCCFF3
00002EFF6008FA
0000BFFB0006FB
0002FFF6000AF9
0004FFF4004FE2
0004FFF6000210
0000EFFC000000
00005FFFA20000
00018EFFB50000
004EFFF8000000
02EFFF90000000
0BFFFD10000000
4FFFF700000000
8FFFF300000000
BFFFF100000033
CFFFF4000002D2
AFFFFC20028F70
4FFFFFFDEFF800
09FFFFFFFD5000
005BEFEB610000
ENDCHAR
STARTCHAR Eacute
ENCODING 201
SWIDTH 459 0
DWIDTH 13 0
BBX 15 28 0 0
BITMAP
000000000007FF60
00000000001EFB00
00000000007FE200
0000000001EF5000
0000000008FA0000
0000000000000000
0000000000000000
00000017CEEA3000
000003EFFCCFF300
00002EFF6008FA00
0000BFFB0006FB00
0002FFF6000AF900
0004FFF4004FE200
0004FFF600021000
0000EFFC00000000
00005FFFA2000000
00018EFFB5000000
004EFFF800000000
02EFFF9000000000
0BFFFD1000000000
4FFFF70000000000
8FFFF30000000000
BFFFF10000003300
CFFFF4000002D200
AFFFFC20028F7000
4FFFFFFDEFF80000
09FFFFFFFD500000
005BEFEB61000000
ENDCHAR
STARTCHAR Ecircumflex
ENCODING 202
SWIDTH 459 0
DWIDTH 13 0
BBX 14 28 0 0
BITMAP
00000000002D50
0000000004EFA0
000000006FFFF1
00000008FB44F5
000001AB30006A
00000000000000
00000000000000
00000017CEEA30
000003EFFCCFF3
00002EFF6008FA
0000BFFB0006FB
0002FFF6000AF9
0004FFF4004FE2
0004FFF6000210
0000EFFC000000
00005FFFA20000
00018EFFB50000
004EFFF8000000
02EFFF90000000
0BFFFD10000000
4FFFF700000000
8FFFF300000000
BFFFF100000033
CFFFF4000002D2
AFFFFC20028F70
4FFFFFFDEFF800
09FFFFFFFD5000
005BEFEB610000
ENDCHAR
STARTCHAR Edieresis
ENCODING 203
SWIDTH 459 0
DWIDTH 13 0
BBX 16 26 0 0
BITMAP
0000001BE800BE80
0000004FFF04FFF1
0000001BE801BE90
0000000000000000
0000000000000000
00000017CEEA3000
000003EFFCCFF300
00002EFF6008FA00
0000BFFB0006FB00
0002FFF6000AF900
0004FFF4004FE200
0004FFF600021000
0000EFFC00000000
00005FFFA2000000
00018EFFB5000000
004EFFF800000000
02EFFF9000000000
0BFFFD1000000000
4FFFF70000000000
8FFFF30000000000
BFFFF10000003300
CFFFF4000002D200
AFFFFC20028F7000
4FFFFFFDEFF80000
09FFFFFFFD500000
005BEFEB61000000
ENDCHAR
STARTCHAR Igrave
ENCODING 204
SWIDTH 375 0
DWIDTH 11 0
BBX 11 27 0 0
BITMAP
000000CFF100
0000007FF300
0000002FF500
0000000CF800
00000007FA00
000000000000
0000016ADFE0
00006EFFFFC0
002CFB8FFF90
02DF809FFF60
1DFB00DFFF20
7FF301FFFE00
BFE004FFFB00
CFC007FFF800
9FC00BFFF500
1AC00EFFF100
00002FFFD000
00005FFFA000
00008FFF7000
0000CFFF4000
0000FFFF1000
0003FFFC0000
0006FFF90000
0009FFF60000
000DFFF30000
001FFFE00000
004FFFB00000
ENDCHAR
STARTCHAR Iacute
ENCODING 205
SWIDTH 375 0
DWIDTH 11 0
BBX 14 28 0 0
BITMAP
00000000003884
0000000000BFE1
0000000004FF50
000000000CFA00
000000004FE100
00000000584000
00000000000000
0000016ADFE000
00006EFFFFC000
002CFB8FFF9000
02DF809FFF6000
1DFB00DFFF2000
7FF301FFFE0000
BFE004FFFB0000
CFC007FFF80000
9FC00BFFF50000
1AC00EFFF10000
00002FFFD00000
00005FFFA00000
00008FFF700000
0000CFFF400000
0000FFFF100000
0003FFFC000000
0006FFF9000000
0009FFF6000000
000DFFF3000000
001FFFE0000000
004FFFB0000000
ENDCHAR
STARTCHAR Icircumflex
ENCODING 206
SWIDTH 375 0
DWIDTH 11 0
BBX 13 28 0 0
BITMAP
00000000004300
0000000007F900
00000000AFFE00
0000001CFCAF40
000003DC500A90
00000740000170
00000000000000
0000016ADFE000
00006EFFFFC000
002CFB8FFF9000
02DF809FFF6000
1DFB00DFFF2000
7FF301FFFE0000
BFE004FFFB0000
CFC007FFF80000
9FC00BFFF50000
1AC00EFFF10000
00002FFFD00000
00005FFFA00000
00008FFF700000
0000CFFF400000
0000FFFF100000
0003FFFC000000
0006FFF9000000
0009FFF6000000
000DFFF3000000
001FFFE0000000
004FFFB0000000
ENDCHAR
STARTCHAR Idieresis
ENCODING 207
SWIDTH 375 0
DWIDTH 11 0
BBX 14 26 0 0
BITMAP
000004ED304DD3
00000BFF90AFF9
000005ED304ED4
00000000000000
00000000000000
0000016ADFE000
00006EFFFFC000
002CFB8FFF9000
02DF809FFF6000
1DFB00DFFF2000
7FF301FFFE0000
BFE004FFFB0000
CFC007FFF80000
9FC00BFFF50000
1AC00EFFF10000
00002FFFD00000
00005FFFA00000
00008FFF700000
0000CFFF400000
0000FFFF100000
0003FFFC000000
0006FFF9000000
0009FFF6000000
000DFFF3000000
001FFFE0000000
004FFFB0000000
ENDCHAR
STARTCHAR Eth
ENCODING 208
SWIDTH 663 0
DWIDTH 19 0
BBX 19 21 0 0
BITMAP
0000016ADFFEB8200000
00007EFFDBBDFFF80000
002CFE6100003EFF9000
03EFB159BD7005FFF300
1DFD10CFFF4001FFF900
7FF500FFFF0000DFFD00
BFF003FFFC0000CFFF00
CFD007FFF80000CFFF10
8FC00AFFF50000DFFF00
18B0AEFFFBA300EFFE00
0003FFFFFFE002FFFC00
00006FFF900004FFFA00
00009FFF600007FFF700
0000CFFF30000CFFF200
0001FFFF00002FFFC000
0003FFFC00008FFF6000
0007FFF90002FFFD0000
000AFFF6000BFFF50000
000DFFFA34BFFF900000
001FFFFFFFFFFA000000
004FFFB3AEFC60000000
ENDCHAR
STARTCHAR Ntilde
ENCODING 209
SWIDTH 686 0
DWIDTH 19 0
BBX 20 26 0 0
BITMAP
00000000004AEFD94125
0000000006FFFFFFFFE3
0000000026238CFFEA20
00000000000000120000
00000000000000000000
000016BDFEA000000BFF
0006EFFFFFF200000EFC
009FF86FFFF500002FF8
08FF608FFFF900005FF5
2FFA00CFFFFC00008FF2
8FF300FFFFFF1000BFE0
BFF103FFFFFF4000EFA0
CFE007FFDFFF7002FF70
9FF00AFF6FFFB005FF40
2DF40DFD1FFFE008FF10
00332FFA0CFFF20BFC00
00005FF609FFF60EF900
00008FF305FFF93FF600
0000CFE001FFFC6FF300
0000FFB000DFFFAFE000
0003FF80009FFFFFB000
0006FF40006FFFFF8000
000AFF10002FFFFF5000
000DFC00000EFFFF1000
001FF900000AFFFD0000
005FF5000007FFFA0000
ENDCHAR
STARTCHAR Ograve
ENCODING 210
SWIDTH 665 0
DWIDTH 19 0
BBX 19 28 0 0
BITMAP
000000006FF700000000
000000001FFA00000000
000000000BFC00000000
0000000006FE00000000
0000000001FF20000000
00000000000000000000
00000000000000000000
000000159CEFEC920000
000018EFFDBBDFFF6000
0005EFD6113107FFF300
007FF802AFF700CFFB00
05FF802EFF80008FFF10
1EFC00CFFD10006FFF40
5FF507FFF700006FFF50
8FF21FFFE100007FFF50
6FF07FFF9000008FFF50
1BF1DFFF400000AFFF30
0003FFFE000000DFFF00
0006FFFB000002FFFC00
000AFFF8000006FFF700
000CFFF500000CFFF300
000DFFF400003FFFB000
000EFFF30000BFFF4000
000EFFF40004FFFA0000
000BFFF7002DFFD10000
0006FFFE56DFFD200000
0000BFFFFFFFB1000000
000007CFEDA400000000
ENDCHAR
STARTCHAR Oacute
ENCODING 211
SWIDTH 665 0
DWIDTH 19 0
BBX 19 28 0 0
BITMAP
00000000000004883000
0000000000000DFD1000
0000000000005FF40000
000000000000DF900000
000000000006FD100000
00000000000683000000
00000000000000000000
000000159CEFEC920000
000018EFFDBBDFFF6000
0005EFD6113107FFF300
007FF802AFF700CFFB00
05FF802EFF80008FFF10
1EFC00CFFD10006FFF40
5FF507FFF700006FFF50
8FF21FFFE100007FFF50
6FF07FFF9000008FFF50
1BF1DFFF400000AFFF30
0003FFFE000000DFFF00
0006FFFB000002FFFC00
000AFFF8000006FFF700
000CFFF500000CFFF300
000DFFF400003FFFB000
000EFFF30000BFFF4000
000EFFF40004FFFA0000
000BFFF7002DFFD10000
0006FFFE56DFFD200000
0000BFFFFFFFB1000000
000007CFEDA400000000
ENDCHAR
STARTCHAR Ocircumflex
ENCODING 212
SWIDTH 665 0
DWIDTH 19 0
BBX 19 28 0 0
BITMAP
00000000000006200000
0000000000009F700000
00000000001BFFC00000
0000000002DFBBF20000
000000004EB301C70000
00000001730000250000
00000000000000000000
000000159CEFEC920000
000018EFFDBBDFFF6000
0005EFD6113107FFF300
007FF802AFF700CFFB00
05FF802EFF80008FFF10
1EFC00CFFD10006FFF40
5FF507FFF700006FFF50
8FF21FFFE100007FFF50
6FF07FFF9000008FFF50
1BF1DFFF400000AFFF30
0003FFFE000000DFFF00
0006FFFB000002FFFC00
000AFFF8000006FFF700
000CFFF500000CFFF300
000DFFF400003FFFB000
000EFFF30000BFFF4000
000EFFF40004FFFA0000
000BFFF7002DFFD10000
0006FFFE56DFFD200000
0000BFFFFFFFB1000000
000007CFEDA400000000
ENDCHAR
STARTCHAR Otilde
ENCODING 213
SWIDTH 665 0
DWIDTH 19 0
BBX 19 26 0 0
BITMAP
00000000029DFD941150
000000004EFFFFFFFF50
00000001B89DFFFFE500
00000001000036751000
00000000000000000000
000000159CEFEC920000
000018EFFDBBDFFF6000
0005EFD6113107FFF300
007FF802AFF700CFFB00
05FF802EFF80008FFF10
1EFC00CFFD10006FFF40
5FF507FFF700006FFF50
8FF21FFFE100007FFF50
6FF07FFF9000008FFF50
1BF1DFFF400000AFFF30
0003FFFE000000DFFF00
0006FFFB000002FFFC00
000AFFF8000006FFF700
000CFFF500000CFFF300
000DFFF400003FFFB000
000EFFF30000BFFF4000
000EFFF40004FFFA0000
000BFFF7002DFFD10000
0006FFFE56DFFD200000
0000BFFFFFFFB1000000
000007CFEDA400000000
ENDCHAR
STARTCHAR Odieresis
ENCODING 214
SWIDTH 665 0
DWIDTH 19 0
BBX 19 26 0 0
BITMAP
000000006EC206EC2000
00000000DFF60DFF7000
000000007EC206EC2000
00000000000000000000
00000000000000000000
000000159CEFEC920000
000018EFFDBBDFFF6000
0005EFD6113107FFF300
007FF802AFF700CFFB00
05FF802EFF80008FFF10
1EFC00CFFD10006FFF40
5FF507FFF700006FFF50
8FF21FFFE100007FFF50
6FF07FFF9000008FFF50
1BF1DFFF400000AFFF30
0003FFFE000000DFFF00
0006FFFB000002FFFC00
000AFFF8000006FFF700
000CFFF500000CFFF300
000DFFF400003FFFB000
000EFFF30000BFFF4000
000EFFF40004FFFA0000
000BFFF7002DFFD10000
0006FFFE56DFFD200000
0000BFFFFFFFB1000000
000007CFEDA400000000
ENDCHAR
STARTCHAR multiply
ENCODING 215
SWIDTH 414 0
DWIDTH 12 0
BBX 9 9 1 5
BITMAP
0A40001B20
8FF401DFD0
2DFF6DFE40
02DFFFE400
003FFF8000
01DFFFF400
1DFE6DFF50
8FE402DFC0
0940001A10
ENDCHAR
STARTCHAR Oslash
ENCODING 216
SWIDTH 658 0
DWIDTH 18 0
BBX 18 23 0 -2
BITMAP
000000000000CA0000
000000000000E80000
00000037BDEFFD6000
00005CE94206FEFC10
001BF912AEB9D6FFB0
02DF804EFE1DA1FFF3
0CFB01EFF61F60EFF8
5FF40AFFE05F30EFFA
8FF04FFF808F00FFFA
6FE0AFFF20BC01FFF9
08B2FFFD00E804FFF8
0006FFF902F507FFF5
000AFFF505F20BFFF1
000DFFF209E01FFFC0
000FFFF00CA07FFF60
001FFFE00F70DFFE10
001FFFE03F47FFF700
000EFFF16F4FFFB000
0009FFF89EEFFD1000
0002DFFFFFFFC20000
000019DFFFC5000000
00000004F300000000
00000007E000000000
ENDCHAR
STARTCHAR Ugrave
ENCODING 217
SWIDTH 716 0
DWIDTH 20 0
BBX 23 28 -1 0
BITMAP
0000000000007FF500000000
0000000000002FF800000000
0000000000000DFA00000000
00000000000008FD00000000
00000000000003FF00000000
000000000000000000000000
000000000000000000000000
00000016ADEF900000DFFF10
000018FEEFFF700002FFFD00
0004EF71CFFF200005FFFA00
006FE401FFFD000008FFF600
03FF6004FFF900000BFFF300
0BFE0008FFF500000EFFF000
1FFA000CFFF100003FFFC000
1FF8001FFFC000006FFF8000
0DF7005FFF800000AFFF5000
03A8009FFF400000DFFF2000
000000CFFE000001FFFE0000
000001FFFB000005FFFA0000
000004FFF7000009FFF60000
000007FFF400000DFFF20000
000009FFF200003FFFC00000
00000BFFF100008FFF700000
00000CFFF10001EFFE100000
00000BFFF6001AFFF7000000
000007FFFFCCEFFFB0000000
000001DFFFFFFFFA10000000
00000018CEFED94000000000
ENDCHAR
STARTCHAR Uacute
ENCODING 218
SWIDTH 716 0
DWIDTH 20 0
BBX 23 28 -1 0
BITMAP
000000000000000178600000
0000000000000007FF400000
000000000000001EF9000000
000000000000007FD1000000
00000000000001EF40000000
000000000000038600000000
000000000000000000000000
00000016ADEF900000DFFF10
000018FEEFFF700002FFFD00
0004EF71CFFF200005FFFA00
006FE401FFFD000008FFF600
03FF6004FFF900000BFFF300
0BFE0008FFF500000EFFF000
1FFA000CFFF100003FFFC000
1FF8001FFFC000006FFF8000
0DF7005FFF800000AFFF5000
03A8009FFF400000DFFF2000
000000CFFE000001FFFE0000
000001FFFB000005FFFA0000
000004FFF7000009FFF60000
000007FFF400000DFFF20000
000009FFF200003FFFC00000
00000BFFF100008FFF700000
00000CFFF10001EFFE100000
00000BFFF6001AFFF7000000
000007FFFFCCEFFFB0000000
000001DFFFFFFFFA10000000
00000018CEFED94000000000
ENDCHAR
STARTCHAR Ucircumflex
ENCODING 219
SWIDTH 716 0
DWIDTH 20 0
BBX 23 28 -1 0
BITMAP
000000000000000035000000
0000000000000004ED000000
000000000000006FFF300000
00000000000009FE9F800000
000000000001BD6007D00000
000000000005500000610000
000000000000000000000000
00000016ADEF900000DFFF10
000018FEEFFF700002FFFD00
0004EF71CFFF200005FFFA00
006FE401FFFD000008FFF600
03FF6004FFF900000BFFF300
0BFE0008FFF500000EFFF000
1FFA000CFFF100003FFFC000
1FF8001FFFC000006FFF8000
0DF7005FFF800000AFFF5000
03A8009FFF400000DFFF2000
000000CFFE000001FFFE0000
000001FFFB000005FFFA0000
000004FFF7000009FFF60000
000007FFF400000DFFF20000
000009FFF200003FFFC00000
00000BFFF100008FFF700000
00000CFFF10001EFFE100000
00000BFFF6001AFFF7000000
000007FFFFCCEFFFB0000000
000001DFFFFFFFFA10000000
00000018CEFED94000000000
ENDCHAR
STARTCHAR Udieresis
ENCODING 220
SWIDTH 716 0
DWIDTH 20 0
BBX 23 26 -1 0
BITMAP
000000000001CE701BE70000
000000000006FFE05FFF0000
000000000001CE701CE80000
000000000000000000000000
000000000000000000000000
00000016ADEF900000DFFF10
000018FEEFFF700002FFFD00
0004EF71CFFF200005FFFA00
006FE401FFFD000008FFF600
03FF6004FFF900000BFFF300
0BFE0008FFF500000EFFF000
1FFA000CFFF100003FFFC000
1FF8001FFFC000006FFF8000
0DF7005FFF800000AFFF5000
03A8009FFF400000DFFF2000
000000CFFE000001FFFE0000
000001FFFB000005FFFA0000
000004FFF7000009FFF60000
000007FFF400000DFFF20000
000009FFF200003FFFC00000
00000BFFF100008FFF700000
00000CFFF10001EFFE100000
00000BFFF6001AFFF7000000
000007FFFFCCEFFFB0000000
000001DFFFFFFFFA10000000
00000018CEFED94000000000
ENDCHAR
STARTCHAR Yacute
ENCODING 221
SWIDTH 620 0
DWIDTH 17 0
BBX 20 28 0 0
BITMAP
00000000000000006871
0000000000000003FF90
000000000000000AFD10
000000000000003FF400
00000000000000BF8000
00000000000001770000
00000000000000000000
0000016ADFF3000008F5
00006EFFFFF700000DD0
002CFA2EFFFB00005F70
02DF800AFFFE0000BE10
1DFB0006FFFF3002F800
7FF30002FFFF6008F200
BFE00000DFFFA01EA000
CFC000009FFFE06F3000
9FC000006FFFF2CC0000
1AC000002FFFF9F50000
000000000DFFFFD00000
0000000009FFFF700000
0000000007FFFF100000
0000000009FFFD000000
000000000CFFFA000000
000000001FFFF6000000
000000004FFFF3000000
000000007FFFF0000000
00000000AFFFC0000000
00000000EFFF90000000
00000002FFFF60000000
ENDCHAR
STARTCHAR Thorn
ENCODING 222
SWIDTH 583 0
DWIDTH 16 0
BBX 17 20 0 0
BITMAP
0000001ACEF0000000
0000004FFFC0000000
0000007FFF90000000
000004DFFFFEC71000
0004CBFFFF24CFD300
008F84FFFD001EFD00
08FB07FFFA000AFF50
3FF40AFFF60008FF80
AFE00EFFF30009FF80
CFD02FFFE0000DFF60
AFC05FFFB0003FFE10
2CE08FFF7000CFF700
0000CFFF4009FF9000
0000EFFF14BFF70000
0003FFFFFEC8200000
0006FFF90000000000
0009FFF60000000000
000DFFF30000000000
001FFFE00000000000
004FFFB00000000000
ENDCHAR
STARTCHAR germandbls
ENCODING 223
SWIDTH 480 0
DWIDTH 13 0
BBX 16 26 -3 -7
BITMAP
000000004BEEC600
00000008FFECFF60
0000006FFF30CFA0
000001EFFB00BF90
000007FFF600DF60
00000CFFF202FE10
00002FFFE009F800
00005FFFA01ED100
00009FFF707F4000
0000CFFF30DFC200
0001FFFF003FFC00
0004FFFC0009FF70
0007FFF80004FFD0
000AFFF50002FFF2
000EFFF20003FFF3
002FFFD00006FFF1
005FFFA0101DFFA0
009FFF76EBEFFC10
00CFFF33CFEC6000
00FFFF0000000000
03FFFC0000000000
07FFF80000000000
0AFFF50000000000
0DFFF20000000000
2FFFC00000000000
3851000000000000
ENDCHAR
STARTCHAR agrave
ENCODING 224
SWIDTH 526 0
DWIDTH 15 0
BBX 17 21 -1 0
BITMAP
0000000CFF10000000
00000007FF30000000
00000002FF60000000
00000000CF80000000
000000007FB0000000
000000000000000000
000000000000000000
000017CFE8AFFF5000
0002DFFFBEEFFF2000
001CFFE304FFFE0000
009FFF6005FFFA0000
02FFFD0008FFF70000
09FFF7000BFFF40000
0DFFF3000EFFF10000
2FFFE0003FFFC00000
4FFFD0006FFF900010
5FFFC000AFFF6007A0
4FFFE003FFFF501E30
1FFFFB9EDFFFD8DA00
09FFFFF93FFFFFC100
008DFC6006DFC60000
ENDCHAR
STARTCHAR aacute
ENCODING 225
SWIDTH 526 0
DWIDTH 15 0
BBX 17 21 -1 0
BITMAP
0000000000CFE10000
0000000005FF600000
000000000CFC000000
000000004FF3000000
00000000BF80000000
000000006610000000
000000000000000000
000017CFE8AFFF5000
0002DFFFBEEFFF2000
001CFFE304FFFE0000
009FFF6005FFFA0000
02FFFD0008FFF70000
09FFF7000BFFF40000
0DFFF3000EFFF10000
2FFFE0003FFFC00000
4FFFD0006FFF900010
5FFFC000AFFF6007A0
4FFFE003FFFF501E30
1FFFFB9EDFFFD8DA00
09FFFFF93FFFFFC100
008DFC6006DFC60000
ENDCHAR
STARTCHAR acircumflex
ENCODING 226
SWIDTH 526 0
DWIDTH 15 0
BBX 17 21 -1 0
BITMAP
00000000004E100000
0000000005FF500000
000000007FFFA00000
00000008FD6BE00000
0000009E7001E40000
000002610000330000
000000000000000000
000017CFE8AFFF5000
0002DFFFBEEFFF2000
001CFFE304FFFE0000
009FFF6005FFFA0000
02FFFD0008FFF70000
09FFF7000BFFF40000
0DFFF3000EFFF10000
2FFFE0003FFFC00000
4FFFD0006FFF900010
5FFFC000AFFF6007A0
4FFFE003FFFF501E30
1FFFFB9EDFFFD8DA00
09FFFFF93FFFFFC100
008DFC6006DFC60000
ENDCHAR
STARTCHAR atilde
ENCODING 227
SWIDTH 526 0
DWIDTH 15 0
BBX 17 19 -1 0
BITMAP
0000006CEEC7302400
00000AFFFFFFFFC100
000033127BEEC60000
000000000000000000
000000000000000000
000017CFE8AFFF5000
0002DFFFBEEFFF2000
001CFFE304FFFE0000
009FFF6005FFFA0000
02FFFD0008FFF70000
09FFF7000BFFF40000
0DFFF3000EFFF10000
2FFFE0003FFFC00000
4FFFD0006FFF900010
5FFFC000AFFF6007A0
4FFFE003FFFF501E30
1FFFFB9EDFFFD8DA00
09FFFFF93FFFFFC100
008DFC6006DFC60000
ENDCHAR
STARTCHAR adieresis
ENCODING 228
SWIDTH 526 0
DWIDTH 15 0
BBX 17 19 -1 0
BITMAP
0000007EC106EC2000
000000EFF60DFF7000
0000007EC106EC2000
000000000000000000
000000000000000000
000017CFE8AFFF5000
0002DFFFBEEFFF2000
001CFFE304FFFE0000
009FFF6005FFFA0000
02FFFD0008FFF70000
09FFF7000BFFF40000
0DFFF3000EFFF10000
2FFFE0003FFFC00000
4FFFD0006FFF900010
5FFFC000AFFF6007A0
4FFFE003FFFF501E30
1FFFFB9EDFFFD8DA00
09FFFFF93FFFFFC100
008DFC6006DFC60000
ENDCHAR
STARTCHAR aring
ENCODING 229
SWIDTH 526 0
DWIDTH 15 0
BBX 17 19 -1 0
BITMAP
000000008EE5000000
00000004D24D000000
00000006C15C000000
00000001BEC3000000
000000000000000000
000017CFE8AFFF5000
0002DFFFBEEFFF2000
001CFFE304FFFE0000
009FFF6005FFFA0000
02FFFD0008FFF70000
09FFF7000BFFF40000
0DFFF3000EFFF10000
2FFFE0003FFFC00000
4FFFD0006FFF900010
5FFFC000AFFF6007A0
4FFFE003FFFF501E30
1FFFFB9EDFFFD8DA00
09FFFFF93FFFFFC100
008DFC6006DFC60000
ENDCHAR
STARTCHAR ae
ENCODING 230
SWIDTH 650 0
DWIDTH 18 0
BBX 20 14 -1 0
BITMAP
000017CFFD8129DFE900
0002DEBBEFFDEFFCEF70
000891004FFFFF807FA0
000000000FFFFC008F90
000000001FFFF500DF60
000000005FFFE009FD00
0016BEFFFFFFA3AFE300
02DFFFDBEFFFFFFC2000
0CFFF600EFFFB8400000
2FFFC004FFFF4000002A
3FFFD11CFFFF500001C3
2FFFFEEFBFFF90004D50
0CFFFFF72EFFFCBDD300
019DEC6002AEFEB60000
ENDCHAR
STARTCHAR ccedilla
ENCODING 231
SWIDTH 384 0
DWIDTH 11 0
BBX 13 20 -1 -6
BITMAP
000006CEEC4000
0002CFFECFE100
000CFFE20EF400
009FFF700EF200
02FFFE001A7000
08FFF900000000
0DFFF400000000
2FFFF100000000
4FFFD000000000
5FFFC000000750
4FFFD000008B00
1FFFF6115CC100
09FFFFFFFA1000
006CFFFB500000
000006D0000000
00000BA6500000
00001FFFF70000
0000111EF70000
0003941EE20000
0004BEDA200000
ENDCHAR
STARTCHAR egrave
ENCODING 232
SWIDTH 384 0
DWIDTH 11 0
BBX 13 21 -1 0
BITMAP
000006FF700000
000001FF900000
000000BFB00000
0000006FE00000
0000001FF10000
00000000000000
00000000000000
000007CEEC4000
0002CFFECFE100
001CFFE20EF300
009FFF500FF300
02FFFD005FE000
09FFF702EF7000
0DFFF45EFA0000
2FFFFFFF800000
4FFFE971000000
5FFFC000000750
4FFFD000009C00
1FFFF8337DC100
09FFFFFFF91000
006CFFD9300000
ENDCHAR
STARTCHAR eacute
ENCODING 233
SWIDTH 384 0
DWIDTH 11 0
BBX 13 21 -1 0
BITMAP
0000000007FF60
000000000DFC00
000000005FF300
00000000CF9000
00000004FE1000
00000005840000
00000000000000
000007CEEC4000
0002CFFECFE100
001CFFE20EF300
009FFF500FF300
02FFFD005FE000
09FFF702EF7000
0DFFF45EFA0000
2FFFFFFF800000
4FFFE971000000
5FFFC000000750
4FFFD000009C00
1FFFF8337DC100
09FFFFFFF91000
006CFFD9300000
ENDCHAR
STARTCHAR ecircumflex
ENCODING 234
SWIDTH 384 0
DWIDTH 11 0
BBX 13 21 -1 0
BITMAP
000000000A9000
00000001BFE000
0000001BFFF300
000001CFB6F800
00002DC4007D00
00006500000700
00000000000000
000007CEEC4000
0002CFFECFE100
001CFFE20EF300
009FFF500FF300
02FFFD005FE000
09FFF702EF7000
0DFFF45EFA0000
2FFFFFFF800000
4FFFE971000000
5FFFC000000750
4FFFD000009C00
1FFFF8337DC100
09FFFFFFF91000
006CFFD9300000
ENDCHAR
STARTCHAR edieresis
ENCODING 235
SWIDTH 384 0
DWIDTH 11 0
BBX 13 19 -1 0
BITMAP
00003DD403DE40
00009FFA09FFB0
00004DE403DE50
00000000000000
00000000000000
000007CEEC4000
0002CFFECFE100
001CFFE20EF300
009FFF500FF300
02FFFD005FE000
09FFF702EF7000
0DFFF45EFA0000
2FFFFFFF800000
4FFFE971000000
5FFFC000000750
4FFFD000009C00
1FFFF8337DC100
09FFFFFFF91000
006CFFD9300000
ENDCHAR
STARTCHAR igrave
ENCODING 236
SWIDTH 267 0
DWIDTH 7 0
BBX 10 21 -1 0
BITMAP
004FF90000
000EFB0000
0009FE0000
0004FF1000
0000EF3000
0000000000
0000000000
003FFFC000
006FFF9000
009FFF6000
00DFFF3000
01FFFE0000
04FFFB0000
07FFF80000
0BFFF50000
0EFFF20011
2FFFE000C6
3FFFD007E1
2FFFFBCF50
0CFFFFF700
02BEEA3000
ENDCHAR
STARTCHAR iacute
ENCODING 237
SWIDTH 267 0
DWIDTH 7 0
BBX 10 21 -1 0
BITMAP
0000009FF4
000001FFA0
000008FE10
00001EF500
00008FB000
0000451000
0000000000
003FFFC000
006FFF9000
009FFF6000
00DFFF3000
01FFFE0000
04FFFB0000
07FFF80000
0BFFF50000
0EFFF20011
2FFFE000C6
3FFFD007E1
2FFFFBCF50
0CFFFFF700
02BEEA3000
ENDCHAR
STARTCHAR icircumflex
ENCODING 238
SWIDTH 267 0
DWIDTH 7 0
BBX 10 21 -1 0
BITMAP
0000009B00
00000AFF10
0001BFFF50
002CFA4EA0
03DA3004E0
0430000041
0000000000
003FFFC000
006FFF9000
009FFF6000
00DFFF3000
01FFFE0000
04FFFB0000
07FFF80000
0BFFF50000
0EFFF20011
2FFFE000C6
3FFFD007E1
2FFFFBCF50
0CFFFFF700
02BEEA3000
ENDCHAR
STARTCHAR idieresis
ENCODING 239
SWIDTH 267 0
DWIDTH 7 0
BBX 10 19 -1 0
BITMAP
02CE604ED3
07FFD0BFF9
02DE605ED3
0000000000
0000000000
003FFFC000
006FFF9000
009FFF6000
00DFFF3000
01FFFE0000
04FFFB0000
07FFF80000
0BFFF50000
0EFFF20011
2FFFE000C6
3FFFD007E1
2FFFFBCF50
0CFFFFF700
02BEEA3000
ENDCHAR
STARTCHAR eth
ENCODING 240
SWIDTH 526 0
DWIDTH 15 0
BBX 17 21 -1 0
BITMAP
000000000384000000
000000003FFE303600
0000000008FFEEFF10
000000048CFFFC6200
0000005FEBDFFB0000
00000014009FFF0000
00000000009FFF1000
000017CFE8AFFF2000
0002DFFFBEEFFF1000
001CFFE204FFFE0000
009FFF5005FFFB0000
02FFFC0008FFF70000
09FFF7000CFFF40000
0DFFF2000FFFF10000
2FFFE0003FFFC00000
4FFFC0007FFF900130
5FFFC000CFFF6009A0
4FFFF207FFFF604F30
1FFFFEEFBFFFFDF900
09FFFFF82FFFFFB100
008DFC5005DFD70000
ENDCHAR
STARTCHAR ntilde
ENCODING 241
SWIDTH 505 0
DWIDTH 14 0
BBX 17 19 -1 0
BITMAP
000000467642012000
00003DFFFFFFFF4000
0002A8AEFFFFD40000
000100003774000000
000000000000000000
003FFFC5CEE9100000
006FFFEFFFFF900000
009FFFE55FFFE00000
00DFFF600EFFF00000
01FFFE101FFFD00000
04FFFB003FFFA00000
07FFF8006FFF700000
0AFFF500AFFF300000
0DFFF200DFFE000100
2FFFE001FFFB002F20
5FFFA002FFFB00AA00
8FFF7001FFFF9BF300
BFFF4000BFFFFF6000
EFFF10001AEEB40000
ENDCHAR
STARTCHAR ograve
ENCODING 242
SWIDTH 433 0
DWIDTH 12 0
BBX 17 21 -1 0
BITMAP
000000CFF100000000
0000007FF300000000
0000002FF500000000
0000000DF800000000
00000008FA00000000
000000000000000000
000000000000000000
000017CEFB30000000
0002DFFEBFE1000000
001DFFD10BF7000000
00BFFF401CFA003B60
04FFFC006FFD8CE600
0BFFF6004FFE951000
1FFFF1000CF7000000
4FFFD0000FF5000000
7FFFB0004FF1000000
8FFF9000AFB0000000
7FFFA003FF40000000
4FFFE45EF900000000
0BFFFFFF9000000000
007DFEB40000000000
ENDCHAR
STARTCHAR oacute
ENCODING 243
SWIDTH 439 0
DWIDTH 12 0
BBX 17 21 -1 0
BITMAP
0000000006FF700000
000000000DFD000000
000000005FF4000000
00000000CF90000000
00000004FE10000000
000000048400000000
000000000000000000
000006BEFC40000000
0001CFFEBFF3000000
000CFFE309F9000000
009FFF700AFC002980
02FFFE103FFE8BE800
08FFF9002EFEA61000
0DFFF4000AFA000000
2FFFF1000DF7000000
4FFFD0002FF4000000
5FFFC0008FD0000000
5FFFD002EF60000000
2FFFF54CFB00000000
09FFFFFFB100000000
006CEEC60000000000
ENDCHAR
STARTCHAR ocircumflex
ENCODING 244
SWIDTH 433 0
DWIDTH 12 0
BBX 17 21 -1 0
BITMAP
000000002D50000000
00000002DFA0000000
0000003EFFE0000000
000004EF98F4000000
00004EA200B8000000
000173000026000000
000000000000000000
000017CEFB30000000
0002DFFEBFE1000000
001DFFD10BF7000000
00BFFF401CFA003B60
04FFFC006FFD8CE600
0BFFF6004FFE951000
1FFFF1000CF7000000
4FFFD0000FF5000000
7FFFB0004FF1000000
8FFF9000AFB0000000
7FFFA003FF40000000
4FFFE45EF900000000
0BFFFFFF9000000000
007DFEB40000000000
ENDCHAR
STARTCHAR otilde
ENCODING 245
SWIDTH 433 0
DWIDTH 12 0
BBX 17 19 -1 0
BITMAP
00018DEEB621420000
002DFFFFFFFF800000
0052148CEEB4000000
000000000000000000
000000000000000000
000017CEFB30000000
0002DFFEBFE1000000
001DFFD10BF7000000
00BFFF401CFA003B60
04FFFC006FFD8CE600
0BFFF6004FFE951000
1FFFF1000CF7000000
4FFFD0000FF5000000
7FFFB0004FF1000000
8FFF9000AFB0000000
7FFFA003FF40000000
4FFFE45EF900000000
0BFFFFFF9000000000
007DFEB40000000000
ENDCHAR
STARTCHAR odieresis
ENCODING 246
SWIDTH 433 0
DWIDTH 12 0
BBX 17 19 -1 0
BITMAP
00008EB107EB100000
0000FFF50EFF500000
00008EB108EC100000
000000000000000000
000000000000000000
000017CEFB30000000
0002DFFEBFE1000000
001DFFD10BF7000000
00BFFF401CFA003B60
04FFFC006FFD8CE600
0BFFF6004FFE951000
1FFFF1000CF7000000
4FFFD0000FF5000000
7FFFB0004FF1000000
8FFF9000AFB0000000
7FFFA003FF40000000
4FFFE45EF900000000
0BFFFFFF9000000000
007DFEB40000000000
ENDCHAR
STARTCHAR divide
ENCODING 247
SWIDTH 415 0
DWIDTH 12 0
BBX 11 14 1 2
BITMAP
00004DE80000
0000EFFF4000
0000EFFF4000
00004DE80000
000000000000
000000000000
8FFFFFFFFF40
8AAAAAAAAA00
000000000000
000000000000
001BEB100000
009FFF900000
009FFF900000
002BEB100000
ENDCHAR
STARTCHAR oslash
ENCODING 248
SWIDTH 428 0
DWIDTH 12 0
BBX 16 16 -2 -2
BITMAP
0000005BEFC40BC1
00001BFFFBFE8D20
0001CFFE308FE300
000AFFF6006FD000
004FFFD003EFD000
00BFFF702EEFC000
01FFFF22DABFB000
04FFFE2DB1EF8000
05FFFEDC16FF3000
05FFFFC11DFC0000
03FFFF31BFF40000
00DFFFEFFF900000
009FFFFFF9000000
05FACFEB40000000
3E90000000000000
6700000000000000
ENDCHAR
STARTCHAR ugrave
ENCODING 249
SWIDTH 505 0
DWIDTH 14 0
BBX 17 21 -1 0
BITMAP
000000AFF300000000
0000005FF600000000
0000001EF800000000
0000000AFA00000000
00000005FD00000000
000000000000000000
000000000000000000
003FFFC004FFFB0000
006FFF9008FFF80000
009FFF600BFFF50000
00DFFF300EFFF20000
01FFFE002FFFD00000
04FFFB005FFFA00000
07FFF8009FFF700000
0BFFF500CFFF400000
0EFFF200FFFF100100
2FFFE005FFFD002F10
3FFFD01DFFFC00AA00
2FFFFBDCFFFFBDE200
0CFFFFE2BFFFFE4000
02BEE9102BEE920000
ENDCHAR
STARTCHAR uacute
ENCODING 250
SWIDTH 505 0
DWIDTH 14 0
BBX 17 21 -1 0
BITMAP
0000000001EFD00000
0000000007FF400000
000000001EF9000000
000000007FD1000000
00000000DF50000000
000000015400000000
000000000000000000
003FFFC004FFFB0000
006FFF9008FFF80000
009FFF600BFFF50000
00DFFF300EFFF20000
01FFFE002FFFD00000
04FFFB005FFFA00000
07FFF8009FFF700000
0BFFF500CFFF400000
0EFFF200FFFF100100
2FFFE005FFFD002F10
3FFFD01DFFFC00AA00
2FFFFBDCFFFFBDE200
0CFFFFE2BFFFFE4000
02BEE9102BEE920000
ENDCHAR
STARTCHAR ucircumflex
ENCODING 251
SWIDTH 505 0
DWIDTH 14 0
BBX 17 21 -1 0
BITMAP
0000000003E3000000
000000004EF8000000
00000005FFFD000000
0000007FD68F200000
000008E6000B700000
000014100001300000
000000000000000000
003FFFC004FFFB0000
006FFF9008FFF80000
009FFF600BFFF50000
00DFFF300EFFF20000
01FFFE002FFFD00000
04FFFB005FFFA00000
07FFF8009FFF700000
0BFFF500CFFF400000
0EFFF200FFFF100100
2FFFE005FFFD002F10
3FFFD01DFFFC00AA00
2FFFFBDCFFFFBDE200
0CFFFFE2BFFFFE4000
02BEE9102BEE920000
ENDCHAR
STARTCHAR udieresis
ENCODING 252
SWIDTH 505 0
DWIDTH 14 0
BBX 17 19 -1 0
BITMAP
00000AEA009EA00000
00002FFF22FFF30000
00000AEA009EA00000
000000000000000000
000000000000000000
003FFFC004FFFB0000
006FFF9008FFF80000
009FFF600BFFF50000
00DFFF300EFFF20000
01FFFE002FFFD00000
04FFFB005FFFA00000
07FFF8009FFF700000
0BFFF500CFFF400000
0EFFF200FFFF100100
2FFFE005FFFD002F10
3FFFD01DFFFC00AA00
2FFFFBDCFFFFBDE200
0CFFFFE2BFFFFE4000
02BEE9102BEE920000
ENDCHAR
STARTCHAR yacute
ENCODING 253
SWIDTH 505 0
DWIDTH 14 0
BBX 16 28 -1 -7
BITMAP
0000000001EFC000
0000000008FF3000
000000001EF80000
000000007FD10000
00000001EF400000
0000000154000000
0000000000000000
003FFFC004FFFB00
006FFF9008FFF800
009FFF600BFFF500
00DFFF300EFFF100
01FFFE002FFFD000
04FFFB006FFFA000
07FFF8009FFF7000
0BFFF500CFFF3000
0EFFF201FFFF1011
2FFFE005FFFC00A9
3FFFE01DFFF902F3
2FFFFBEFFFF61C90
0CFFFFDFFFF7DB10
02BEE93FFFFD7000
000017DFFFC00000
0005EECFFF800000
004F91BFFF500000
00AD01EFFF100000
00BE4AFFF9000000
007FFFFFD1000000
0007DFD810000000
ENDCHAR
STARTCHAR thorn
ENCODING 254
SWIDTH 473 0
DWIDTH 13 0
BBX 16 28 -3 -7
BITMAP
000000368A400000
000000DFFF200000
000001FFFE000000
000005FFFA000000
000008FFF6000000
00000BFFF3000000
00000EFFE0000000
00002FFFB7CEEA20
00006FFFFDCFFFC0
00009FFFA00BFFF2
0000CFFF2008FFF5
0001FFFE0007FFF6
0004FFFB0008FFF5
0007FFF8000AFFF3
000AFFF5000DFFF1
000EFFF1003FFFB0
002FFFD0009FFF60
005FFFA002FFFD00
008FFF801CFFF400
00CFFFEBEFFF5000
00EFFF7DFD920000
03FFFC0000000000
06FFF90000000000
09FFF60000000000
0DFFF30000000000
1FFFE00000000000
4FFF900000000000
5741000000000000
ENDCHAR
STARTCHAR ydieresis
ENCODING 255
SWIDTH 505 0
DWIDTH 14 0
BBX 16 26 -1 -7
BITMAP
00002DE502CE6000
00008FFC07FFD000
00003DE602DE6000
0000000000000000
0000000000000000
003FFFC004FFFB00
006FFF9008FFF800
009FFF600BFFF500
00DFFF300EFFF100
01FFFE002FFFD000
04FFFB006FFFA000
07FFF8009FFF7000
0BFFF500CFFF3000
0EFFF201FFFF1011
2FFFE005FFFC00A9
3FFFE01DFFF902F3
2FFFFBEFFFF61C90
0CFFFFDFFFF7DB10
02BEE93FFFFD7000
000017DFFFC00000
0005EECFFF800000
004F91BFFF500000
00AD01EFFF100000
00BE4AFFF9000000
007FFFFFD1000000
0007DFD810000000
ENDCHAR
STARTCHAR Amacron
ENCODING 256
SWIDTH 668 0
DWIDTH 19 0
BBX 22 28 0 -3
BITMAP
0000000000003FFFFFFFFC
0000000000004AAAAAAAA6
0000000000000000000000
0000000000000000000000
000000000000004AEFD300
00000000000009FFFFF200
000000000001CF8FFFE000
00000000001CF55FFFB000
0000000000BF708FFF8000
0000000008FC00BFFF4000
000000005FF300EFFF1000
00000001EF9002FFFD0000
00158AACFF3006FFFA0000
06EFFFFFFFFD8BFFF70000
5FFD41CFF226BFFFF30000
AFF505FFA0000FFFF00000
8FF70DFF40003FFFC00000
04406FFD00007FFF900000
0000CFF80000AFFF600000
0003FFF30000DFFF200000
0009FFD00001FFFE000000
000EFF800004FFFB000000
004FFF400008FFF8000000
007FFF10000BFFF5000000
009FFD00000EFFF1000000
009FFC0000000000000000
005FFB0000000000000000
0007DD0000000000000000
ENDCHAR
STARTCHAR amacron
ENCODING 257
SWIDTH 526 0
DWIDTH 15 0
BBX 17 19 -1 0
BITMAP
000001AAAAAAAA9000
000005FFFFFFFFA000
000000000000000000
000000000000000000
000000000000000000
000017CFE8AFFF5000
0002DFFFBEEFFF2000
001CFFE304FFFE0000
009FFF6005FFFA0000
02FFFD0008FFF70000
09FFF7000BFFF40000
0DFFF3000EFFF10000
2FFFE0003FFFC00000
4FFFD0006FFF900010
5FFFC000AFFF6007A0
4FFFE003FFFF501E30
1FFFFB9EDFFFD8DA00
09FFFFF93FFFFFC100
008DFC6006DFC60000
ENDCHAR
STARTCHAR Abreve
ENCODING 258
SWIDTH 668 0
DWIDTH 19 0
BBX 23 30 0 -3
BITMAP
000000000000188300003870
0000000000000FF90000BFB0
0000000000000AFE512AFE30
00000000000002DFFFFFB200
000000000000000578620000
000000000000000000000000
000000000000004AEFD30000
00000000000009FFFFF20000
000000000001CF8FFFE00000
00000000001CF55FFFB00000
0000000000BF708FFF800000
0000000008FC00BFFF400000
000000005FF300EFFF100000
00000001EF9002FFFD000000
00158AACFF3006FFFA000000
06EFFFFFFFFD8BFFF7000000
5FFD41CFF226BFFFF3000000
AFF505FFA0000FFFF0000000
8FF70DFF40003FFFC0000000
04406FFD00007FFF90000000
0000CFF80000AFFF60000000
0003FFF30000DFFF20000000
0009FFD00001FFFE00000000
000EFF800004FFFB00000000
004FFF400008FFF800000000
007FFF10000BFFF500000000
009FFD00000EFFF100000000
009FFC000000000000000000
005FFB000000000000000000
0007DD000000000000000000
ENDCHAR
STARTCHAR abreve
ENCODING 259
SWIDTH 526 0
DWIDTH 15 0
BBX 17 20 -1 0
BITMAP
00000BFC00004FF300
000007FF7116EFA000
000001BFFFFFE70000
000000036874100000
000000000000000000
000000000000000000
000017CFE8AFFF5000
0002DFFFBEEFFF2000
001CFFE304FFFE0000
009FFF6005FFFA0000
02FFFD0008FFF70000
09FFF7000BFFF40000
0DFFF3000EFFF10000
2FFFE0003FFFC00000
4FFFD0006FFF900010
5FFFC000AFFF6007A0
4FFFE003FFFF501E30
1FFFFB9EDFFFD8DA00
09FFFFF93FFFFFC100
008DFC6006DFC60000
ENDCHAR
STARTCHAR Aogonek
ENCODING 260
SWIDTH 668 0
DWIDTH 19 0
BBX 20 26 0 -5
BITMAP
000000000000004AEFD3
00000000000009FFFFF2
000000000001CF8FFFE0
00000000001CF55FFFB0
0000000000BF708FFF80
0000000008FC00BFFF40
000000005FF300EFFF10
00000001EF9002FFFD00
00158AACFF3006FFFA00
06EFFFFFFFFD8BFFF700
5FFD41CFF226BFFFF300
AFF505FFA0000FFFF000
8FF70DFF40003FFFC000
04406FFD00007FFF9000
0000CFF70000AFFF6000
0004FFF20000DFFF2000
000AFFC00001FFFE0000
000EFF800004FFFB0000
004FFF400008FFF80000
007FFF10000BFFF50000
009FFD00000EFFF10000
009FFB000007F5000000
004FFB00005F90000000
0004AB0000CF80120000
0000000000CFFBD30000
00000000003CEB200000
ENDCHAR
STARTCHAR aogonek
ENCODING 261
SWIDTH 526 0
DWIDTH 15 0
BBX 17 19 -1 -5
BITMAP
000017CFE8AFFF5000
0002DFFFBEEFFF2000
001CFFE204FFFD0000
009FFF5005FFFA0000
02FFFC0008FFF70000
09FFF7000CFFF30000
0DFFF2000FFFF00000
2FFFE0003FFFC00000
4FFFC0007FFF800240
5FFFC000CFFF600980
4FFFF207FFFF704E20
1FFFFEEFAFFFFDF600
09FFFFF72FFFFF7000
008DEC5005DFC30000
0000000000AE100000
0000000007F8000000
000000000DF8012000
000000000CFFAD3000
0000000003DEB20000
ENDCHAR
STARTCHAR Cacute
ENCODING 262
SWIDTH 497 0
DWIDTH 14 0
BBX 15 28 0 0
BITMAP
000000000004FF90
00000000000CFD10
00000000004FF400
0000000000CF8000
0000000005FD0000
0000000000000000
0000000000000000
00000017CEED9200
000005EFFFCCFF40
00006FFFE4008FC0
0003FFFF40005FE0
000DFFF900009FE0
007FFFF20004FF80
00DFFFA000005500
04FFFF4000000000
09FFFF0000000000
0CFFFC0000000000
1FFFF80000000000
4FFFF60000000000
5FFFF40000000000
6FFFF30000000000
7FFFF40000000000
6FFFF50000000230
4FFFFA0000002D40
1FFFFF600028FA00
09FFFFFEDEFFB000
01CFFFFFFFE70000
0006BEFEB7100000
ENDCHAR
STARTCHAR cacute
ENCODING 263
SWIDTH 384 0
DWIDTH 11 0
BBX 14 21 -1 0
BITMAP
0000000000DFE1
0000000005FF60
000000000CFC00
000000004FF300
00000000BF8000
00000000771000
00000000000000
000006CEEC4000
0002CFFECFE100
000CFFE20EF400
009FFF600EF200
02FFFE00196000
08FFF800000000
0DFFF400000000
2FFFF100000000
4FFFD000000000
5FFFC000000950
4FFFD00001AA00
1FFFF8347DB100
09FFFFFFF90000
006CFFD9300000
ENDCHAR
STARTCHAR Ccircumflex
ENCODING 264
SWIDTH 497 0
DWIDTH 14 0
BBX 15 28 0 0
BITMAP
00000000002D5000
0000000004EFA000
000000006FFFF100
00000008FB44F500
000001AB30006A00
0000000000000000
0000000000000000
00000017CEED9200
000005EFFFCCFF40
00006FFFE4008FC0
0003FFFF40005FE0
000DFFF900009FE0
007FFFF20004FF80
00DFFFA000005500
04FFFF4000000000
09FFFF0000000000
0CFFFC0000000000
1FFFF80000000000
4FFFF60000000000
5FFFF40000000000
6FFFF30000000000
7FFFF40000000000
6FFFF50000000230
4FFFFA0000002D40
1FFFFF600028FA00
09FFFFFEDEFFB000
01CFFFFFFFE70000
0006BEFEB7100000
ENDCHAR
STARTCHAR ccircumflex
ENCODING 265
SWIDTH 384 0
DWIDTH 11 0
BBX 13 21 -1 0
BITMAP
0000000009A000
00000000AFE000
0000001BFFF400
000001CFC6F900
00001CC5006D00
00005500000710
00000000000000
000006CEEC4000
0002CFFECFE100
000CFFE20EF400
009FFF600EF200
02FFFE00196000
08FFF800000000
0DFFF400000000
2FFFF100000000
4FFFD000000000
5FFFC000000950
4FFFD00001AA00
1FFFF8347DB100
09FFFFFFF90000
006CFFD9300000
ENDCHAR
STARTCHAR Cdotaccent
ENCODING 266
SWIDTH 497 0
DWIDTH 14 0
BBX 15 27 0 0
BITMAP
00000000002BEB10
00000000009FFF90
0000000000AFFF90
00000000002CEB10
0000000000000000
0000000000000000
00000017CEED9200
000005EFFFCCFF40
00006FFFE4008FC0
0003FFFF40005FE0
000DFFF900009FE0
007FFFF20004FF80
00DFFFA000005500
04FFFF4000000000
09FFFF0000000000
0CFFFC0000000000
1FFFF80000000000
4FFFF60000000000
5FFFF40000000000
6FFFF30000000000
7FFFF40000000000
6FFFF50000000230
4FFFFA0000002D40
1FFFFF600028FA00
09FFFFFEDEFFB000
01CFFFFFFFE70000
0006BEFEB7100000
ENDCHAR
STARTCHAR cdotaccent
ENCODING 267
SWIDTH 384 0
DWIDTH 11 0
BBX 13 21 -1 0
BITMAP
00000003CE9000
0000000CFFF600
0000000CFFF600
00000003CEA000
00000000000000
00000000000000
00000000000000
000006CEEC4000
0002CFFECFE100
000CFFE20EF400
009FFF600EF200
02FFFE00196000
08FFF800000000
0DFFF400000000
2FFFF100000000
4FFFD000000000
5FFFC000000950
4FFFD00001AA00
1FFFF8347DB100
09FFFFFFF90000
006CFFD9300000
ENDCHAR
STARTCHAR Ccaron
ENCODING 268
SWIDTH 497 0
DWIDTH 14 0
BBX 17 28 0 0
BITMAP
00000000A70003AB10
000000005F44BF9000
000000001EFFF60000
000000000AFE400000
0000000005D2000000
000000000000000000
000000000000000000
00000017CEED920000
000005EFFFCCFF4000
00006FFFE4008FC000
0003FFFF40005FE000
000DFFF900009FE000
007FFFF20004FF8000
00DFFFA00000550000
04FFFF400000000000
09FFFF000000000000
0CFFFC000000000000
1FFFF8000000000000
4FFFF6000000000000
5FFFF4000000000000
6FFFF3000000000000
7FFFF4000000000000
6FFFF5000000023000
4FFFFA0000002D4000
1FFFFF600028FA0000
09FFFFFEDEFFB00000
01CFFFFFFFE7000000
0006BEFEB710000000
ENDCHAR
STARTCHAR ccaron
ENCODING 269
SWIDTH 384 0
DWIDTH 11 0
BBX 15 21 -1 0
BITMAP
0000005B00017D30
0000001F706ED300
0000000BFDFD2000
00000007FFC10000
00000002FC100000
0000000061000000
0000000000000000
000006CEEC400000
0002CFFECFE10000
000CFFE20EF40000
009FFF600EF20000
02FFFD0019500000
08FFF80000000000
0DFFF30000000000
2FFFF00000000000
4FFFD00000000000
5FFFC000001B5000
4FFFE00002C90000
1FFFFA569EB00000
09FFFFFFF8000000
006CFFD920000000
ENDCHAR
STARTCHAR Dcaron
ENCODING 270
SWIDTH 663 0
DWIDTH 19 0
BBX 19 28 0 0
BITMAP
000000007900018D2000
000000003F517ED20000
000000000DEEFC100000
0000000008FFB1000000
0000000004FA00000000
00000000007000000000
00000000000000000000
00000059CEFEC8200000
00006EFFDBBEFFF70000
002CFE7200006FFF6000
02DFC248AC6008FFE100
0DFD10CFFF4002FFF700
6FF600EFFF1000DFFC00
BFF103FFFC0000CFFE00
CFD006FFF90000DFFF00
AFC00AFFF60000DFFF10
2CD00DFFF20000EFFF00
00101FFFE00002FFFD00
00004FFFB00004FFFA00
00008FFF700007FFF700
0000BFFF40000CFFF300
0000EFFF10002FFFC000
0003FFFD00008FFF6000
0006FFF90002FFFD0000
0009FFF6000BFFF50000
000CFFF934BFFF900000
001FFFFFFFFFFA000000
004FFFB3AEFC50000000
ENDCHAR
STARTCHAR dcaron
ENCODING 271
SWIDTH 525 0
DWIDTH 15 0
BBX 21 21 -1 0
BITMAP
00000000000000001BE800
00000000000000224FFF10
000000000007DFF71CFE00
00000000000CFFF304F800
00000000001FFFF009D100
00000000004FFFC01A1000
00000000007FFF80000000
000017CFE8AFFF50000000
0002DFFFBEEFFF20000000
001CFFE204FFFD00000000
009FFF5005FFFA00000000
02FFFC0009FFF700000000
09FFF7000CFFF300000000
0DFFF2001FFFF000000000
2FFFE0004FFFC000000000
4FFFC0007FFF8001300000
5FFFC000BFFF6009900000
4FFFF207FFFF604F300000
1FFFFEEFCFFFFDF9000000
09FFFFF82FFFFFB0000000
008DFC5005DFD700000000
ENDCHAR
STARTCHAR Dcroat
ENCODING 272
SWIDTH 663 0
DWIDTH 19 0
BBX 19 21 0 0
BITMAP
0000016ADFFEB8200000
00007EFFDBBDFFF80000
002CFE6100003EFF9000
03EFB159BD7005FFF300
1DFD10CFFF4001FFF900
7FF500FFFF0000DFFD00
BFF003FFFC0000CFFF00
CFD007FFF80000CFFF10
8FC00AFFF50000DFFF00
18B0AEFFFBA300EFFE00
0003FFFFFFE002FFFC00
00006FFF900004FFFA00
00009FFF600007FFF700
0000CFFF30000CFFF200
0001FFFF00002FFFC000
0003FFFC00008FFF6000
0007FFF90002FFFD0000
000AFFF6000BFFF50000
000DFFFA34BFFF900000
001FFFFFFFFFFA000000
004FFFB3AEFC60000000
ENDCHAR
STARTCHAR dcroat
ENCODING 273
SWIDTH 525 0
DWIDTH 15 0
BBX 18 20 -1 0
BITMAP
000000000000246400
000000000009FFF600
00000000000DFFF300
000000007FFFFFFFF3
000000007ACFFFEAA0
00000000007FFF9000
000017CFE8AFFF6000
0002DFFFBEEFFF2000
001CFFE204FFFE0000
009FFF5005FFFA0000
02FFFC0009FFF70000
09FFF7000CFFF40000
0DFFF2001FFFF10000
2FFFE0004FFFC00000
4FFFC0007FFF900130
5FFFC000BFFF600990
4FFFF207FFFF604F30
1FFFFEEFCFFFFDF900
09FFFFF82FFFFFB000
008DFC5005DFD70000
ENDCHAR
STARTCHAR Emacron
ENCODING 274
SWIDTH 459 0
DWIDTH 13 0
BBX 16 26 0 0
BITMAP
0000004AAAAAAAA6
0000009FFFFFFFF6
0000000000000000
0000000000000000
0000000000000000
00000017CEEA3000
000003EFFCCFF300
00002EFF6008FA00
0000BFFB0006FB00
0002FFF6000AF900
0004FFF4004FE200
0004FFF600021000
0000EFFC00000000
00005FFFA2000000
00018EFFB5000000
004EFFF800000000
02EFFF9000000000
0BFFFD1000000000
4FFFF70000000000
8FFFF30000000000
BFFFF10000003300
CFFFF4000002D200
AFFFFC20028F7000
4FFFFFFDEFF80000
09FFFFFFFD500000
005BEFEB61000000
ENDCHAR
STARTCHAR emacron
ENCODING 275
SWIDTH 384 0
DWIDTH 11 0
BBX 13 19 -1 0
BITMAP
0004AAAAAAAA60
000AFFFFFFFF50
00000000000000
00000000000000
00000000000000
000007CEEC4000
0002CFFECFE100
001CFFE20EF300
009FFF500FF300
02FFFD005FE000
09FFF702EF7000
0DFFF45EFA0000
2FFFFFFF800000
4FFFE971000000
5FFFC000000750
4FFFD000009C00
1FFFF8337DC100
09FFFFFFF91000
006CFFD9300000
ENDCHAR
STARTCHAR Ebreve
ENCODING 276
SWIDTH 459 0
DWIDTH 13 0
BBX 17 27 0 0
BITMAP
000000BFC00003FF30
0000008FF2001CFB00
0000002EFE9AEFB100
00000002AEFEB50000
000000000000000000
000000000000000000
00000017CEEA300000
000003EFFCCFF30000
00002EFF6008FA0000
0000BFFB0006FB0000
0002FFF6000AF90000
0004FFF4004FE20000
0004FFF60002100000
0000EFFC0000000000
00005FFFA200000000
00018EFFB500000000
004EFFF80000000000
02EFFF900000000000
0BFFFD100000000000
4FFFF7000000000000
8FFFF3000000000000
BFFFF1000000330000
CFFFF4000002D20000
AFFFFC20028F700000
4FFFFFFDEFF8000000
09FFFFFFFD50000000
005BEFEB6100000000
ENDCHAR
STARTCHAR ebreve
ENCODING 277
SWIDTH 384 0
DWIDTH 11 0
BBX 14 20 -1 0
BITMAP
000EF900006FF1
000AFE5127FF70
0002CFFFFFD500
00000478730000
00000000000000
00000000000000
000007CEEC4000
0002CFFECFE100
001CFFE20EF300
009FFF500FF300
02FFFD005FE000
09FFF702EF7000
0DFFF45EFA0000
2FFFFFFF800000
4FFFE971000000
5FFFC000000750
4FFFD000009C00
1FFFF8337DC100
09FFFFFFF91000
006CFFD9300000
ENDCHAR
STARTCHAR Edotaccent
ENCODING 278
SWIDTH 459 0
DWIDTH 13 0
BBX 14 27 0 0
BITMAP
0000000004DE90
000000000DFFF5
000000000DFFF5
0000000004DE90
00000000000000
00000000000000
00000017CEEA30
000003EFFCCFF3
00002EFF6008FA
0000BFFB0006FB
0002FFF6000AF9
0004FFF4004FE2
0004FFF6000210
0000EFFC000000
00005FFFA20000
00018EFFB50000
004EFFF8000000
02EFFF90000000
0BFFFD10000000
4FFFF700000000
8FFFF300000000
BFFFF100000033
CFFFF4000002D2
AFFFFC20028F70
4FFFFFFDEFF800
09FFFFFFFD5000
005BEFEB610000
ENDCHAR
STARTCHAR edotaccent
ENCODING 279
SWIDTH 384 0
DWIDTH 11 0
BBX 13 21 -1 0
BITMAP
00000004DE8000
0000000EFFF400
0000000EFFF500
00000004DE8000
00000000000000
00000000000000
00000000000000
000007CEEC4000
0002CFFECFE100
001CFFE20EF300
009FFF500FF300
02FFFD005FE000
09FFF702EF7000
0DFFF45EFA0000
2FFFFFFF800000
4FFFE971000000
5FFFC000000750
4FFFD000009C00
1FFFF8337DC100
09FFFFFFF91000
006CFFD9300000
ENDCHAR
STARTCHAR Eogonek
ENCODING 280
SWIDTH 459 0
DWIDTH 13 0
BBX 14 26 0 -5
BITMAP
000004ADEEC710
00009FFC402DE3
0008FFE10007FB
002FFF900006FE
005FFF60000CFD
005FFF90004FF6
001FFFE1000110
0008FFFA000000
00009FFFB20000
00028EFFD60000
006EFFF9100000
05FFFF80000000
1EFFFC00000000
6FFFF600000000
9FFFF300000000
AFFFF400000010
8FFFF900000095
4FFFFF500008C0
0CFFFFFB8AED20
02CFFFFFFFB100
0017CEEDFA0000
00000008D00000
0000005F900000
000000BF900200
000000AFFAD400
0000002CEC3000
ENDCHAR
STARTCHAR eogonek
ENCODING 281
SWIDTH 384 0
DWIDTH 11 0
BBX 13 19 -1 -5
BITMAP
000007CEEC4000
0002CFFECFE100
001CFFE20EF300
009FFF500FF300
02FFFD005FE000
09FFF702EF7000
0DFFF45EFA0000
2FFFFFFF800000
4FFFE971000000
5FFFC000000750
4FFFD000009C00
1FFFF7336DD100
09FFFFFFFA1000
006CFFFE500000
000007E3000000
00004FB0000000
00009FB0030000
00009FFBC50000
00001BEC400000
ENDCHAR
STARTCHAR Ecaron
ENCODING 282
SWIDTH 459 0
DWIDTH 13 0
BBX 17 28 0 0
BITMAP
000000007A00029C20
000000002F729FB100
000000000CFFF90000
0000000007FF700000
0000000002E4000000
000000000000000000
000000000000000000
00000017CEEA300000
000003EFFCCFF30000
00002EFF6008FA0000
0000BFFB0006FB0000
0002FFF6000AF90000
0004FFF4004FE20000
0004FFF60002100000
0000EFFC0000000000
00005FFFA200000000
00018EFFB500000000
004EFFF80000000000
02EFFF900000000000
0BFFFD100000000000
4FFFF7000000000000
8FFFF3000000000000
BFFFF1000000330000
CFFFF4000002D20000
AFFFFC20028F700000
4FFFFFFDEFF8000000
09FFFFFFFD50000000
005BEFEB6100000000
ENDCHAR
STARTCHAR ecaron
ENCODING 283
SWIDTH 384 0
DWIDTH 11 0
BBX 15 21 -1 0
BITMAP
0000007A00018D30
0000002F607ED200
0000000DEDFC1000
00000008FFC10000
00000003FB100000
0000000070000000
0000000000000000
000007CEEC400000
0002CFFECFE10000
001CFFE20EF40000
009FFF500FF20000
02FFFD005FC00000
09FFF702EF400000
0DFFF56EF6000000
2FFFFFFA30000000
4FFFD31000000000
5FFFC000001B5000
4FFFE00001B90000
1FFFF8347EA00000
09FFFFFFF8000000
006CFFD920000000
ENDCHAR
STARTCHAR Gcircumflex
ENCODING 284
SWIDTH 578 0
DWIDTH 16 0
BBX 16 34 0 -6
BITMAP
0000000000009A00
00000000000AFE00
0000000001BFFF40
000000001CFB5E90
00000002DC4006D0
0000000550000061
0000000000000000
00000027BEFEC710
000018FFFFCBEFE3
0002DFFFC3001EFB
001DFFFB00000DFD
00BFFFD100004FFB
04FFFF5000008EC3
0BFFFC0000000000
1FFFF70000000000
4FFFF20000002220
6FFFF0000003FFF2
7FFFD0000007FFE0
6FFFD000000DFFB0
4FFFF000005FFF80
0EFFF50001DFFF50
08FFFD304DFFFF10
01CFFFFFFCDFFD00
0018EFFE81FFFA00
0000012004FFF700
0000000007FFF300
00017A930BFFE000
002DFFFE0EFFB000
00AFD3173FFF6000
00FF60007FFE1000
00FF6000DFF70000
00BFC21AFFC00000
002DFFFFFC100000
000058A940000000
ENDCHAR
STARTCHAR gcircumflex
ENCODING 285
SWIDTH 507 0
DWIDTH 14 0
BBX 17 28 -1 -7
BITMAP
00000000004E100000
0000000005FF500000
000000007FFFA00000
00000008FD6BE00000
0000009E7001E40000
000002610000330000
000000000000000000
000017CFE8AFFF5000
0002DFFFBEEFFF2000
001CFFE204FFFD0000
009FFF5005FFFA0000
02FFFC0008FFF70000
09FFF7000CFFF40000
0DFFF2000FFFF10000
2FFFE0003FFFC00000
4FFFC0007FFF900310
5FFFC000BFFF602F20
4FFFF207FFFF208B00
1FFFFEEFFFFE05E200
09FFFFFDFFFD9E5000
008DFC68FFFFA20000
000004BFFFF5000000
0001AFDFFFF2000000
000BF71FFFE0000000
001F905FFF90000000
002F70BFFF30000000
000DECFFF800000000
0002AEEB5000000000
ENDCHAR
STARTCHAR Gbreve
ENCODING 286
SWIDTH 578 0
DWIDTH 16 0
BBX 18 33 0 -6
BITMAP
000000018830000487
00000001FFA0002DF9
000000009FFB9AFFA1
0000000006CEFDA400
000000000000000000
000000000000000000
00000027BEFEC81000
000018FFFFCBEFD200
0002DFFFC3001EFA00
001DFFFB00000CFD00
00BFFFD100001FFC00
04FFFF500000AFF600
0BFFFC000000264000
1FFFF7000000000000
4FFFF2000000000000
6FFFF0000001CCC200
7FFFD0000006FFF000
6FFFD000000BFFC000
4FFFF000004FFF9000
0EFFF50001DFFF5000
08FFFD303CFFFF2000
01CFFFFFFCDFFE0000
0018EFFE81FFFB0000
0000012004FFF70000
0000000007FFF40000
00017A930BFFF10000
002DFFFE0EFFB00000
00AFD3173FFF600000
00FF60007FFE100000
00FF6000DFF8000000
00BFC21AFFC0000000
002DFFFFFC10000000
000058A95000000000
ENDCHAR
STARTCHAR gbreve
ENCODING 287
SWIDTH 507 0
DWIDTH 14 0
BBX 17 27 -1 -7
BITMAP
00000BFC00003FF400
000008FF2001CFB000
000002EFE9AEFC1000
0000002AEFEB500000
000000000000000000
000000000000000000
000017CFE8AFFF5000
0002DFFFBEEFFF2000
001CFFE204FFFD0000
009FFF5005FFFA0000
02FFFC0008FFF70000
09FFF7000CFFF40000
0DFFF2000FFFF10000
2FFFE0003FFFC00000
4FFFC0007FFF900310
5FFFC000BFFF602F20
4FFFF207FFFF208B00
1FFFFEEFFFFE05E200
09FFFFFDFFFD9E5000
008DFC68FFFFA20000
000004BFFFF5000000
0001AFDFFFF2000000
000BF71FFFE0000000
001F905FFF90000000
002F70BFFF30000000
000DECFFF800000000
0002AEEB5000000000
ENDCHAR
STARTCHAR Gdotaccent
ENCODING 288
SWIDTH 578 0
DWIDTH 16 0
BBX 16 33 0 -6
BITMAP
0000000000AEC300
0000000007FFFB00
0000000007FFFC00
0000000001AEC300
0000000000000000
0000000000000000
00000027BEFEC810
000018FFFFCBEFD2
0002DFFFC3001EFA
001DFFFB00000CFD
00BFFFD100001FFC
04FFFF500000AFF6
0BFFFC0000002640
1FFFF70000000000
4FFFF20000000000
6FFFF0000001CCC2
7FFFD0000006FFF0
6FFFD000000BFFC0
4FFFF000004FFF90
0EFFF50001DFFF50
08FFFD303CFFFF20
01CFFFFFFCDFFE00
0018EFFE81FFFB00
0000012004FFF700
0000000007FFF400
00017A930BFFF100
002DFFFE0EFFB000
00AFD3173FFF6000
00FF60007FFE1000
00FF6000DFF80000
00BFC21AFFC00000
002DFFFFFC100000
000058A950000000
ENDCHAR
STARTCHAR gdotaccent
ENCODING 289
SWIDTH 507 0
DWIDTH 14 0
BBX 17 28 -1 -7
BITMAP
000000001BEB200000
000000008FFFA00000
000000009FFFA00000
000000001BEB200000
000000000000000000
000000000000000000
000000000000000000
000017CFE8AFFF5000
0002DFFFBEEFFF2000
001CFFE204FFFD0000
009FFF5005FFFA0000
02FFFC0008FFF70000
09FFF7000CFFF40000
0DFFF2000FFFF10000
2FFFE0003FFFC00000
4FFFC0007FFF900310
5FFFC000BFFF602F20
4FFFF207FFFF208B00
1FFFFEEFFFFE05E200
09FFFFFDFFFD9E5000
008DFC68FFFFA20000
000004BFFFF5000000
0001AFDFFFF2000000
000BF71FFFE0000000
001F905FFF90000000
002F70BFFF30000000
000DECFFF800000000
0002AEEB5000000000
ENDCHAR
STARTCHAR Gcommaaccent
ENCODING 290
SWIDTH 578 0
DWIDTH 16 0
BBX 15 28 0 -7
BITMAP
00000006BEFD8100
000004DFFFBEFC10
00005FFFD202FF70
0005FFFE2000FFB0
002EFFF60002FFA0
00AFFFD0000BFF60
03FFFF600005A600
0AFFFF1000000000
1FFFFB0000000000
5FFFF70000000000
8FFFF30000000000
AFFFF0000006FFE0
CFFFE0000009FFA0
CFFFD000000DFF70
CFFFD000003FFF30
BFFFD000009FFE00
8FFFF00001EFFB00
3FFFF4000AFFF800
0BFFFB007FFFF400
02EFFFCCFDFFF100
0019DFEA3CFFD000
0000000000000000
0000000000000000
000002DE50000000
000004FFA0000000
000000AF70000000
0000008D10000000
000002C200000000
ENDCHAR
STARTCHAR gcommaaccent
ENCODING 291
SWIDTH 507 0
DWIDTH 14 0
BBX 17 28 -1 -7
BITMAP
0000000002C2000000
000000000C90000000
000000006FB0000000
000000009FF5000000
000000004ED2000000
000000000000000000
000000000000000000
000017CFE8AFFF5000
0002DFFFBEEFFF2000
001CFFE204FFFD0000
009FFF5005FFFA0000
02FFFC0008FFF70000
09FFF7000CFFF40000
0DFFF2000FFFF10000
2FFFE0003FFFC00000
4FFFC0007FFF900310
5FFFC000BFFF602F20
4FFFF207FFFF208B00
1FFFFEEFFFFE05E200
09FFFFFDFFFD9E5000
008DFC68FFFFA20000
000004BFFFF5000000
0001AFDFFFF2000000
000BF71FFFE0000000
001F905FFF90000000
002F70BFFF30000000
000DECFFF800000000
0002AEEB5000000000
ENDCHAR
STARTCHAR Hcircumflex
ENCODING 292
SWIDTH 665 0
DWIDTH 19 0
BBX 20 28 0 0
BITMAP
00000000000000070000
00000000000001BF4000
0000000000002DFF9000
000000000004EFACE000
00000000006E9202E500
00000000027200003400
00000000000000000000
00000049DEF3000AFFF5
00004CFFFFF0000DFFF2
0009FFDFFFC0001FFFE0
00AFF55FFF90004FFFA0
08FF509FFF60007FFF70
2FF900CFFF3000AFFF40
7FF401FFFF0000DFFF10
9FF104FFFC0001FFFD00
8FE007FFF90005FFFA00
2FF00AFFFFFFFFFFF600
02610DFFFFFFFFFFF300
00002FFFE0000EFFF000
00005FFFB0002FFFC000
00008FFF80006FFF9000
0000CFFF40009FFF5000
0000FFFF1000CFFF2000
0003FFFD0001FFFE0000
0007FFF90004FFFB0000
000AFFF60007FFF80000
000DFFF2000BFFF50000
001FFFE0000EFFF10000
ENDCHAR
STARTCHAR hcircumflex
ENCODING 293
SWIDTH 505 0
DWIDTH 14 0
BBX 17 25 -1 0
BITMAP
00000002D500000000
0000004EFA00000000
000006FFFE00000000
00009FB44F50000000
001BA30007A0000000
000000020000000000
0001BDFE0000000000
0004FFFC0000000000
0007FFF80000000000
000AFFF50000000000
000EFFF20000000000
002FFFE2AEE9100000
005FFFDEFFFFA00000
008FFFFEEFFFE00000
00CFFFC11FFFE00000
00FFFF300FFFD00000
03FFFD002FFFA00000
07FFF9005FFF600000
0AFFF6008FFF200000
0DFFF300CFFE000210
1FFFE000FFFB003F10
5FFFB002FFFC01CA00
8FFF8002FFFFEEF200
BFFF4000CFFFFF6000
EFFF10002AEEB40000
ENDCHAR
STARTCHAR Hbar
ENCODING 294
SWIDTH 665 0
DWIDTH 19 0
BBX 21 21 0 0
BITMAP
00000049DEF3000AFFF500
00004DFFFFF0000DFFF200
000AFEAFFFC0001FFFE000
01BFD26FFFA0004FFFC000
09FE208FFF70006FFF9000
3FF801BFFF5111AFFF7110
8FF33FFFFFFFFFFFFFFF90
9FF026FFFD4445FFFF4420
8FE006FFF90004FFFC0000
1DF109FFFFFFFFFFF80000
00310DFFFBAAAEFFF50000
00001FFFE0000FFFF20000
00004FFFA0003FFFD00000
00008FFF70006FFFA00000
0000BFFF4000AFFF700000
0000EFFF1000DFFF300000
0003FFFC0001FFFF000000
0006FFF90004FFFC000000
000AFFF60008FFF8000000
000DFFF2000BFFF5000000
001FFFE0000EFFF1000000
ENDCHAR
STARTCHAR hbar
ENCODING 295
SWIDTH 505 0
DWIDTH 14 0
BBX 17 20 -1 0
BITMAP
000012461000000000
0002FFFE0000000000
0005FFFB0000000000
07FFFFFFFF30000000
07AEFFFCAA00000000
000EFFF20000000000
002FFFE2AEE9100000
005FFFDEFFFFA00000
008FFFFEEFFFE00000
00CFFFC11FFFE00000
00FFFF300FFFD00000
03FFFD002FFFA00000
07FFF9005FFF600000
0AFFF6008FFF200000
0DFFF300CFFE000210
1FFFE000FFFB003F10
5FFFB002FFFC01CA00
8FFF8002FFFFEEF200
BFFF4000CFFFFF6000
EFFF10002AEEB40000
ENDCHAR
STARTCHAR Itilde
ENCODING 296
SWIDTH 375 0
DWIDTH 11 0
BBX 15 26 0 0
BITMAP
0000003675200010
00001BFFFFFC8970
0000989DFFFFF800
0001000026751000
0000000000000000
0000016ADFE00000
00006EFFFFC00000
002CFB8FFF900000
02DF809FFF600000
1DFB00DFFF200000
7FF301FFFE000000
BFE004FFFB000000
CFC007FFF8000000
9FC00BFFF5000000
1AC00EFFF1000000
00002FFFD0000000
00005FFFA0000000
00008FFF70000000
0000CFFF40000000
0000FFFF10000000
0003FFFC00000000
0006FFF900000000
0009FFF600000000
000DFFF300000000
001FFFE000000000
004FFFB000000000
ENDCHAR
STARTCHAR itilde
ENCODING 297
SWIDTH 267 0
DWIDTH 7 0
BBX 10 19 -1 0
BITMAP
003BED7223
01EFFFFFC0
03128DE910
0000000000
0000000000
003FFFC000
006FFF9000
009FFF6000
00DFFF3000
01FFFE0000
04FFFB0000
07FFF80000
0BFFF50000
0EFFF20011
2FFFE000C6
3FFFD007E1
2FFFFBCF50
0CFFFFF700
02BEEA3000
ENDCHAR
STARTCHAR Imacron
ENCODING 298
SWIDTH 375 0
DWIDTH 11 0
BBX 14 25 0 0
BITMAP
00006FFFFFFFF8
00006AAAAAAAA4
00000000000000
00000000000000
0000016ADFE000
00006EFFFFC000
002CFB8FFF9000
02DF809FFF6000
1DFB00DFFF2000
7FF301FFFE0000
BFE004FFFB0000
CFC007FFF80000
9FC00BFFF50000
1AC00EFFF10000
00002FFFD00000
00005FFFA00000
00008FFF700000
0000CFFF400000
0000FFFF100000
0003FFFC000000
0006FFF9000000
0009FFF6000000
000DFFF3000000
001FFFE0000000
004FFFB0000000
ENDCHAR
STARTCHAR imacron
ENCODING 299
SWIDTH 267 0
DWIDTH 7 0
BBX 10 19 -1 0
BITMAP
01AAAAAAA3
04FFFFFFF1
0000000000
0000000000
0000000000
003FFFC000
006FFF9000
009FFF6000
00DFFF3000
01FFFE0000
04FFFB0000
07FFF80000
0BFFF50000
0EFFF20011
2FFFE000C6
3FFFD007E1
2FFFFBCF50
0CFFFFF700
02BEEA3000
ENDCHAR
STARTCHAR Ibreve
ENCODING 300
SWIDTH 375 0
DWIDTH 11 0
BBX 15 27 0 0
BITMAP
0000188300003870
00001FF80000CFB0
00000BFE413BFE20
000002DFFFFFB200
0000000588620000
0000000000000000
0000016ADFE00000
00006EFFFFC00000
002CFB8FFF900000
02DF809FFF600000
1DFB00DFFF200000
7FF301FFFE000000
BFE004FFFB000000
CFC007FFF8000000
9FC00BFFF5000000
1AC00EFFF1000000
00002FFFD0000000
00005FFFA0000000
00008FFF70000000
0000CFFF40000000
0000FFFF10000000
0003FFFC00000000
0006FFF900000000
0009FFF600000000
000DFFF300000000
001FFFE000000000
004FFFB000000000
ENDCHAR
STARTCHAR ibreve
ENCODING 301
SWIDTH 267 0
DWIDTH 7 0
BBX 11 20 -1 0
BITMAP
00FF1000EF10
00CF812BF900
004EFFFF9000
000268620000
000000000000
000000000000
003FFFC00000
006FFF900000
009FFF600000
00DFFF300000
01FFFE000000
04FFFB000000
07FFF8000000
0BFFF5000000
0EFFF2001100
2FFFE000C600
3FFFD007E100
2FFFFBCF5000
0CFFFFF70000
02BEEA300000
ENDCHAR
STARTCHAR Iogonek
ENCODING 302
SWIDTH 375 0
DWIDTH 11 0
BBX 11 33 0 -6
BITMAP
00001FFC0000
00000BFF0000
000006FF2000
000001FF5000
000000BF7000
000000000000
0000016ADFE0
00006EFFFFC0
002CFA8FFF90
02DF80AFFF60
1DFA00DFFF20
7FF301FFFE00
BFE004FFFB00
CFC007FFF800
9FC00BFFF500
1AC00EFFF100
00002FFFD000
00005FFFA000
00008FFF7000
0000CFFF4000
0000FFFF1000
0003FFFC0000
0006FFF90000
0009FFF60000
000DFFF30000
001FFFE00000
004FFFB00000
001CB0000000
00CF20000000
03FF00000000
04FF714B0000
01DFFFE40000
0018A7200000
ENDCHAR
STARTCHAR iogonek
ENCODING 303
SWIDTH 267 0
DWIDTH 7 0
BBX 11 25 -2 -6
BITMAP
00000AEC3000
00006FFFC000
00006FFFC000
00000AEC3000
000000000000
0003FFFC0000
0006FFF90000
0009FFF60000
000DFFF30000
001FFFE00000
004FFFB00000
007FFF800000
00BFFF500000
00EFFF200110
01FFFE000C60
03FFFD007E10
02FFFFBCF500
00CFFFFF7000
003FFEA30000
01CB00000000
0BF400000000
1FF200000000
2FF913C00000
0BFFFF600000
017A82000000
ENDCHAR
STARTCHAR Idotaccent
ENCODING 304
SWIDTH 375 0
DWIDTH 11 0
BBX 13 27 0 0
BITMAP
000000006EE600
00000002FFFF20
00000002FFFF20
000000006EE600
00000000000000
00000000000000
0000016ADFE000
00006EFFFFC000
002CFB8FFF9000
02DF809FFF6000
1DFB00DFFF2000
7FF301FFFE0000
BFE004FFFB0000
CFC007FFF80000
9FC00BFFF50000
1AC00EFFF10000
00002FFFD00000
00005FFFA00000
00008FFF700000
0000CFFF400000
0000FFFF100000
0003FFFC000000
0006FFF9000000
0009FFF6000000
000DFFF3000000
001FFFE0000000
004FFFB0000000
ENDCHAR
STARTCHAR dotlessi
ENCODING 305
SWIDTH 267 0
DWIDTH 7 0
BBX 10 14 -1 0
BITMAP
003FFFC000
006FFF9000
009FFF6000
00DFFF3000
01FFFE0000
04FFFB0000
07FFF80000
0BFFF50000
0EFFF20011
2FFFE000C6
3FFFD007E1
2FFFFBCF50
0CFFFFF700
02BEEA3000
ENDCHAR
STARTCHAR IJ
ENCODING 306
SWIDTH 663 0
DWIDTH 19 0
BBX 19 27 0 -6
BITMAP
0000016ADFE000147BA0
00006EFFFFC0007FFF80
002CFA8FFF9000BFFF50
02DF80AFFF6000EFFF10
1DFA00DFFF2002FFFD00
7FF301FFFE0006FFFA00
BFE004FFFB0009FFF700
CFC007FFF8000CFFF400
9FC00BFFF5001FFFF100
1AC00EFFF1004FFFC000
00002FFFD0007FFF9000
00005FFFA000BFFF6000
00008FFF7000EFFF3000
0000CFFF4002FFFE0000
0000FFFF1006FFFB0000
0003FFFC0009FFF80000
0006FFF9000CFFF50000
0009FFF6001FFFF20000
000DFFF3004FFFE00000
001FFFF8107FFFB00000
004FFFFFB0BFFF700000
0009FE4150EFFF300000
000CF90003FFFC000000
000CF80008FFF4000000
0008FE415FFF90000000
0001CFFFFFF800000000
0000059A972000000000
ENDCHAR
STARTCHAR ij
ENCODING 307
SWIDTH 507 0
DWIDTH 14 0
BBX 17 26 -1 -7
BITMAP
0000AEC30007ED5000
0006FFFC002FFFF100
0006FFFC003FFFF100
0000AEC30007ED5000
000000000000000000
003FFFC000BFFF5000
006FFF9000EFFF2000
009FFF6002FFFD0000
00DFFF3005FFFA0000
01FFFE0008FFF70000
04FFFB000CFFF40000
07FFF8000EFFF10000
0BFFF5003FFFC00000
0EFFF2006FFF900110
2FFFE0009FFF601F20
3FFFD000CFFF308B00
2FFFFB81FFFE04E300
0CFFFF64FFFC8E6000
02BED707FFFFB30000
0000028EFFF6000000
00008FBFFFF2000000
0008E42FFFE0000000
001F707FFFA0000000
002FA4EFFF30000000
000DFFFFF800000000
0002AEEB5000000000
ENDCHAR
STARTCHAR Jcircumflex
ENCODING 308
SWIDTH 536 0
DWIDTH 15 0
BBX 18 34 0 -6
BITMAP
000000000000001C60
00000000000002DFA0
0000000000002DFFE1
000000000003EF97F5
00000000004EA200A9
000000000173000016
000000000000000000
000000000005ADFF10
0000000006EFFFFD00
00000001BFC8FFFA00
0000001CFB08FFF700
000000CFD10BFFF300
000005FF500FFFF100
00000AFF103FFFC000
00000BFD007FFF9000
000008FD00AFFF6000
000001BE10DFFF3000
0000000002FFFE0000
0000000005FFFB0000
0000000008FFF80000
000000000CFFF50000
000000000FFFF20000
000000003FFFD00000
000000007FFFA00000
00000000AFFF700000
00000000EFFF400000
006AA712FFFF100000
0AFFFF85FFFC000000
3FF81359FFF8000000
7FE0000DFFF2000000
7FE0003FFF90000000
3FF713CFFD10000000
08FFFFFFB200000000
0049A9730000000000
ENDCHAR
STARTCHAR jcircumflex
ENCODING 309
SWIDTH 240 0
DWIDTH 7 0
BBX 14 28 -6 -7
BITMAP
00000000001C60
0000000002DFB0
000000003EFFF1
00000004EE86F5
0000006E81009A
00000151000004
00000000000000
00000003FFFD00
00000006FFFA00
00000009FFF700
0000000CFFF400
0000001FFFF100
0000004FFFC000
0000007FFF9000
000000AFFF6000
000000DFFF3000
000001FFFF0059
000004FFFC00C6
000008FFF905D0
00000BFFF64D30
00000EFFFCB200
0005BFFFE20000
02CFFFFFA00000
2EF89FFF700000
8F40BFFF300000
9E03FFFC000000
5FCEFFE2000000
06DED810000000
ENDCHAR
STARTCHAR Kcommaaccent
ENCODING 310
SWIDTH 601 0
DWIDTH 17 0
BBX 19 28 0 -7
BITMAP
0000016ADFE0000BFE30
00007EFFFFC0007FF500
002DFA8FFF9004FF6000
03EF80AFFF601DF80000
1DFA00DFFF20AFA00000
7FF301FFFE07FC100000
BFE004FFFB3FD1000000
CFC007FFF9DE20000000
8FC00BFFFEF400000000
18B00EFFFFFFFB300000
00002FFFD35EFFD00000
00005FFFA008FFF30000
00008FFF7008FFF30000
0000CFFF300AFFF10000
0000FFFF100EFFD00000
0003FFFC003FFFA00000
0006FFF9007FFF600000
0009FFF600BFFF200000
000DFFF300DFFE000000
001FFFE000EFFE000000
004FFFB0006EFF600000
00000000000000000000
00000003730000000000
0000000EFE0000000000
0000000AFE0000000000
00000001F90000000000
00000007C10000000000
00000005100000000000
ENDCHAR
STARTCHAR kcommaaccent
ENCODING 311
SWIDTH 518 0
DWIDTH 15 0
BBX 17 27 -1 -7
BITMAP
000002461000000000
0001FFFE0000000000
0005FFFB0000000000
0008FFF70000000000
000BFFF40000000000
000EFFF10000000000
003FFFD0004EF80000
006FFFA007FD300000
009FFF61AF91000000
00CFFF5CE700000000
01FFFFEFFFF7000000
04FFFFFFFFFF400000
07FFFE62BFFF800000
0AFFF5008FFF900000
0DFFF200AFFF700000
1FFFE000CFFF300B70
5FFFB000EFFF204E10
8FFF7000EFFFB9E800
BFFF40009FFFFFB000
EFFF100018DFD70000
000000000000000000
000000000000000000
00000BF70000000000
00001FFD0000000000
000007FA0000000000
000005E20000000000
00000C400000000000
ENDCHAR
STARTCHAR kgreenlandic
ENCODING 312
SWIDTH 518 0
DWIDTH 15 0
BBX 17 14 -1 0
BITMAP
003FFFD0004EF80000
006FFFA007FD300000
009FFF61AF91000000
00DFFF5CE700000000
01FFFFEFFFF7000000
04FFFFFFFFFF400000
07FFFE62BFFF800000
0AFFF5008FFF900000
0DFFF200AFFF700000
2FFFE000CFFF300B70
5FFFB000EFFF204E10
8FFF7000EFFFB9E800
BFFF40009FFFFFB000
EFFF100018DFD70000
ENDCHAR
STARTCHAR Lacute
ENCODING 313
SWIDTH 379 0
DWIDTH 11 0
BBX 19 35 0 -7
BITMAP
00000000000787000000
00000000006FF6000000
0000000000CFC0000000
0000000004FF30000000
000000000BF800000000
000000003FD100000000
00000000000000000000
0000016ADFE000000000
00007EFFFFC000000000
002DFA8FFF9000000000
03EF70AFFF5000000000
1DFA00DFFF2000000000
7FF301FFFE0000000000
BFE005FFFB0000000000
CFC008FFF70000000000
8FC00BFFF40000000000
07A00EFFF10000000000
00003FFFC00000000000
00006FFF900000000000
00009FFF600000000000
0000DFFF300000000000
0001FFFE000000000000
0004FFFB000000000000
0007FFF8000000000000
000BFFF5000000000000
000EFFF1000000000000
002FFFD0000000000000
006FFFFD700000000000
000138FFFD4000000000
0000002BFFFA20000000
000000007FFFF9410330
0000000005EFFFFFFF50
00000000003DFFFFFF20
000000000001BFFFFA00
00000000000006CEC100
ENDCHAR
STARTCHAR lacute
ENCODING 314
SWIDTH 267 0
DWIDTH 7 0
BBX 11 26 -1 0
BITMAP
00000003FF90
0000000AFE10
0000002FF600
0000009FC000
000001FF3000
000003850000
000000000000
00019BDF0000
0004FFFC0000
0007FFF90000
000AFFF50000
000EFFF20000
002FFFE00000
005FFFA00000
008FFF700000
00CFFF400000
00FFFF100000
03FFFC000000
07FFF9000000
0AFFF6000000
0DFFF2000000
1FFFE000B700
3FFFD005E100
2FFFF9AF6000
0CFFFFF80000
02BEEA400000
ENDCHAR
STARTCHAR Lcommaaccent
ENCODING 315
SWIDTH 379 0
DWIDTH 11 0
BBX 19 28 0 -7
BITMAP
0000016ADFE000000000
00007EFFFFC000000000
002DFA8FFF9000000000
03EF70AFFF5000000000
1DFA00DFFF2000000000
7FF301FFFE0000000000
BFE005FFFB0000000000
CFC008FFF70000000000
8FC00BFFF40000000000
07A00EFFF10000000000
00003FFFC00000000000
00006FFF900000000000
00009FFF600000000000
0000DFFF300000000000
0001FFFE000000000000
0004FFFB000000000000
0007FFF8000000000000
000BFFF5000000000000
000EFFF1000000000000
002FFFD0000000000000
006FFFFD700000000000
000138FFFD4000000000
0017502BFFFA20000000
00AFF2007FFFF9410330
009FF30005EFFFFFFF50
001ED000003DFFFFFF20
001E50000001BFFFFA00
00760000000006CEC100
ENDCHAR
STARTCHAR lcommaaccent
ENCODING 316
SWIDTH 267 0
DWIDTH 7 0
BBX 10 27 -1 -7
BITMAP
0000002400
0001DFFE00
0004FFFB00
0008FFF800
000BFFF500
000EFFF100
002FFFD000
006FFFA000
009FFF7000
00CFFF4000
01FFFF1000
04FFFC0000
07FFF90000
0AFFF60000
0EFFF20000
1FFFE000B7
3FFFD005E1
2FFFF9AF60
0CFFFFF800
02BEEA4000
0000000000
0373000000
0EFE000000
0AFE000000
01F9000000
07C1000000
0510000000
ENDCHAR
STARTCHAR Lcaron
ENCODING 317
SWIDTH 379 0
DWIDTH 11 0
BBX 19 35 0 -7
BITMAP
00000000700000470000
00000000B8003BE30000
000000006F6AFD200000
000000002FFFD2000000
000000000CFC10000000
0000000007B100000000
00000000000000000000
0000016ADFE000000000
00007EFFFFC000000000
002DFA8FFF9000000000
03EF70AFFF5000000000
1DFA00DFFF2000000000
7FF301FFFE0000000000
BFE005FFFB0000000000
CFC008FFF70000000000
8FC00BFFF40000000000
07A00EFFF10000000000
00003FFFC00000000000
00006FFF900000000000
00009FFF600000000000
0000DFFF300000000000
0001FFFE000000000000
0004FFFB000000000000
0007FFF8000000000000
000BFFF5000000000000
000EFFF1000000000000
002FFFD0000000000000
006FFFFD700000000000
000138FFFD4000000000
0000002BFFFA20000000
000000007FFFF9410330
0000000005EFFFFFFF50
00000000003DFFFFFF20
000000000001BFFFFA00
00000000000006CEC100
ENDCHAR
STARTCHAR lcaron
ENCODING 318
SWIDTH 267 0
DWIDTH 7 0
BBX 13 21 -1 0
BITMAP
0000000009EA00
000000011FFF30
0001ACEF0BFF20
0004FFFC02FC00
0007FFF805E300
000AFFF50B4000
000EFFF2000000
002FFFD0000000
005FFFA0000000
009FFF70000000
00CFFF30000000
01FFFF00000000
04FFFC00000000
07FFF900000000
0AFFF500000000
0DFFF200010000
1FFFE000C60000
3FFFD006E10000
2FFFFBCF600000
0CFFFFF8000000
02BEEA30000000
ENDCHAR
STARTCHAR Ldot
ENCODING 319
SWIDTH 605 0
DWIDTH 17 0
BBX 19 28 0 -7
BITMAP
0000005ADFE000000000
00005DFFFFC000000000
001BFC9FFF9000000000
01CFA09FFF5000000000
0BFC10DFFF2000000000
5FF501FFFE0000000000
AFF004FFFB0000000000
CFC008FFF70000000000
BFC00BFFF40000000000
4FD00EFFF10000000000
02602FFFD00000000000
00006FFF900000000000
00009FFF6002BEB10000
0000CFFF300AFFF90000
0001FFFE000AFFF90000
0004FFFB0002BEB10000
0007FFF8000000000000
000BFFF5000000000000
000EFFF2000000000000
002FFFD0000000000000
006FFFFC600000000000
000138FFFC4000000000
0000002BFFFA20000000
000000007FFFF9410330
0000000005EFFFFFFF50
00000000003DFFFFFF20
000000000001BFFFFA00
00000000000006CEC100
ENDCHAR
STARTCHAR ldot
ENCODING 320
SWIDTH 353 0
DWIDTH 10 0
BBX 11 20 -1 0
BITMAP
000000020000
0001BDFE0000
0004FFFB0000
0007FFF80000
000BFFF50000
000EFFF10000
002FFFD00000
005FFFA00000
009FFF600000
00CFFF34EC20
01FFFE0BFF80
04FFFB0BFF90
07FFF804EC20
0AFFF5000000
0EFFF1000000
1FFFD0000000
3FFFE0000000
2FFFFEA00000
0CFFFF500000
02BED6000000
ENDCHAR
STARTCHAR Lslash
ENCODING 321
SWIDTH 392 0
DWIDTH 11 0
BBX 19 28 0 -7
BITMAP
0000016ADFE000000000
00007EFFFFC000000000
002DFA8FFF9000000000
03EF70AFFF6000000000
1DFA00DFFF3000000000
7FF301FFFE0040000000
BFE004FFFB4CB0000000
CFC008FFFEFC30000000
8FC00BFFFE6000000000
07A00EFFF20000000000
00005FFFD00000000000
001AFFFFA00000000000
005CCFFF600000000000
0010CFFF300000000000
0001FFFE000000000000
0004FFFB000000000000
0007FFF8000000000000
000AFFF5000000000000
000EFFF1000000000000
002FFFE0000000000000
006FFFFD700000000000
000138FFFD4000000000
0000002BFFFA20000000
000000007FFFF9410330
0000000005EFFFFFFF50
00000000003DFFFFFF20
000000000001BFFFFA00
00000000000006CEC100
ENDCHAR
STARTCHAR lslash
ENCODING 322
SWIDTH 286 0
DWIDTH 8 0
BBX 10 20 -1 0
BITMAP
0000002400
0001DFFE00
0004FFFB00
0007FFF800
000BFFF500
000EFFF107
002FFFD4DE
005FFFFFB3
009FFFD500
00CFFF3000
06FFFF0000
BFFFFC0000
B9FFF90000
0AFFF50000
0DFFF20000
1FFFE000B7
3FFFD005E1
2FFFF9AF60
0CFFFFF800
02BEEA4000
ENDCHAR
STARTCHAR Nacute
ENCODING 323
SWIDTH 702 0
DWIDTH 20 0
BBX 20 28 0 0
BITMAP
00000000000000005882
0000000000000002FFA0
0000000000000009FE10
000000000000002FF500
000000000000009FA000
00000000000000771000
00000000000000000000
000016BDFEA000000BFF
0006EFFFFFF200000EFC
009FF86FFFF500002FF8
08FF608FFFF900005FF5
2FFA00CFFFFC00008FF2
8FF300FFFFFF1000BFE0
BFF103FFFFFF4000EFA0
CFE007FFDFFF7002FF70
9FF00AFF6FFFB005FF40
2DF40DFD1FFFE008FF10
00332FFA0CFFF20BFC00
00005FF609FFF60EF900
00008FF305FFF93FF600
0000CFE001FFFC6FF300
0000FFB000DFFFAFE000
0003FF80009FFFFFB000
0006FF40006FFFFF8000
000AFF10002FFFFF5000
000DFC00000EFFFF1000
001FF900000AFFFD0000
005FF5000007FFFA0000
ENDCHAR
STARTCHAR nacute
ENCODING 324
SWIDTH 505 0
DWIDTH 14 0
BBX 17 21 -1 0
BITMAP
00000000005FF80000
0000000000CFD10000
0000000004FF400000
000000000BFA000000
000000003FE1000000
000000002530000000
000000000000000000
003FFFC5CEE9100000
006FFFEFFFFF900000
009FFFE55FFFE00000
00DFFF600EFFF00000
01FFFE101FFFD00000
04FFFB003FFFA00000
07FFF8006FFF700000
0AFFF500AFFF300000
0DFFF200DFFE000100
2FFFE001FFFB002F20
5FFFA002FFFB00AA00
8FFF7001FFFF9BF300
BFFF4000BFFFFF6000
EFFF10001AEEB40000
ENDCHAR
STARTCHAR Ncommaaccent
ENCODING 325
SWIDTH 668 0
DWIDTH 19 0
BBX 20 28 0 -7
BITMAP
000016BDFEA000000BFF
0006EFFFFFF200000EFC
009FF86FFFF500002FF8
08FF608FFFF900005FF5
2FFA00CFFFFC00008FF2
8FF300FFFFFF1000BFE0
BFF103FFFFFF4000EFA0
CFE007FFDFFF7002FF70
9FF00AFF6FFFB005FF40
2DF40DFD1FFFE008FF10
00332FFA0CFFF20BFC00
00005FF609FFF60EF900
00008FF305FFF93FF600
0000CFE001FFFC6FF300
0000FFB000DFFFAFE000
0003FF80009FFFFFB000
0006FF40006FFFFF8000
000AFF10002FFFFF5000
000DFC00000EFFFF1000
001FF900000AFFFD0000
005FF5000007FFFA0000
00000000000000000000
00000000000000000000
0000000BF70000000000
0000001FFD0000000000
00000007FA0000000000
00000005E20000000000
0000000C400000000000
ENDCHAR
STARTCHAR ncommaaccent
ENCODING 326
SWIDTH 505 0
DWIDTH 14 0
BBX 17 21 -1 -7
BITMAP
003FFFC5CEE9100000
006FFFEFFFFFA00000
009FFFE55FFFE00000
00DFFF600EFFE00000
01FFFE101FFFD00000
04FFFB003FFFA00000
07FFF8006FFF600000
0AFFF500AFFF200000
0DFFF200DFFE000410
2FFFE001FFFB003E10
5FFFA002FFFC01C900
8FFF7001FFFFEFE200
BFFF4000BFFFFF5000
EFFF10001AEEB30000
000000000000000000
000000000000000000
00009FA00000000000
0000DFF00000000000
00004FD00000000000
00002F400000000000
0000A6000000000000
ENDCHAR
STARTCHAR Ncaron
ENCODING 327
SWIDTH 668 0
DWIDTH 19 0
BBX 21 28 0 0
BITMAP
0000000000004300002720
0000000000005E2029E600
0000000000000ECAFE4000
0000000000000AFFD20000
00000000000005FB100000
0000000000000070000000
0000000000000000000000
000016BDFEA000000BFF00
0006EFFFFFF200000EFC00
009FF86FFFF500002FF800
08FF608FFFF900005FF500
2FFA00CFFFFC00008FF200
8FF300FFFFFF1000BFE000
BFF103FFFFFF4000EFA000
CFE007FFDFFF7002FF7000
9FF00AFF6FFFB005FF4000
2DF40DFD1FFFE008FF1000
00332FFA0CFFF20BFC0000
00005FF609FFF60EF90000
00008FF305FFF93FF60000
0000CFE001FFFC6FF30000
0000FFB000DFFFAFE00000
0003FF80009FFFFFB00000
0006FF40006FFFFF800000
000AFF10002FFFFF500000
000DFC00000EFFFF100000
001FF900000AFFFD000000
005FF5000007FFFA000000
ENDCHAR
STARTCHAR ncaron
ENCODING 328
SWIDTH 505 0
DWIDTH 14 0
BBX 17 21 -1 0
BITMAP
000000D40004B90000
0000008E13BF800000
0000003FEFF6000000
0000000EFE50000000
00000009E300000000
000000022000000000
000000000000000000
003FFFC5CEE9100000
006FFFEFFFFFA00000
009FFFE55FFFE00000
00DFFF600EFFE00000
01FFFE101FFFD00000
04FFFB003FFFA00000
07FFF8006FFF600000
0AFFF500AFFF200000
0DFFF200DFFE000410
2FFFE001FFFB003E10
5FFFA002FFFC01C900
8FFF7001FFFFEFE200
BFFF4000BFFFFF5000
EFFF10001AEEB30000
ENDCHAR
STARTCHAR napostrophe
ENCODING 329
SWIDTH 505 0
DWIDTH 14 0
BBX 17 21 -1 0
BITMAP
007EC1000000000000
00EFF6000000000000
007FF5000000000000
000ED0000000000000
005F30000000000000
007400000000000000
000000000000000000
003FFFC5CEE9100000
006FFFEFFFFFA00000
009FFFE55FFFE00000
00DFFF600EFFE00000
01FFFE101FFFD00000
04FFFB003FFFA00000
07FFF8006FFF600000
0AFFF500AFFF200000
0DFFF200DFFE000410
2FFFE001FFFB003E10
5FFFA002FFFC01C900
8FFF7001FFFFEFE200
BFFF4000BFFFFF5000
EFFF10001AEEB30000
ENDCHAR
STARTCHAR Eng
ENCODING 330
SWIDTH 723 0
DWIDTH 20 0
BBX 21 27 1 -6
BITMAP
0000049CEEC3000004FF70
0003CFFFFFF8000007FF40
005FFD5EFFFB00000AFF10
04FFB13FFFFE00000DFC00
0DFE106FFFFF20002FF800
4FF8009FFFFF60005FF500
8FF400DFFFFF90008FF200
8FF301FFDFFFC000CFD000
5FF405FF6EFFF100EFA000
0AF708FF2AFFF403FF6000
00230BFE06FFF706FF3000
00000FFA02FFFA0AFE0000
00003FF700DFFD0DFB0000
00007FF3009FFF3FF70000
0000AFF0005FFF9FF40000
0000EFC0001FFFFFF10000
0002FF80000CFFFFC00000
0005FF500008FFFF900000
0009FF100004FFFF500000
000CFD000000FFFF100000
001FF9000000BFFC000000
0000007B7000BFF6000000
000003FF5001FFD0000000
000005FF0008FF50000000
000001EF827FF800000000
0000004CFFFD6000000000
0000000024200000000000
ENDCHAR
STARTCHAR eng
ENCODING 331
SWIDTH 505 0
DWIDTH 14 0
BBX 13 21 -1 -7
BITMAP
003FFFB4BEE910
007FFFDFFFFF70
00AFFFF99FFFA0
00DFFF701FFFB0
01FFFE102FFFB0
04FFFB004FFF90
08FFF8006FFF60
0BFFF5009FFF30
0EFFF200CFFF10
2FFFD001FFFC00
5FFFA004FFF900
9FFF7007FFF600
CFFF400BFFF300
FFFF100EFFE000
000006CFFFB000
0003DA9FFF8000
002E409FFF4000
008800EFFE0000
009506FFF80000
005EBFFFC00000
0007DFD8100000
ENDCHAR
STARTCHAR Omacron
ENCODING 332
SWIDTH 665 0
DWIDTH 19 0
BBX 19 26 0 0
BITMAP
00000001AAAAAAAA9000
00000005FFFFFFFFA000
00000000000000000000
00000000000000000000
00000000000000000000
000000159CEFEC920000
000018EFFDBBDFFF6000
0005EFD6113107FFF300
007FF802AFF700CFFB00
05FF802EFF80008FFF10
1EFC00CFFD10006FFF40
5FF507FFF700006FFF50
8FF21FFFE100007FFF50
6FF07FFF9000008FFF50
1BF1DFFF400000AFFF30
0003FFFE000000DFFF00
0006FFFB000002FFFC00
000AFFF8000006FFF700
000CFFF500000CFFF300
000DFFF400003FFFB000
000EFFF30000BFFF4000
000EFFF40004FFFA0000
000BFFF7002DFFD10000
0006FFFE56DFFD200000
0000BFFFFFFFB1000000
000007CFEDA400000000
ENDCHAR
STARTCHAR omacron
ENCODING 333
SWIDTH 433 0
DWIDTH 12 0
BBX 17 19 -1 0
BITMAP
0000AAAAAAAAA00000
0003FFFFFFFFC00000
000000000000000000
000000000000000000
000000000000000000
000017CEFB30000000
0002DFFEBFE1000000
001DFFD10BF7000000
00BFFF401CFA003B60
04FFFC006FFD8CE600
0BFFF6004FFE951000
1FFFF1000CF7000000
4FFFD0000FF5000000
7FFFB0004FF1000000
8FFF9000AFB0000000
7FFFA003FF40000000
4FFFE45EF900000000
0BFFFFFF9000000000
007DFEB40000000000
ENDCHAR
STARTCHAR Obreve
ENCODING 334
SWIDTH 665 0
DWIDTH 19 0
BBX 19 27 0 0
BITMAP
00000000388100006850
000000005FF30002EF60
000000001FFC214DFB00
0000000005FFFFFE8000
00000000002687510000
00000000000000000000
000000159CEFEC920000
000018EFFDBBDFFF6000
0005EFD6113107FFF300
007FF802AFF700CFFB00
05FF802EFF80008FFF10
1EFC00CFFD10006FFF40
5FF507FFF700006FFF50
8FF21FFFE100007FFF50
6FF07FFF9000008FFF50
1BF1DFFF400000AFFF30
0003FFFE000000DFFF00
0006FFFB000002FFFC00
000AFFF8000006FFF700
000CFFF500000CFFF300
000DFFF400003FFFB000
000EFFF30000BFFF4000
000EFFF40004FFFA0000
000BFFF7002DFFD10000
0006FFFE56DFFD200000
0000BFFFFFFFB1000000
000007CFEDA400000000
ENDCHAR
STARTCHAR obreve
ENCODING 335
SWIDTH 433 0
DWIDTH 12 0
BBX 17 20 -1 0
BITMAP
0000FF800008FE0000
0000BFE4128FF60000
00002DFFFFFD400000
000000578630000000
000000000000000000
000000000000000000
000017CEFB30000000
0002DFFEBFE1000000
001DFFD10BF7000000
00BFFF401CFA003B60
04FFFC006FFD8CE600
0BFFF6004FFE951000
1FFFF1000CF7000000
4FFFD0000FF5000000
7FFFB0004FF1000000
8FFF9000AFB0000000
7FFFA003FF40000000
4FFFE45EF900000000
0BFFFFFF9000000000
007DFEB40000000000
ENDCHAR
STARTCHAR Ohungarumlaut
ENCODING 336
SWIDTH 665 0
DWIDTH 19 0
BBX 21 28 0 0
BITMAP
0000000000005FF70CFE20
000000000000CFA04FF400
000000000005FD10CF7000
00000000000DE205FA0000
00000000005F500CC10000
0000000000000000000000
0000000000000000000000
000000159CEFEC92000000
000018EFFDBBDFFF600000
0005EFD6113107FFF30000
007FF802AFF700CFFB0000
05FF802EFF80008FFF1000
1EFC00CFFD10006FFF4000
5FF507FFF700006FFF5000
8FF21FFFE100007FFF5000
6FF07FFF9000008FFF5000
1BF1DFFF400000AFFF3000
0003FFFE000000DFFF0000
0006FFFB000002FFFC0000
000AFFF8000006FFF70000
000CFFF500000CFFF30000
000DFFF400003FFFB00000
000EFFF30000BFFF400000
000EFFF40004FFFA000000
000BFFF7002DFFD1000000
0006FFFE56DFFD20000000
0000BFFFFFFFB100000000
000007CFEDA40000000000
ENDCHAR
STARTCHAR ohungarumlaut
ENCODING 337
SWIDTH 433 0
DWIDTH 12 0
BBX 17 21 -1 0
BITMAP
0000000BFE23FF9000
0000004FF40BFC0000
000000BF703FE20000
000004FA00BF400000
00000CD103F7000000
000000000000000000
000000000000000000
000017CEFB30000000
0002DFFEBFE1000000
001DFFD10BF7000000
00BFFF401CFA003B60
04FFFC006FFD8CE600
0BFFF6004FFE951000
1FFFF1000CF7000000
4FFFD0000FF5000000
7FFFB0004FF1000000
8FFF9000AFB0000000
7FFFA003FF40000000
4FFFE45EF900000000
0BFFFFFF9000000000
007DFEB40000000000
ENDCHAR
STARTCHAR OE
ENCODING 338
SWIDTH 846 0
DWIDTH 24 0
BBX 26 21 0 0
BITMAP
00000016ACEFEDBBEEFFFFFFF6
000029FFFDBBEFFFFFFFFFFFE1
0007FFC5379607FFF97ACDEC30
009FF706FFE200CFFB00000000
07FF606FFF50008FFF10000000
2FFA02EFFC00006FFF40000000
6FF40AFFF500006FFF50000000
8FF13FFFD000007FFF50000000
4FF08FFF8000008FFF40000000
0592EFFF4000009FFFFFFC0000
0003FFFE000000CFFFFFF80000
0007FFFB000001FFFB00000000
000AFFF8000005FFF700000000
000CFFF5000009FFF200000000
000DFFF400001EFFB000000000
000EFFF300007FFF4000000000
000EFFF30001EFFB0000000000
000BFFF50009FFE10000000000
0006FFFA007FFFFEEEEEE50000
0000BFFFCDFFFFFFFFFFF20000
000007CEFEFFFFFFFFFFE00000
ENDCHAR
STARTCHAR oe
ENCODING 339
SWIDTH 663 0
DWIDTH 19 0
BBX 22 14 -1 0
BITMAP
000017CEEB2007CEEB3000
0004EFFDBFD1CFFFBEE100
003EFFA00BFDFFF507F500
00CFFE102DFFFF9006F400
05FFF700AFFFFF200AE100
0AFFF2009FFFFB005F7000
0EFFD0000BFFF729F80000
1FFFA0000DFFFFFB400000
2FFF90003FFFF6200003B1
3FFF90009FFFF000001C60
2FFFD104FFFFF10001BA00
0EFFFFDFFBFFFB215DA000
08FFFFFF80BFFFFFF90000
007CFEB40018DFD9300000
ENDCHAR
STARTCHAR Racute
ENCODING 340
SWIDTH 601 0
DWIDTH 17 0
BBX 17 28 0 0
BITMAP
0000000000006FF700
000000000000DFC000
000000000006FF2000
00000000000DF70000
00000000006FB00000
000000000000000000
000000000000000000
0000016ADFEDA50000
00007EFFDBBDFFC100
002DFD6100007FFC00
03EFB15ACE700CFF30
1EFC10CFFF3009FF50
7FF500FFFF000BFF30
CFE003FFFC002FFC00
BFC007FFF800BFE300
7FC00AFFF53BFE4000
06900DFFFFFFFC3000
00001FFFD12DFFE000
00005FFF9008FFF300
00008FFF6008FFF300
0000BFFF300BFFF100
0000EFFF000EFFD000
0003FFFC003FFF9000
0006FFF9007FFF6000
0009FFF600BFFF2000
000DFFF300DFFE0000
001FFFE000EFFE0000
004FFFB0006EFF6000
ENDCHAR
STARTCHAR racute
ENCODING 341
SWIDTH 376 0
DWIDTH 11 0
BBX 12 21 -1 0
BITMAP
000000001EFD
000000007FF4
00000000DF90
00000006FE10
0000000DF500
000000154000
000000000000
003FFFC2AED4
006FFFDEFFFC
009FFFE68FFC
00DFFF301ED4
01FFFE000000
04FFFB000000
07FFF8000000
0AFFF5000000
0DFFF2000000
2FFFE0000000
5FFFA0000000
8FFF70000000
BFFF40000000
EFFF10000000
ENDCHAR
STARTCHAR Rcommaaccent
ENCODING 342
SWIDTH 601 0
DWIDTH 17 0
BBX 17 28 0 -7
BITMAP
0000016ADFEDA50000
00007EFFDBBDFFC100
002DFD6100007FFC00
03EFB15ACE700CFF30
1EFC10CFFF3009FF50
7FF500FFFF000BFF30
CFE003FFFC002FFC00
BFC007FFF800BFE300
7FC00AFFF53BFE4000
06900DFFFFFFFC3000
00001FFFD12DFFE000
00005FFF9008FFF300
00008FFF6008FFF300
0000BFFF300BFFF100
0000EFFF000EFFD000
0003FFFC003FFF9000
0006FFF9007FFF6000
0009FFF600BFFF2000
000DFFF300DFFE0000
001FFFE000EFFE0000
004FFFB0006EFF6000
000000000000000000
000000066000000000
0000007FF500000000
0000004FF600000000
0000000AE100000000
0000002E5000000000
000000240000000000
ENDCHAR
STARTCHAR rcommaaccent
ENCODING 343
SWIDTH 376 0
DWIDTH 11 0
BBX 12 21 -1 -7
BITMAP
003FFFC2AED4
006FFFDEFFFC
009FFFE68FFC
00DFFF301ED4
01FFFE000000
04FFFB000000
07FFF8000000
0AFFF5000000
0DFFF2000000
2FFFE0000000
5FFFA0000000
8FFF70000000
BFFF40000000
EFFF10000000
000000000000
000000000000
006EC1000000
00AFF4000000
002EF1000000
000D80000000
007900000000
ENDCHAR
STARTCHAR Rcaron
ENCODING 344
SWIDTH 601 0
DWIDTH 17 0
BBX 18 28 0 0
BITMAP
0000000003D10017D4
0000000000DA18ED20
00000000008FFFB100
00000000003FF90000
00000000000D700000
000000000000000000
000000000000000000
0000016ADFEDA50000
00007EFFDBBDFFC100
002DFD6100007FFC00
03EFB15ACE700CFF30
1EFC10CFFF3009FF50
7FF500FFFF000BFF30
CFE003FFFC002FFC00
BFC007FFF800BFE300
7FC00AFFF53BFE4000
06900DFFFFFFFC3000
00001FFFD12DFFE000
00005FFF9008FFF300
00008FFF6008FFF300
0000BFFF300BFFF100
0000EFFF000EFFD000
0003FFFC003FFF9000
0006FFF9007FFF6000
0009FFF600BFFF2000
000DFFF300DFFE0000
001FFFE000EFFE0000
004FFFB0006EFF6000
ENDCHAR
STARTCHAR rcaron
ENCODING 345
SWIDTH 376 0
DWIDTH 11 0
BBX 13 21 -1 0
BITMAP
00005B00018D30
00001F717ED200
00000BFEFC1000
000006FFB10000
000001FA000000
00000040000000
00000000000000
003FFFC2AED400
006FFFDEFFFC00
009FFFE68FFC00
00DFFF301ED400
01FFFE00000000
04FFFB00000000
07FFF800000000
0AFFF500000000
0DFFF200000000
2FFFE000000000
5FFFA000000000
8FFF7000000000
BFFF4000000000
EFFF1000000000
ENDCHAR
STARTCHAR Sacute
ENCODING 346
SWIDTH 570 0
DWIDTH 16 0
BBX 15 28 1 0
BITMAP
00000000000AFF30
00000000003FF700
0000000000AFC000
0000000003FF3000
000000000BF70000
0000000000000000
0000000000000000
0000006BEFEB4000
00002DFFEBCFF800
0001DFFD2008FF30
0007FFF60004FF70
000AFFF50006FF60
000AFFF8002EFF20
0007FFFE20068300
0001EFFFC1000000
00005FFFFB000000
000009FFFFA00000
000000BFFFF80000
0000001CFFFF3000
029DC502EFFFC000
2EFFFE207FFFF300
AFFE50001FFFF500
EFF600000DFFF400
FFF200000EFFF200
DFF500005FFFA000
7FFD3016EFFD1000
09FFFFFFFFA20000
004ADFED94000000
ENDCHAR
STARTCHAR sacute
ENCODING 347
SWIDTH 382 0
DWIDTH 11 0
BBX 13 21 -1 0
BITMAP
000000000BFF20
000000003FF800
00000000AFD000
00000002FF4000
00000009F90000
00000006610000
00000357920000
00003FFFF30000
00008FFFF40000
0000DFFFF50000
0004ECFFF60000
000BAAFFF70000
002F49FFF80000
00AC08FFF90000
03F506FFFA0000
3EF305FFFB0000
BFF804FFFC0750
DCA206FFFCC800
BD001CFFFD4000
3FDBEFFF810000
03BEFDA3000000
ENDCHAR
STARTCHAR Scircumflex
ENCODING 348
SWIDTH 570 0
DWIDTH 16 0
BBX 15 28 1 0
BITMAP
00000000000AA000
0000000001CFE100
000000003DFFF500
00000004ED61DA00
0000006D60002E10
0000000000000000
0000000000000000
0000006BEFEB4000
00002DFFEBCFF800
0001DFFD2008FF30
0007FFF60004FF70
000AFFF50006FF60
000AFFF8002EFF20
0007FFFE20068300
0001EFFFC1000000
00005FFFFB000000
000009FFFFA00000
000000BFFFF80000
0000001CFFFF3000
029DC502EFFFC000
2EFFFE207FFFF300
AFFE50001FFFF500
EFF600000DFFF400
FFF200000EFFF200
DFF500005FFFA000
7FFD3016EFFD1000
09FFFFFFFFA20000
004ADFED94000000
ENDCHAR
STARTCHAR scircumflex
ENCODING 349
SWIDTH 382 0
DWIDTH 11 0
BBX 13 21 -1 0
BITMAP
00000000A90000
0000001BFD0000
000001CFFF3000
00002DFA5F8000
0003EB3007C000
00053000006000
00000357920000
00003FFFF30000
00008FFFF40000
0000DFFFF50000
0004ECFFF60000
000BAAFFF70000
002F49FFF80000
00AC08FFF90000
03F506FFFA0000
3EF305FFFB0000
BFF804FFFC0750
DCA206FFFCC800
BD001CFFFD4000
3FDBEFFF810000
03BEFDA3000000
ENDCHAR
STARTCHAR Scedilla
ENCODING 350
SWIDTH 570 0
DWIDTH 16 0
BBX 15 27 1 -6
BITMAP
0000006BEFEB4000
00002DFFEBCFF800
0001DFFD2008FF30
0007FFF60004FF70
000AFFF50006FF60
000BFFF7002EFF20
0008FFFE10079400
0002FFFFB0000000
00007FFFFA000000
00000AFFFF900000
000001CFFFF70000
0000002DFFFF4000
018BA403FFFFC000
1DFFFF208FFFF200
9FFF72001FFFF500
EFF700000DFFF500
FFF300000EFFF200
EFF400004FFFB000
8FFC1003DFFE2000
1BFFEBCFFFC30000
006CEFFDB6000000
00000D5000000000
00004FAB70000000
00009CEFF5000000
0000003FF6000000
0009317FD1000000
0004CFE920000000
ENDCHAR
STARTCHAR scedilla
ENCODING 351
SWIDTH 382 0
DWIDTH 11 0
BBX 13 21 -1 -6
BITMAP
00000357920000
00003FFFF30000
00008FFFF40000
0000DFFFF50000
0004ECFFF60000
000A9AFFF70000
002F39FFF80000
009A07FFF90000
03F306FFFA0000
2DF505FFFB0000
AFF704FFFC1C50
DC6107FFFDD500
BE315EFFFC2000
3FFFFFFF800000
03BFFDA3000000
001E3000000000
006E6720000000
00CFFFE1000000
00319FF2000000
1821AFB0000000
07DFD810000000
ENDCHAR
STARTCHAR Scaron
ENCODING 352
SWIDTH 570 0
DWIDTH 16 0
BBX 17 28 1 0
BITMAP
000000002E10006D50
000000000CC17EE300
0000000007FFFC2000
0000000002FFB10000
0000000000C9000000
000000000000000000
000000000000000000
0000006BEFEB400000
00002DFFEBCFF80000
0001DFFD2008FF3000
0007FFF60004FF7000
000AFFF50006FF6000
000AFFF8002EFF2000
0007FFFE2006830000
0001EFFFC100000000
00005FFFFB00000000
000009FFFFA0000000
000000BFFFF8000000
0000001CFFFF300000
029DC502EFFFC00000
2EFFFE207FFFF30000
AFFE50001FFFF50000
EFF600000DFFF40000
FFF200000EFFF20000
DFF500005FFFA00000
7FFD3016EFFD100000
09FFFFFFFFA2000000
004ADFED9400000000
ENDCHAR
STARTCHAR scaron
ENCODING 353
SWIDTH 369 0
DWIDTH 10 0
BBX 13 21 -1 0
BITMAP
00000E30005C80
00000AC14CF600
000005FEFE4000
000001FFE30000
000000BD200000
00000021000000
00000579B20000
00003FFFF40000
00008FFFF40000
0000EFFFF50000
0005EBFFF60000
000B8AFFF70000
003F29FFF80000
00AA07FFF90000
03F206FFFB0000
3EF605FFFC0110
BFF605FFFB3D40
DB3008FFFEE400
BF537FFFFB2000
3FFFFFFF600000
03BEFD93000000
ENDCHAR
STARTCHAR uni0162
ENCODING 354
SWIDTH 481 0
DWIDTH 13 0
BBX 21 27 0 -6
BITMAP
000016ADEFEB7100000310
0007EFFFFFFFFE94117E00
00AFFA53BFFFFFFFFFFC00
08FF5000EFFFFFFFFFF500
1FF80002FFFF88BDEC6000
7FF20005FFFF1000000000
AFE00008FFFC0000000000
CFC0000BFFF80000000000
BFC0000EFFF50000000000
7FC0003FFFF10000000000
07A0006FFFD00000000000
0000009FFF900000000000
000000CFFF600000000000
000001FFFF200000000000
000004FFFE000000000000
000007FFFA000000000000
00000AFFF7000000000000
00000DFFF3000000000000
00001FFFF0000000000000
00004FFFC0000000000000
00008FFF80000000000000
000002F200000000000000
000008C661000000000000
00000EEFFC000000000000
0000110BFF000000000000
0003821CF9000000000000
00019EFD70000000000000
ENDCHAR
STARTCHAR uni0163
ENCODING 355
SWIDTH 267 0
DWIDTH 7 0
BBX 10 25 -1 -6
BITMAP
0000002400
0004DFFB00
0008FFF700
000BFFF400
000EFFF100
01FFFFFF80
02CFFFEA40
008FFF8000
00BFFF5000
00EFFF1000
03FFFD0000
06FFF90000
0AFFF60000
0DFFF30000
1FFFE000A6
3FFFD005E1
2FFFFABF60
0DFFFFF800
02DFEA4000
00D6000000
03F7840000
09DFFF3000
0105FF5000
9318FD1000
5CFE910000
ENDCHAR
STARTCHAR Tcaron
ENCODING 356
SWIDTH 481 0
DWIDTH 13 0
BBX 21 28 0 0
BITMAP
0000000007000004600000
000000000B9005CC200000
0000000006F9DFB1000000
0000000001FFF900000000
0000000000BF6000000000
0000000000440000000000
0000000000000000000000
000016ADEFEB7100000310
0007EFFFFFFFFE94117E00
00AFFA53BFFFFFFFFFFC00
08FF5000EFFFFFFFFFF500
1FF80002FFFF88BDEC6000
7FF20005FFFF1000000000
AFE00008FFFC0000000000
CFC0000BFFF80000000000
BFC0000EFFF50000000000
7FC0003FFFF10000000000
07A0006FFFD00000000000
0000009FFF900000000000
000000CFFF600000000000
000001FFFF200000000000
000004FFFE000000000000
000007FFFA000000000000
00000AFFF7000000000000
00000DFFF3000000000000
00001FFFF0000000000000
00004FFFC0000000000000
00008FFF80000000000000
ENDCHAR
STARTCHAR tcaron
ENCODING 357
SWIDTH 267 0
DWIDTH 7 0
BBX 13 21 -1 0
BITMAP
0000000006ED20
000000000CFF80
0000000106FF60
0003BDEB00CE10
0008FFF803F500
000BFFF4065000
000EFFF1000000
01FFFFFF800000
02CFFFEA400000
008FFF80000000
00BFFF50000000
00EFFF10000000
03FFFD00000000
06FFF900000000
0AFFF600000000
0DFFF300000000
1FFFE000A60000
3FFFD005E10000
2FFFFABF600000
0CFFFFF8000000
02BEEA40000000
ENDCHAR
STARTCHAR Tbar
ENCODING 358
SWIDTH 481 0
DWIDTH 13 0
BBX 21 21 0 0
BITMAP
000016ADEFEB7100000310
0008FFFFFFFFFE94117E00
01CFFA53BFFFFFFFFFFC00
0AFF4000EFFFBFFFFFF500
2FF70002FFFF117CEC6000
8FF10005FFFD0000000000
BFD00008FFF90000000000
CFC0000BFFF60000000000
AFC0000EFFF20000000000
3DD0002FFFE00000000000
0030005FFFB00000000000
0000009FFF700000000000
008FFFFFFFFFFFC0000000
007AAAFFFFAAAA70000000
000002FFFD000000000000
000006FFFA000000000000
000009FFF6000000000000
00000DFFF3000000000000
00001FFFE0000000000000
00004FFFB0000000000000
00008FFF80000000000000
ENDCHAR
STARTCHAR tbar
ENCODING 359
SWIDTH 267 0
DWIDTH 7 0
BBX 10 19 -1 0
BITMAP
0000002400
0004DFFB00
0008FFF700
000BFFF400
000EFFF100
01FFFFFF80
02CFFFDA40
008FFF7000
4FFFFFFF50
5AFFFFAA10
03FFFD0000
06FFFA0000
09FFF60000
0DFFF30000
1FFFE00096
3FFFD005E1
2FFFFAAF70
0CFFFFF800
02BEEA4000
ENDCHAR
STARTCHAR Utilde
ENCODING 360
SWIDTH 716 0
DWIDTH 20 0
BBX 23 26 -1 0
BITMAP
0000000000004BEEC8312400
000000000007FFFFFFFFE200
00000000003414AFFFFC3000
000000000000000267400000
000000000000000000000000
00000016ADEF900000DFFF10
000018FEEFFF700002FFFD00
0004EF71CFFF200005FFFA00
006FE401FFFD000008FFF600
03FF6004FFF900000BFFF300
0BFE0008FFF500000EFFF000
1FFA000CFFF100003FFFC000
1FF8001FFFC000006FFF8000
0DF7005FFF800000AFFF5000
03A8009FFF400000DFFF2000
000000CFFE000001FFFE0000
000001FFFB000005FFFA0000
000004FFF7000009FFF60000
000007FFF400000DFFF20000
000009FFF200003FFFC00000
00000BFFF100008FFF700000
00000CFFF10001EFFE100000
00000BFFF6001AFFF7000000
000007FFFFCCEFFFB0000000
000001DFFFFFFFFA10000000
00000018CEFED94000000000
ENDCHAR
STARTCHAR utilde
ENCODING 361
SWIDTH 505 0
DWIDTH 14 0
BBX 17 19 -1 0
BITMAP
000005BEEC83124000
00009FFFFFFFFC1000
00033126BEFC700000
000000000000000000
000000000000000000
003FFFC004FFFB0000
006FFF9008FFF80000
009FFF600BFFF50000
00DFFF300EFFF20000
01FFFE002FFFD00000
04FFFB005FFFA00000
07FFF8009FFF700000
0BFFF500CFFF400000
0EFFF200FFFF100100
2FFFE005FFFD002F10
3FFFD01DFFFC00AA00
2FFFFBDCFFFFBDE200
0CFFFFE2BFFFFE4000
02BEE9102BEE920000
ENDCHAR
STARTCHAR Umacron
ENCODING 362
SWIDTH 716 0
DWIDTH 20 0
BBX 23 26 -1 0
BITMAP
000000000004AAAAAAAA7000
000000000009FFFFFFFF6000
000000000000000000000000
000000000000000000000000
000000000000000000000000
00000016ADEF900000DFFF10
000018FEEFFF700002FFFD00
0004EF71CFFF200005FFFA00
006FE401FFFD000008FFF600
03FF6004FFF900000BFFF300
0BFE0008FFF500000EFFF000
1FFA000CFFF100003FFFC000
1FF8001FFFC000006FFF8000
0DF7005FFF800000AFFF5000
03A8009FFF400000DFFF2000
000000CFFE000001FFFE0000
000001FFFB000005FFFA0000
000004FFF7000009FFF60000
000007FFF400000DFFF20000
000009FFF200003FFFC00000
00000BFFF100008FFF700000
00000CFFF10001EFFE100000
00000BFFF6001AFFF7000000
000007FFFFCCEFFFB0000000
000001DFFFFFFFFA10000000
00000018CEFED94000000000
ENDCHAR
STARTCHAR umacron
ENCODING 363
SWIDTH 505 0
DWIDTH 14 0
BBX 17 19 -1 0
BITMAP
00005AAAAAAAA50000
0000AFFFFFFFF50000
000000000000000000
000000000000000000
000000000000000000
003FFFC004FFFB0000
006FFF9008FFF80000
009FFF600BFFF50000
00DFFF300EFFF20000
01FFFE002FFFD00000
04FFFB005FFFA00000
07FFF8009FFF700000
0BFFF500CFFF400000
0EFFF200FFFF100100
2FFFE005FFFD002F10
3FFFD01DFFFC00AA00
2FFFFBDCFFFFBDE200
0CFFFFE2BFFFFE4000
02BEE9102BEE920000
ENDCHAR
STARTCHAR Ubreve
ENCODING 364
SWIDTH 716 0
DWIDTH 20 0
BBX 23 27 -1 0
BITMAP
000000000004870000068400
000000000006FF20003FF500
000000000002FFB215DFA000
0000000000006FFFFFE70000
000000000000026875100000
000000000000000000000000
00000016ADEF900000DFFF10
000018FEEFFF700002FFFD00
0004EF71CFFF200005FFFA00
006FE401FFFD000008FFF600
03FF6004FFF900000BFFF300
0BFE0008FFF500000EFFF000
1FFA000CFFF100003FFFC000
1FF8001FFFC000006FFF8000
0DF7005FFF800000AFFF5000
03A8009FFF400000DFFF2000
000000CFFE000001FFFE0000
000001FFFB000005FFFA0000
000004FFF7000009FFF60000
000007FFF400000DFFF20000
000009FFF200003FFFC00000
00000BFFF100008FFF700000
00000CFFF10001EFFE100000
00000BFFF6001AFFF7000000
000007FFFFCCEFFFB0000000
000001DFFFFFFFFA10000000
00000018CEFED94000000000
ENDCHAR
STARTCHAR ubreve
ENCODING 365
SWIDTH 505 0
DWIDTH 14 0
BBX 17 20 -1 0
BITMAP
0000AFD00003FF4000
00006FF7115EFA0000
00000AFFFFFE700000
000000368741000000
000000000000000000
000000000000000000
003FFFC004FFFB0000
006FFF9008FFF80000
009FFF600BFFF50000
00DFFF300EFFF20000
01FFFE002FFFD00000
04FFFB005FFFA00000
07FFF8009FFF700000
0BFFF500CFFF400000
0EFFF200FFFF100100
2FFFE005FFFD002F10
3FFFD01DFFFC00AA00
2FFFFBDCFFFFBDE200
0CFFFFE2BFFFFE4000
02BEE9102BEE920000
ENDCHAR
STARTCHAR Uring
ENCODING 366
SWIDTH 716 0
DWIDTH 20 0
BBX 23 27 -1 0
BITMAP
000000000000005DE4000000
00000000000001E34D000000
00000000000005C01F000000
00000000000004D15C000000
000000000000009EC3000000
000000000000000000000000
00000016ADEF900000DFFF10
000018FEEFFF700002FFFD00
0004EF71CFFF200005FFFA00
006FE401FFFD000008FFF600
03FF6004FFF900000BFFF300
0BFE0008FFF500000EFFF000
1FFA000CFFF100003FFFC000
1FF8001FFFC000006FFF8000
0DF7005FFF800000AFFF5000
03A8009FFF400000DFFF2000
000000CFFE000001FFFE0000
000001FFFB000005FFFA0000
000004FFF7000009FFF60000
000007FFF400000DFFF20000
000009FFF200003FFFC00000
00000BFFF100008FFF700000
00000CFFF10001EFFE100000
00000BFFF6001AFFF7000000
000007FFFFCCEFFFB0000000
000001DFFFFFFFFA10000000
00000018CEFED94000000000
ENDCHAR
STARTCHAR uring
ENCODING 367
SWIDTH 505 0
DWIDTH 14 0
BBX 17 19 -1 0
BITMAP
00000007EE50000000
0000003E23E0000000
0000005D14D0000000
0000001BED40000000
000000000000000000
003FFFC004FFFB0000
006FFF9008FFF80000
009FFF600BFFF50000
00DFFF300EFFF20000
01FFFE002FFFD00000
04FFFB005FFFA00000
07FFF8009FFF700000
0BFFF500CFFF400000
0EFFF200FFFF100100
2FFFE005FFFD002F10
3FFFD01DFFFC00AA00
2FFFFBDCFFFFBDE200
0CFFFFE2BFFFFE4000
02BEE9102BEE920000
ENDCHAR
STARTCHAR Uhungarumlaut
ENCODING 368
SWIDTH 716 0
DWIDTH 20 0
BBX 23 28 -1 0
BITMAP
000000000000001EFC16FF60
000000000000007FE20DF900
00000000000001EF406FC000
00000000000007F701EE2000
0000000000001EA007F40000
000000000000000000000000
000000000000000000000000
00000016ADEF900000DFFF10
000018FEEFFF700002FFFD00
0004EF71CFFF200005FFFA00
006FE401FFFD000008FFF600
03FF6004FFF900000BFFF300
0BFE0008FFF500000EFFF000
1FFA000CFFF100003FFFC000
1FF8001FFFC000006FFF8000
0DF7005FFF800000AFFF5000
03A8009FFF400000DFFF2000
000000CFFE000001FFFE0000
000001FFFB000005FFFA0000
000004FFF7000009FFF60000
000007FFF400000DFFF20000
000009FFF200003FFFC00000
00000BFFF100008FFF700000
00000CFFF10001EFFE100000
00000BFFF6001AFFF7000000
000007FFFFCCEFFFB0000000
000001DFFFFFFFFA10000000
00000018CEFED94000000000
ENDCHAR
STARTCHAR uhungarumlaut
ENCODING 369
SWIDTH 505 0
DWIDTH 14 0
BBX 17 21 -1 0
BITMAP
00000009FF42FFB000
0000002FF609FD1000
0000009F902FE30000
000002FC109F500000
00000AE202F9000000
000000000000000000
000000000000000000
003FFFC004FFFB0000
006FFF9008FFF80000
009FFF600BFFF50000
00DFFF300EFFF20000
01FFFE002FFFD00000
04FFFB005FFFA00000
07FFF8009FFF700000
0BFFF500CFFF400000
0EFFF200FFFF100100
2FFFE005FFFD002F10
3FFFD01DFFFC00AA00
2FFFFBDCFFFFBDE200
0CFFFFE2BFFFFE4000
02BEE9102BEE920000
ENDCHAR
STARTCHAR Uogonek
ENCODING 370
SWIDTH 716 0
DWIDTH 20 0
BBX 23 34 -1 -6
BITMAP
0000000000007FF500000000
0000000000002FF800000000
0000000000000DFA00000000
00000000000008FD00000000
00000000000003FF00000000
000000000000000000000000
000000000000000000000000
00000016ADEF900000DFFF10
000018FEDFFF600002FFFD00
0004EE60CFFF200005FFFA00
006FE301FFFD000008FFF600
04FF6004FFF900000CFFF300
0BFD0008FFF500000FFFF000
1FF9000CFFF100003FFFC000
1FF8001FFFB000006FFF9000
0DF7005FFF700000AFFF5000
0298008FFF300000DFFF2000
000000CFFE000002FFFE0000
000001FFFB000006FFFA0000
000004FFF7000009FFF60000
000007FFF400000EFFF20000
000009FFF200004FFFD00000
00000BFFF100009FFF700000
00000CFFF20002FFFF100000
00000BFFF8002CFFF8000000
000008FFFFEEFFFFC0000000
000002EFFFFFFFFB10000000
0000002AEFFFEB5000000000
000000001CC0000000000000
00000000AF50000000000000
00000001FF30000000000000
00000001FFA13B1000000000
00000000AFFFF70000000000
0000000007A8300000000000
ENDCHAR
STARTCHAR uogonek
ENCODING 371
SWIDTH 505 0
DWIDTH 14 0
BBX 17 20 -1 -6
BITMAP
003FFFC004FFFB0000
006FFF9008FFF80000
009FFF600BFFF50000
00DFFF300EFFF20000
01FFFE002FFFD00000
04FFFB005FFFA00000
07FFF8009FFF700000
0BFFF500CFFF400000
0EFFF200FFFF100100
2FFFE005FFFD002F10
3FFFD01DFFFC00A900
2FFFFBDCFFFFBDE200
0CFFFFE2BFFFFE4000
02BEE9102CFE920000
000000001CC0000000
00000000AF50000000
00000001FF30000000
00000001FFA13C1000
00000000BFFFF70000
0000000018BA400000
ENDCHAR
STARTCHAR Wcircumflex
ENCODING 372
SWIDTH 962 0
DWIDTH 27 0
BBX 29 28 0 0
BITMAP
000000000000000000003400000000
00000000000000000005EC00000000
0000000000000000007FFF20000000
00000000000000000AFD9F70000000
0000000000000001CD6008C0000000
000000000000000650000071000000
000000000000000000000000000000
0000016ADFF200000EFFC000004FB0
00006EFFFFF200004FFFC000009F50
002CFA3FFFF200009FFFD00000EE00
02DF800FFFF20000EFFFD00004F900
1DFB000FFFF30004FFFFD00009F300
7FF3000FFFF30009FFFFD0000ED000
BFE0000EFFF3000EFFFFD0004F7000
CFC0000EFFF3005FBFFFE0009F2000
9FC0000EFFF400AF5FFFE000EB0000
1AC0000DFFF400EB3FFFE004F60000
0000000DFFF405F52FFFE00AE10000
0000000DFFF40AE02FFFF00E900000
0000000CFFF51E902FFFF05F400000
0000000CFFF55F301FFFF0AD000000
0000000CFFF5AD001FFFF1E8000000
0000000BFFF6F7001FFFF6F2000000
0000000BFFFBF2000FFFFBC0000000
0000000AFFFFB0000FFFFF60000000
0000000AFFFF50000FFFFF10000000
0000000AFFFE10000EFFFA00000000
00000009FFF900000EFFF400000000
ENDCHAR
STARTCHAR wcircumflex
ENCODING 373
SWIDTH 661 0
DWIDTH 19 0
BBX 20 21 -1 0
BITMAP
0000000000009A000000
000000000009FE000000
0000000000AFFF400000
000000000AFE8F800000
00000000AE8108C00000
00000007920000A10000
00000000000000000000
003FFFC004FFFB01CE70
006FFF9008FFF806FFE0
009FFF600BFFF502CDF1
00DFFF300EFFF20009F0
01FFFE002FFFD0000BD0
04FFFB005FFFA0001FB0
07FFF8009FFF70005F70
0BFFF500CFFF4000BF30
0EFFF200FFFF1003FB00
2FFFE005FFFD000CF500
3FFFE01DFFFC009FB000
2FFFFBDEFFFFBDFE1000
0CFFFFE2DFFFFFE30000
02BEE9202AEED8100000
ENDCHAR
STARTCHAR Ycircumflex
ENCODING 374
SWIDTH 620 0
DWIDTH 17 0
BBX 20 28 0 0
BITMAP
00000000000000052000
000000000000009F7000
0000000000001BFFC000
000000000002DFBBF300
00000000004EB301D800
00000000017300002600
00000000000000000000
0000016ADFF3000008F5
00006EFFFFF700000DD0
002CFA2EFFFB00005F70
02DF800AFFFE0000BE10
1DFB0006FFFF3002F800
7FF30002FFFF6008F200
BFE00000DFFFA01EA000
CFC000009FFFE06F3000
9FC000006FFFF2CC0000
1AC000002FFFF9F50000
000000000DFFFFD00000
0000000009FFFF700000
0000000007FFFF100000
0000000009FFFD000000
000000000CFFFA000000
000000001FFFF6000000
000000004FFFF3000000
000000007FFFF0000000
00000000AFFFC0000000
00000000EFFF90000000
00000002FFFF60000000
ENDCHAR
STARTCHAR ycircumflex
ENCODING 375
SWIDTH 505 0
DWIDTH 14 0
BBX 16 28 -1 -7
BITMAP
0000000004E10000
000000005FF60000
00000007FFFB0000
0000008FD5AF1000
00000AD6001D5000
0000240000023000
0000000000000000
003FFFC004FFFB00
006FFF9008FFF800
009FFF600BFFF500
00DFFF300EFFF100
01FFFE002FFFD000
04FFFB006FFFA000
07FFF8009FFF7000
0BFFF500CFFF3000
0EFFF201FFFF1011
2FFFE005FFFC00A9
3FFFE01DFFF902F3
2FFFFBEFFFF61C90
0CFFFFDFFFF7DB10
02BEE93FFFFD7000
000017DFFFC00000
0005EECFFF800000
004F91BFFF500000
00AD01EFFF100000
00BE4AFFF9000000
007FFFFFD1000000
0007DFD810000000
ENDCHAR
STARTCHAR Ydieresis
ENCODING 376
SWIDTH 620 0
DWIDTH 17 0
BBX 20 26 0 0
BITMAP
00000000001BE701BE80
00000000005FFF04FFF0
00000000001CE801BE80
00000000000000000000
00000000000000000000
0000016ADFF3000008F5
00006EFFFFF700000DD0
002CFA2EFFFB00005F70
02DF800AFFFE0000BE10
1DFB0006FFFF3002F800
7FF30002FFFF6008F200
BFE00000DFFFA01EA000
CFC000009FFFE06F3000
9FC000006FFFF2CC0000
1AC000002FFFF9F50000
000000000DFFFFD00000
0000000009FFFF700000
0000000007FFFF100000
0000000009FFFD000000
000000000CFFFA000000
000000001FFFF6000000
000000004FFFF3000000
000000007FFFF0000000
00000000AFFFC0000000
00000000EFFF90000000
00000002FFFF60000000
ENDCHAR
STARTCHAR Zacute
ENCODING 377
SWIDTH 542 0
DWIDTH 15 0
BBX 16 28 0 0
BITMAP
0000000000003884
000000000000CFE1
000000000005FF50
00000000000CF900
00000000005FD100
0000000000583000
0000000000000000
0003BEFFFFFFFFF3
002EFDBAAAFFFFB0
007FF40005FFFF30
008FF6000CFFFB00
002A91005FFFF300
00000000CFFFB000
00000005FFFF3000
0000000CFFFB0000
0000005FFFF30000
000000DFFFB00000
000005FFFF300000
00000DFFFB000000
00006FFFF3000000
0000DFFFB0000000
0006FFFF30000000
000DFFFB00000000
006FFFF30005B500
00DFFFB0001FFE00
06FFFF30000DFD00
0DFFFEAAABDFF500
7FFFFFFFFFFC5000
ENDCHAR
STARTCHAR zacute
ENCODING 378
SWIDTH 428 0
DWIDTH 12 0
BBX 12 21 0 0
BITMAP
000000003FFA
00000000AFE2
00000002FF60
00000009FC00
0000002FF200
000000253000
000000000000
002BEFFFFFFB
01DFCAAFFFF2
05FF405FFF90
05FF21DFFE10
003207FFF700
00002EFFD000
0000AFFF5000
0004FFFB0000
000CFFF30000
006FFF900100
01EFFE109F90
08FFF700BFC0
2FFFFDBBEF50
BFFFFFFFC500
ENDCHAR
STARTCHAR Zdotaccent
ENCODING 379
SWIDTH 530 0
DWIDTH 15 0
BBX 16 26 0 0
BITMAP
000000003DE40000
000000009FFB0000
000000003DE50000
0000000000000000
0000000000000000
0003BEFFFFFFFFF3
002EFDBAAAFFFFB0
007FF40005FFFF30
008FF6000CFFFB00
002A91005FFFF300
00000000CFFFB000
00000005FFFF3000
0000000CFFFB0000
0000005FFFF30000
000000DFFFB00000
000005FFFF300000
00000DFFFB000000
00006FFFF3000000
0000DFFFB0000000
0006FFFF30000000
000DFFFB00000000
006FFFF30005B500
00DFFFB0001FFE00
06FFFF30000DFD00
0DFFFEAAABDFF500
7FFFFFFFFFFC5000
ENDCHAR
STARTCHAR zdotaccent
ENCODING 380
SWIDTH 428 0
DWIDTH 12 0
BBX 12 19 0 0
BITMAP
0000006EC200
000000CFF700
0000006ED200
000000000000
000000000000
002BEFFFFFFB
01DFCAAFFFF2
05FF405FFF90
05FF21DFFE10
003207FFF700
00002EFFD000
0000AFFF5000
0004FFFB0000
000CFFF30000
006FFF900100
01EFFE109F90
08FFF700BFC0
2FFFFDBBEF50
BFFFFFFFC500
ENDCHAR
STARTCHAR Zcaron
ENCODING 381
SWIDTH 542 0
DWIDTH 15 0
BBX 17 28 0 0
BITMAP
000000003500001730
000000002F3018E800
000000000CD9EF6000
0000000007FFE40000
0000000002FD200000
000000000061000000
000000000000000000
0003BEFFFFFFFFF300
002EFDBAAAFFFFB000
007FF40005FFFF3000
008FF6000CFFFB0000
002A91005FFFF30000
00000000CFFFB00000
00000005FFFF300000
0000000CFFFB000000
0000005FFFF3000000
000000DFFFB0000000
000005FFFF30000000
00000DFFFB00000000
00006FFFF300000000
0000DFFFB000000000
0006FFFF3000000000
000DFFFB0000000000
006FFFF30005B50000
00DFFFB0001FFE0000
06FFFF30000DFD0000
0DFFFEAAABDFF50000
7FFFFFFFFFFC500000
ENDCHAR
STARTCHAR zcaron
ENCODING 382
SWIDTH 428 0
DWIDTH 12 0
BBX 14 21 0 0
BITMAP
00000970002AC1
000004F429FB10
000000EEFF9000
000000AFF80000
0000005F600000
00000013000000
00000000000000
002BEFFFFFFB00
01DFCAAFFFF200
05FF405FFF9000
05FF21DFFE1000
003207FFF70000
00002EFFD00000
0000AFFF500000
0004FFFB000000
000CFFF3000000
006FFF90010000
01EFFE109F9000
08FFF700BFC000
2FFFFDBBEF5000
BFFFFFFFC50000
ENDCHAR
STARTCHAR longs
ENCODING 383
SWIDTH 267 0
DWIDTH 7 0
BBX 17 28 -6 -7
BITMAP
000000000029DFC500
0000000003EFFFFF50
000000000CFFF83CA0
000000004FFFB009B0
000000008FFF600000
00000000CFFF300000
00000000FFFE000000
000000AFFFFC000000
0000008CFFF8000000
00000007FFF5000000
0000000BFFF2000000
0000000EFFE0000000
0000002FFFB0000000
0000006FFF80000000
0000009FFF50000000
000000CFFF10000000
000001FFFD00000000
000004FFFA00000000
000007FFF700000000
00000AFFF400000000
00000EFFF100000000
0028DFFFD000000000
08F97FFF9000000000
6F408FFF6000000000
BC00CFFF2000000000
BE47FFFA0000000000
5FFFFFD20000000000
05CFD9100000000000
ENDCHAR
STARTCHAR uni018F
ENCODING 399
SWIDTH 544 0
DWIDTH 15 0
BBX 16 21 0 0
BITMAP
000017CEFEB60000
0005EFFFFFFFC100
001EFFFFFFFFFB00
004FE7213BFFFF50
001E300000DFFFB0
00010000009FFFE0
00000000007FFFF0
00000000007FFFF1
00000000008FFFF0
00000038CEFFFFE0
00002BFFEBFFFFB0
0006EFF711FFFF80
006FFE4005FFFF30
04FFF60009FFFC00
0DFFC0000EFFF500
3FFF60006FFFC000
6FFF2000DFFF3000
6FFF1007FFF60000
2FFF304FFF600000
08FFDBFFE4000000
006CFEC710000000
ENDCHAR
STARTCHAR florin
ENCODING 402
SWIDTH 267 0
DWIDTH 7 0
BBX 20 28 -7 -7
BITMAP
00000000000003AEEC40
0000000000006FFEDFE1
000000000004FFF44FF3
00000000000DFFB07FE1
00000000006FFF608D50
0000000000DFFF100000
0000000004FFFB000000
00000008FFFFFFFFA000
00000007AEFFFBAA5000
000000001FFFF1000000
000000004FFFB0000000
000000009FFF70000000
00000000DFFF20000000
00000002FFFD00000000
00000007FFF900000000
0000000BFFF500000000
0000001FFFF100000000
0000005FFFB000000000
0000009FFF7000000000
000000DFFF2000000000
000002FFFC0000000000
000007FFF70000000000
00000BFFF10000000000
2BA02FFF900000000000
CFB07FFE200000000000
FF71EFF6000000000000
CFCBFF80000000000000
2BEEB500000000000000
ENDCHAR
STARTCHAR Ohorn
ENCODING 416
SWIDTH 665 0
DWIDTH 19 0
BBX 21 25 0 0
BITMAP
0000000000000000005600
000000000000000007FF30
000000000000000005FF20
000000000000000006FE00
000000159CEFEC700AF700
000018EFFDBBDFFC7FC000
0005EFD6113107FFFC2000
007FF802AFF700CFF90000
05FF802EFF80008FFE0000
1EFC00CFFD10006FFF3000
5FF507FFF700006FFF5000
8FF21FFFE100007FFF5000
6FF07FFF9000008FFF5000
1BF1DFFF400000AFFF3000
0003FFFE000000DFFF1000
0006FFFB000002FFFD0000
000AFFF8000006FFF80000
000CFFF500000CFFF30000
000DFFF400003FFFC00000
000EFFF30000BFFF500000
000EFFF40004FFFB000000
000BFFF7002DFFD1000000
0006FFFE56DFFE20000000
0000BFFFFFFFB200000000
000007CFEDA40000000000
ENDCHAR
STARTCHAR ohorn
ENCODING 417
SWIDTH 439 0
DWIDTH 12 0
BBX 15 18 -1 0
BITMAP
0000000000002720
000000000000CFA0
000000000000BF80
000000000000DF40
000005BEFC46FB00
0001BFFFBFFFD100
001CFFE308FC1000
009FFF6006FC0000
04FFFD0006FD0000
0BFFF70008FC0000
1FFFF3000BFB0000
3FFFE0001EF90000
5FFFD0006FF40000
5FFFD001EFD00000
4FFFF11BFF500000
1EFFFEEFFA000000
07FFFFFF90000000
006DFEB400000000
ENDCHAR
STARTCHAR Uhorn
ENCODING 431
SWIDTH 716 0
DWIDTH 20 0
BBX 26 26 -1 0
BITMAP
00000000000000000000003CE3
00000000000000000000004FF5
00000000000000000000004FF3
00000000000000000000007FC0
0000000000000000000003EF40
00000016ADEF900000DFFFF600
000018FEEFFF700002FFFE3000
0004EF71CFFF200005FFFA0000
006FE401FFFD000008FFF70000
03FF6004FFF900000BFFF30000
0BFE0008FFF500000EFFF00000
1FFA000CFFF100003FFFC00000
1FF8001FFFC000006FFF900000
0DF7005FFF800000AFFF500000
03A8009FFF400000DFFF200000
000000CFFE000001FFFE000000
000001FFFB000005FFFA000000
000004FFF7000009FFF6000000
000007FFF400000DFFF2000000
000009FFF200003FFFC0000000
00000BFFF100008FFF70000000
00000CFFF10001EFFE10000000
00000BFFF6001AFFF700000000
000007FFFFCCEFFFB000000000
000001DFFFFFFFFA1000000000
00000018CEFED9400000000000
ENDCHAR
STARTCHAR uhorn
ENCODING 432
SWIDTH 505 0
DWIDTH 14 0
BBX 17 19 -1 0
BITMAP
000000000000004600
00000000000003FF40
00000000000002FF30
00000000000004FD00
0000000000000BF500
003FFFC004FFFF8000
006FFF9008FFF90000
009FFF600BFFF50000
00DFFF300EFFF20000
01FFFE002FFFD00000
04FFFB005FFFA00000
07FFF8009FFF700000
0BFFF500CFFF400000
0EFFF200FFFF100100
2FFFE005FFFD002F10
3FFFD01DFFFC00AA00
2FFFFBDCFFFFBDE200
0CFFFFE2BFFFFE4000
02BEE9102BEE920000
ENDCHAR
STARTCHAR uni01B7
ENCODING 439
SWIDTH 555 0
DWIDTH 16 0
BBX 16 21 0 0
BITMAP
00019DFFFFFFFFFB
000BFFCBAACFFFD1
002FFA0000CFFF30
002FFC0009FFF700
000693006FFFB000
00000003EFFD1000
0000001DFFF30000
000000AFFF700000
000003FFFE500000
000006FFFFFD4000
00000136EFFFE300
000000002EFFFA00
000000000AFFFE00
0000000007FFFF10
0010000007FFFF10
09FE200009FFFD00
4FF900000DFFF800
6FF600006FFFE100
4FFA0004FFFE3000
0BFFDACFFFC20000
005BDFEC94000000
ENDCHAR
STARTCHAR uni01CD
ENCODING 461
SWIDTH 668 0
DWIDTH 19 0
BBX 24 31 0 -3
BITMAP
000000000000000160000065
0000000000000000D7006DB1
00000000000000009F8EF900
00000000000000003FFF6000
00000000000000000DE40000
000000000000000005200000
000000000000000000000000
000000000000004AEFD30000
00000000000009FFFFF20000
000000000001CF8FFFE00000
00000000001CF55FFFB00000
0000000000BF708FFF800000
0000000008FC00BFFF400000
000000005FF300EFFF100000
00000001EF9002FFFD000000
00158AACFF3006FFFA000000
06EFFFFFFFFD8BFFF7000000
5FFD41CFF226BFFFF3000000
AFF505FFA0000FFFF0000000
8FF70DFF40003FFFC0000000
04406FFD00007FFF90000000
0000CFF80000AFFF60000000
0003FFF30000DFFF20000000
0009FFD00001FFFE00000000
000EFF800004FFFB00000000
004FFF400008FFF800000000
007FFF10000BFFF500000000
009FFD00000EFFF100000000
009FFC000000000000000000
005FFB000000000000000000
0007DD000000000000000000
ENDCHAR
STARTCHAR uni01CE
ENCODING 462
SWIDTH 526 0
DWIDTH 15 0
BBX 17 21 -1 0
BITMAP
00000004C00007D400
00000000E806DE3000
00000000AFDFD20000
000000005FFD200000
000000001FC1000000
000000000510000000
000000000000000000
000017CFE8AFFF5000
0002DFFFBEEFFF2000
001CFFE304FFFE0000
009FFF6005FFFA0000
02FFFD0008FFF70000
09FFF7000BFFF40000
0DFFF3000EFFF10000
2FFFE0003FFFC00000
4FFFD0006FFF900010
5FFFC000AFFF6007A0
4FFFE003FFFF501E30
1FFFFB9EDFFFD8DA00
09FFFFF93FFFFFC100
008DFC6006DFC60000
ENDCHAR
STARTCHAR uni01CF
ENCODING 463
SWIDTH 375 0
DWIDTH 11 0
BBX 16 28 0 0
BITMAP
0000000440000172
00000004E2029E70
00000000ED9FE400
000000009FFD3000
000000004FC10000
0000000007000000
0000000000000000
0000016ADFE00000
00006EFFFFC00000
002CFB8FFF900000
02DF809FFF600000
1DFB00DFFF200000
7FF301FFFE000000
BFE004FFFB000000
CFC007FFF8000000
9FC00BFFF5000000
1AC00EFFF1000000
00002FFFD0000000
00005FFFA0000000
00008FFF70000000
0000CFFF40000000
0000FFFF10000000
0003FFFC00000000
0006FFF900000000
0009FFF600000000
000DFFF300000000
001FFFE000000000
004FFFB000000000
ENDCHAR
STARTCHAR uni01D0
ENCODING 464
SWIDTH 267 0
DWIDTH 7 0
BBX 12 21 -1 0
BITMAP
000B60003AB1
0006E23AF900
0001FEFF8000
0000CFF60000
00007F500000
000013000000
000000000000
003FFFC00000
006FFF900000
009FFF600000
00DFFF300000
01FFFE000000
04FFFB000000
07FFF8000000
0BFFF5000000
0EFFF2001100
2FFFE000C600
3FFFD007E100
2FFFFBCF5000
0CFFFFF70000
02BEEA300000
ENDCHAR
STARTCHAR uni01D1
ENCODING 465
SWIDTH 665 0
DWIDTH 19 0
BBX 20 28 0 0
BITMAP
00000000000430000272
000000000004E2029E60
000000000000EC9FE400
0000000000009FFD2000
0000000000004FB10000
00000000000007000000
00000000000000000000
000000159CEFEC920000
000018EFFDBBDFFF6000
0005EFD6113107FFF300
007FF802AFF700CFFB00
05FF802EFF80008FFF10
1EFC00CFFD10006FFF40
5FF507FFF700006FFF50
8FF21FFFE100007FFF50
6FF07FFF9000008FFF50
1BF1DFFF400000AFFF30
0003FFFE000000DFFF00
0006FFFB000002FFFC00
000AFFF8000006FFF700
000CFFF500000CFFF300
000DFFF400003FFFB000
000EFFF30000BFFF4000
000EFFF40004FFFA0000
000BFFF7002DFFD10000
0006FFFE56DFFD200000
0000BFFFFFFFB1000000
000007CFEDA400000000
ENDCHAR
STARTCHAR uni01D2
ENCODING 466
SWIDTH 433 0
DWIDTH 12 0
BBX 17 21 -1 0
BITMAP
000000C40003BA0000
0000008E12AF900000
0000003FDFF8000000
0000000EFF70000000
00000009F600000000
000000034000000000
000000000000000000
000017CEFB30000000
0002DFFEBFE2000000
001DFFD10BF7000010
00BFFF401CFA004B60
04FFFB006FFDADE600
0BFFF5003EFE950000
1FFFF1000DF7000000
4FFFC0001FF5000000
7FFFA0005FF1000000
8FFF9000CFB0000000
7FFFB006FF40000000
4FFFF99FF900000000
0BFFFFFF9000000000
007DFEB40000000000
ENDCHAR
STARTCHAR uni01D3
ENCODING 467
SWIDTH 716 0
DWIDTH 20 0
BBX 23 28 -1 0
BITMAP
000000000000007000005600
00000000000000C9005DC100
000000000000007F9DFA1000
000000000000002FFF800000
000000000000000BF6000000
000000000000000430000000
000000000000000000000000
00000016ADEF900000DFFF10
000018FEEFFF700002FFFD00
0004EF71CFFF200005FFFA00
006FE401FFFD000008FFF600
03FF6004FFF900000BFFF300
0BFE0008FFF500000EFFF000
1FFA000CFFF100003FFFC000
1FF8001FFFC000006FFF8000
0DF7005FFF800000AFFF5000
03A8009FFF400000DFFF2000
000000CFFE000001FFFE0000
000001FFFB000005FFFA0000
000004FFF7000009FFF60000
000007FFF400000DFFF20000
000009FFF200003FFFC00000
00000BFFF100008FFF700000
00000CFFF10001EFFE100000
00000BFFF6001AFFF7000000
000007FFFFCCEFFFB0000000
000001DFFFFFFFFA10000000
00000018CEFED94000000000
ENDCHAR
STARTCHAR uni01D4
ENCODING 468
SWIDTH 505 0
DWIDTH 14 0
BBX 17 21 -1 0
BITMAP
0000004C00017D4000
0000000E807ED30000
0000000AFEFD200000
00000005FFC1000000
00000001FA00000000
000000004000000000
000000000000000000
003FFFC004FFFB0000
006FFF9008FFF80000
009FFF600BFFF50000
00DFFF300EFFF20000
01FFFE002FFFD00000
04FFFB005FFFA00000
07FFF8009FFF700000
0BFFF500CFFF400000
0EFFF200FFFF100100
2FFFE005FFFD002F10
3FFFD01DFFFC00AA00
2FFFFBDCFFFFBDE200
0CFFFFE2BFFFFE4000
02BEE9102BEE920000
ENDCHAR
STARTCHAR uni01D5
ENCODING 469
SWIDTH 716 0
DWIDTH 20 0
BBX 23 28 -1 0
BITMAP
0000000000007AAAAAAAA300
000000000000DFFFFFFFF100
000000000000000000000000
000000000001CE7002DE5000
000000000006FFE008FFC000
000000000001CE7003DE5000
000000000000000000000000
00000016ADEF900000DFFF10
000018FEEFFF700002FFFD00
0004EF71CFFF200005FFFA00
006FE401FFFD000008FFF600
03FF6004FFF900000BFFF300
0BFE0008FFF500000EFFF000
1FFA000CFFF100003FFFC000
1FF8001FFFC000006FFF8000
0DF7005FFF800000AFFF5000
03A8009FFF400000DFFF2000
000000CFFE000001FFFE0000
000001FFFB000005FFFA0000
000004FFF7000009FFF60000
000007FFF400000DFFF20000
000009FFF200003FFFC00000
00000BFFF100008FFF700000
00000CFFF10001EFFE100000
00000BFFF6001AFFF7000000
000007FFFFCCEFFFB0000000
000001DFFFFFFFFA10000000
00000018CEFED94000000000
ENDCHAR
STARTCHAR uni01D6
ENCODING 470
SWIDTH 505 0
DWIDTH 14 0
BBX 17 24 -1 0
BITMAP
000005AAAAAAAA5000
00000BFFFFFFFF4000
000000000000000000
000000000000000000
000000000000000000
00000AEA009EA00000
00002FFF22FFF30000
00000AEA009EA00000
000000000000000000
000000000000000000
003FFFC004FFFB0000
006FFF9008FFF80000
009FFF600BFFF50000
00DFFF300EFFF20000
01FFFE002FFFD00000
04FFFB005FFFA00000
07FFF8009FFF700000
0BFFF500CFFF400000
0EFFF200FFFF100100
2FFFE005FFFD002F10
3FFFD01DFFFC00AA00
2FFFFBDCFFFFBDE200
0CFFFFE2BFFFFE4000
02BEE9102BEE920000
ENDCHAR
STARTCHAR uni01D7
ENCODING 471
SWIDTH 716 0
DWIDTH 20 0
BBX 23 28 -1 0
BITMAP
000000000000000058820000
0000000000000002FFA00000
00000000005ED309FE1AEA00
0000000000BFF92FF42FFF20
00000000005ED3AF900AEA00
000000000000005510000000
000000000000000000000000
00000016ADEF900000DFFF10
000018FEEFFF700002FFFD00
0004EF71CFFF200005FFFA00
006FE401FFFD000008FFF600
03FF6004FFF900000BFFF300
0BFE0008FFF500000EFFF000
1FFA000CFFF100003FFFC000
1FF8001FFFC000006FFF8000
0DF7005FFF800000AFFF5000
03A8009FFF400000DFFF2000
000000CFFE000001FFFE0000
000001FFFB000005FFFA0000
000004FFF7000009FFF60000
000007FFF400000DFFF20000
000009FFF200003FFFC00000
00000BFFF100008FFF700000
00000CFFF10001EFFE100000
00000BFFF6001AFFF7000000
000007FFFFCCEFFFB0000000
000001DFFFFFFFFA10000000
00000018CEFED94000000000
ENDCHAR
STARTCHAR uni01D8
ENCODING 472
SWIDTH 505 0
DWIDTH 14 0
BBX 17 26 -1 0
BITMAP
00000000007FF60000
0000000000DFC00000
0000000005FF300000
000000000CF9000000
000000004FE1000000
000000005840000000
000000000000000000
00000AEA009EA00000
00002FFF22FFF30000
00000AEA009EA00000
000000000000000000
000000000000000000
003FFFC004FFFB0000
006FFF9008FFF80000
009FFF600BFFF50000
00DFFF300EFFF20000
01FFFE002FFFD00000
04FFFB005FFFA00000
07FFF8009FFF700000
0BFFF500CFFF400000
0EFFF200FFFF100100
2FFFE005FFFD002F10
3FFFD01DFFFC00AA00
2FFFFBDCFFFFBDE200
0CFFFFE2BFFFFE4000
02BEE9102BEE920000
ENDCHAR
STARTCHAR uni01D9
ENCODING 473
SWIDTH 716 0
DWIDTH 20 0
BBX 23 28 -1 0
BITMAP
000000000000033000163000
00000000000003E217E80000
00000000005ED3CDEE5AEA00
0000000000BFF97FD32FFF20
00000000005ED32A100AEA00
000000000000000000000000
000000000000000000000000
00000016ADEF900000DFFF10
000018FEEFFF700002FFFD00
0004EF71CFFF200005FFFA00
006FE401FFFD000008FFF600
03FF6004FFF900000BFFF300
0BFE0008FFF500000EFFF000
1FFA000CFFF100003FFFC000
1FF8001FFFC000006FFF8000
0DF7005FFF800000AFFF5000
03A8009FFF400000DFFF2000
000000CFFE000001FFFE0000
000001FFFB000005FFFA0000
000004FFF7000009FFF60000
000007FFF400000DFFF20000
000009FFF200003FFFC00000
00000BFFF100008FFF700000
00000CFFF10001EFFE100000
00000BFFF6001AFFF7000000
000007FFFFCCEFFFB0000000
000001DFFFFFFFFA10000000
00000018CEFED94000000000
ENDCHAR
STARTCHAR uni01DA
ENCODING 474
SWIDTH 505 0
DWIDTH 14 0
BBX 17 26 -1 0
BITMAP
000000052000037100
00000007D103AE4000
00000002FBAFD30000
00000000CFFC100000
000000007FA0000000
000000001600000000
000000000000000000
00000AEA009EA00000
00002FFF22FFF30000
00000AEA009EA00000
000000000000000000
000000000000000000
003FFFC004FFFB0000
006FFF9008FFF80000
009FFF600BFFF50000
00DFFF300EFFF20000
01FFFE002FFFD00000
04FFFB005FFFA00000
07FFF8009FFF700000
0BFFF500CFFF400000
0EFFF200FFFF100100
2FFFE005FFFD002F10
3FFFD01DFFFC00AA00
2FFFFBDCFFFFBDE200
0CFFFFE2BFFFFE4000
02BEE9102BEE920000
ENDCHAR
STARTCHAR uni01DB
ENCODING 475
SWIDTH 716 0
DWIDTH 20 0
BBX 23 28 -1 0
BITMAP
00000000000000BFF2000000
000000000000006FF4000000
00000000005ED31FF70AEA00
0000000000BFF90BF92FFF20
00000000005ED306FC0AEA00
000000000000000000000000
000000000000000000000000
00000016ADEF900000DFFF10
000018FEEFFF700002FFFD00
0004EF71CFFF200005FFFA00
006FE401FFFD000008FFF600
03FF6004FFF900000BFFF300
0BFE0008FFF500000EFFF000
1FFA000CFFF100003FFFC000
1FF8001FFFC000006FFF8000
0DF7005FFF800000AFFF5000
03A8009FFF400000DFFF2000
000000CFFE000001FFFE0000
000001FFFB000005FFFA0000
000004FFF7000009FFF60000
000007FFF400000DFFF20000
000009FFF200003FFFC00000
00000BFFF100008FFF700000
00000CFFF10001EFFE100000
00000BFFF6001AFFF7000000
000007FFFFCCEFFFB0000000
000001DFFFFFFFFA10000000
00000018CEFED94000000000
ENDCHAR
STARTCHAR uni01DC
ENCODING 476
SWIDTH 505 0
DWIDTH 14 0
BBX 17 26 -1 0
BITMAP
0000008FF500000000
0000003FF800000000
0000000DFA00000000
00000008FD00000000
00000003FF00000000
000000000000000000
000000000000000000
00000AEA009EA00000
00002FFF22FFF30000
00000AEA009EA00000
000000000000000000
000000000000000000
003FFFC004FFFB0000
006FFF9008FFF80000
009FFF600BFFF50000
00DFFF300EFFF20000
01FFFE002FFFD00000
04FFFB005FFFA00000
07FFF8009FFF700000
0BFFF500CFFF400000
0EFFF200FFFF100100
2FFFE005FFFD002F10
3FFFD01DFFFC00AA00
2FFFFBDCFFFFBDE200
0CFFFFE2BFFFFE4000
02BEE9102BEE920000
ENDCHAR
STARTCHAR uni01E4
ENCODING 484
SWIDTH 601 0
DWIDTH 17 0
BBX 17 27 0 -6
BITMAP
00000027BEFEC71000
000018FFFFCBEFD200
0002DFFFC3002EF900
001DFFFB00000CFD00
00BFFFD100001FFC00
04FFFF500000AFF700
0BFFFC000000275000
1FFFF7000000000000
4FFFF2000000000000
6FFFF0000001AAA200
7FFFD0001116FFF210
6FFFD000BFFFFFFF60
4FFFF000446FFFA410
0EFFF50001CFFF5000
08FFFD303CFFFF2000
01CFFFFFFCDFFE0000
0018EFFE81FFFB0000
0000012004FFF70000
0000000007FFF40000
00017A930BFFF10000
002DFFFE0EFFB00000
00AFD3173FFF600000
00FF60007FFE100000
00FF6000DFF8000000
00BFC21AFFC0000000
002DFFFFFC10000000
000058A95000000000
ENDCHAR
STARTCHAR uni01E5
ENCODING 485
SWIDTH 507 0
DWIDTH 14 0
BBX 17 21 -1 -7
BITMAP
000017CFE8AFFF5000
0002DFFFBEEFFF2000
001CFFE204FFFD0000
009FFF5005FFFA0000
02FFFC0008FFF70000
09FFF7000CFFF40000
0DFFF2000FFFF10000
2FFFE0003FFFC00000
4FFFC0007FFF900310
5FFFC000BFFF602F20
4FFFF207FFFF208A00
1FFFFEEFFFFE05E200
09FFFFFDFFFD9D3000
008DFC69FFFD810000
000007DFFFF4000000
0023DE9FFFF3100000
04FFFFFFFFFFA00000
026F84BFFF94200000
002F80DFFE10000000
000DFCFFF500000000
0002BEEB4000000000
ENDCHAR
STARTCHAR Gcaron
ENCODING 486
SWIDTH 578 0
DWIDTH 16 0
BBX 18 34 0 -6
BITMAP
0000000000E30004C8
0000000000AC03BF70
00000000005FDFF600
00000000001FFF5000
00000000000BE40000
000000000004300000
000000000000000000
00000027BEFEC81000
000018FFFFCBEFD200
0002DFFFC3001EFA00
001DFFFB00000CFD00
00BFFFD100001FFC00
04FFFF500000AFF600
0BFFFC000000264000
1FFFF7000000000000
4FFFF2000000000000
6FFFF0000001CCC200
7FFFD0000006FFF000
6FFFD000000BFFC000
4FFFF000004FFF9000
0EFFF50001DFFF5000
08FFFD303CFFFF2000
01CFFFFFFCDFFE0000
0018EFFE81FFFB0000
0000012004FFF70000
0000000007FFF40000
00017A930BFFF10000
002DFFFE0EFFB00000
00AFD3173FFF600000
00FF60007FFE100000
00FF6000DFF8000000
00BFC21AFFC0000000
002DFFFFFC10000000
000058A95000000000
ENDCHAR
STARTCHAR gcaron
ENCODING 487
SWIDTH 507 0
DWIDTH 14 0
BBX 17 28 -1 -7
BITMAP
00000004C00007D400
00000000E806DE3000
00000000AFDFD20000
000000005FFD200000
000000001FC1000000
000000000510000000
000000000000000000
000017CFE8AFFF5000
0002DFFFBEEFFF2000
001CFFE204FFFD0000
009FFF5005FFFA0000
02FFFC0008FFF70000
09FFF7000CFFF40000
0DFFF2000FFFF10000
2FFFE0003FFFC00000
4FFFC0007FFF900310
5FFFC000BFFF602F20
4FFFF207FFFF208B00
1FFFFEEFFFFE05E200
09FFFFFDFFFD9E5000
008DFC68FFFFA20000
000004BFFFF5000000
0001AFDFFFF2000000
000BF71FFFE0000000
001F905FFF90000000
002F70BFFF30000000
000DECFFF800000000
0002AEEB5000000000
ENDCHAR
STARTCHAR uni01E8
ENCODING 488
SWIDTH 601 0
DWIDTH 17 0
BBX 20 27 0 0
BITMAP
000000000002E20006D6
000000000000BC17DE40
0000000000006FFFD200
0000000000001FFB1000
0000000000000B900000
00000000000000000000
0000016ADFE0000BFE30
00007EFFFFC0007FF500
002DFA8FFF9004FF6000
03EF80AFFF601DF80000
1DFA00DFFF20AFA00000
7FF301FFFE07FC100000
BFE004FFFB3FD1000000
CFC007FFF9DE20000000
8FC00BFFFEF400000000
18B00EFFFFFFFB300000
00002FFFD35EFFD00000
00005FFFA008FFF30000
00008FFF7008FFF30000
0000CFFF300AFFF10000
0000FFFF100EFFD00000
0003FFFC003FFFA00000
0006FFF9007FFF600000
0009FFF600BFFF200000
000DFFF300DFFE000000
001FFFE000EFFE000000
004FFFB0006EFF600000
ENDCHAR
STARTCHAR uni01E9
ENCODING 489
SWIDTH 518 0
DWIDTH 15 0
BBX 17 25 -1 0
BITMAP
000000008900029C20
000000003F63AFA100
000000000DFFF80000
0000000008FF600000
0000000003E4000000
000002461000000000
0001FFFE0000000000
0005FFFB0000000000
0008FFF70000000000
000BFFF40000000000
000EFFF10000000000
003FFFD0004EF80000
006FFFA007FD300000
009FFF61AF91000000
00CFFF5CE700000000
01FFFFEFFFF7000000
04FFFFFFFFFF400000
07FFFE62BFFF800000
0AFFF5008FFF900000
0DFFF200AFFF700000
1FFFE000CFFF300B70
5FFFB000EFFF204E10
8FFF7000EFFFB9E800
BFFF40009FFFFFB000
EFFF100018DFD70000
ENDCHAR
STARTCHAR uni01EA
ENCODING 490
SWIDTH 665 0
DWIDTH 19 0
BBX 19 34 0 -6
BITMAP
00000000AFF300000000
000000005FF500000000
000000001EF800000000
000000000AFA00000000
0000000005FD00000000
00000000000000000000
00000000000000000000
000000159CEFEC920000
000018EFFDBBDFFF6000
0005EFD6113107FFF300
007FF802AFF700CFFB00
05FF802EFF80008FFF10
1EFC00CFFD10006FFF40
5FF507FFF700006FFF50
8FF21FFFE100007FFF50
6FF07FFF9000008FFF50
1BF1DFFF400000AFFF30
0003FFFE000000DFFF00
0006FFFB000002FFFC00
000AFFF8000006FFF700
000CFFF500000CFFF200
000DFFF400003FFFB000
000EFFF30000AFFF4000
000EFFF40004FFFA0000
000BFFF6002DFFD10000
0006FFFE46DFFE200000
0000CFFFFFFFC2000000
000007DFFDA500000000
000001CB000000000000
00000BF4000000000000
00002FF2000000000000
00002FF913B000000000
00000BFFFF6000000000
0000017A820000000000
ENDCHAR
STARTCHAR uni01EB
ENCODING 491
SWIDTH 433 0
DWIDTH 12 0
BBX 17 20 -1 -6
BITMAP
000017CEFB30000000
0002DFFEBFE1000000
001DFFD10BF7000000
00BFFF401CFA003B60
04FFFC006FFD8CE600
0BFFF6004FFE951000
1FFFF1000CF7000000
4FFFD0000FF5000000
7FFFB0004FF1000000
8FFF9000AFB0000000
7FFFA003FF40000000
4FFFE45EF900000000
0BFFFFFF9000000000
007EFEB40000000000
006F40000000000000
03FB00000000000000
09FA00000000000000
0AFE31870000000000
04FFFFC10000000000
004995000000000000
ENDCHAR
STARTCHAR uni01EE
ENCODING 494
SWIDTH 525 0
DWIDTH 15 0
BBX 16 27 0 0
BITMAP
00000000D40004C9
000000008E25CF60
000000003FFFE400
000000000DFD2000
0000000008B10000
0000000000000000
00019DFFFFFFFFFB
000BFFCBAACFFFD1
002FFA0000CFFF30
002FFC0009FFF700
000693006FFFB000
00000003EFFD1000
0000001DFFF30000
000000AFFF700000
000003FFFE500000
000006FFFFFD4000
00000136EFFFE300
000000002EFFFA00
000000000AFFFE00
0000000007FFFF10
0010000007FFFF10
09FE200009FFFD00
4FF900000DFFF800
6FF600006FFFE100
4FFA0004FFFE3000
0BFFDACFFFC20000
005BDFEC94000000
ENDCHAR
STARTCHAR uni01EF
ENCODING 495
SWIDTH 600 0
DWIDTH 17 0
BBX 14 27 0 -7
BITMAP
00000970003AB1
000004F43AF900
000000EFFF7000
0000009FE40000
0000004D300000
00000000000000
008EFFFFFFE200
0AFDBADFFF7000
1FF801DFFD1000
1FF608FFF50000
02302FFFB00000
0000BFFF300000
0005FFF9000000
001DFFE1000000
006FFF60000000
007FFFB0000084
0006FFF70002F2
0000EFFD000AA0
0000BFFF208D20
0000AFFFADC200
0001BFFFC50000
02AFFFFF500000
3ED5CFFF300000
CD11FFFE000000
E908FFF7000000
BFCFFFB0000000
1AEFC700000000
ENDCHAR
STARTCHAR uni01F4
ENCODING 500
SWIDTH 578 0
DWIDTH 16 0
BBX 16 34 0 -6
BITMAP
0000000000003FFA
000000000000AFE1
000000000002FF60
000000000009FC00
00000000002FF300
0000000000375000
0000000000000000
00000027BEFEC710
000018FFFFCBEFE3
0002DFFFC3001EFB
001DFFFB00000DFD
00BFFFD100004FFB
04FFFF5000008EC3
0BFFFC0000000000
1FFFF70000000000
4FFFF20000002220
6FFFF0000003FFF2
7FFFD0000007FFE0
6FFFD000000DFFB0
4FFFF000005FFF80
0EFFF50001DFFF50
08FFFD304DFFFF10
01CFFFFFFCDFFD00
0018EFFE81FFFA00
0000012004FFF700
0000000007FFF300
00017A930BFFE000
002DFFFE0EFFB000
00AFD3173FFF6000
00FF60007FFE1000
00FF6000DFF70000
00BFC21AFFC00000
002DFFFFFC100000
000058A940000000
ENDCHAR
STARTCHAR uni01F5
ENCODING 501
SWIDTH 507 0
DWIDTH 14 0
BBX 17 28 -1 -7
BITMAP
0000000000CFE10000
0000000005FF600000
000000000CFC000000
000000004FF3000000
00000000BF80000000
000000006610000000
000000000000000000
000017CFE8AFFF5000
0002DFFFBEEFFF2000
001CFFE204FFFD0000
009FFF5005FFFA0000
02FFFC0008FFF70000
09FFF7000CFFF40000
0DFFF2000FFFF10000
2FFFE0003FFFC00000
4FFFC0007FFF900310
5FFFC000BFFF602F20
4FFFF207FFFF208B00
1FFFFEEFFFFE05E200
09FFFFFDFFFD9E5000
008DFC68FFFFA20000
000004BFFFF5000000
0001AFDFFFF2000000
000BF71FFFE0000000
001F905FFF90000000
002F70BFFF30000000
000DECFFF800000000
0002AEEB5000000000
ENDCHAR
STARTCHAR Aringacute
ENCODING 506
SWIDTH 668 0
DWIDTH 19 0
BBX 22 31 0 -3
BITMAP
0000000000000000000787
0000000000000000005FF4
000000000000000000DF50
00000000000000007EF800
0000000000000004FCEA00
0000000000000007F09C00
0000000000000006FAE900
0000000000000004EFE200
00000000000004DFFFF300
0000000000008F8FFFF000
000000000009F55FFFC000
00000000009F708FFF9000
0000000007FC00BFFF5000
000000004FF300EFFF2000
00000001DF9002FFFE0000
00158AACFF3006FFFB0000
06EFFFFFFFFD8BFFF70000
5FFD41CFF226BFFFF40000
AFF505FFA0000FFFF10000
8FF70DFF40003FFFC00000
04406FFD00007FFF900000
0000CFF80000AFFF600000
0003FFF30000DFFF300000
0009FFD00001FFFE000000
000EFF800004FFFB000000
004FFF400008FFF8000000
007FFF10000BFFF5000000
009FFD00000EFFF1000000
009FFC0000000000000000
005FFB0000000000000000
0007DD0000000000000000
ENDCHAR
STARTCHAR aringacute
ENCODING 507
SWIDTH 526 0
DWIDTH 15 0
BBX 17 23 -1 0
BITMAP
000000000018820000
00000000008FC00000
0000000001EE200000
000000003BF7000000
00000001D35C000000
00000006B02E000000
00000005D17B000000
00000000AEC2000000
000000000000000000
000017CFE8AFFF5000
0002DFFFBEEFFF2000
001CFFE304FFFE0000
009FFF6005FFFA0000
02FFFD0008FFF70000
09FFF7000BFFF40000
0DFFF3000EFFF10000
2FFFE0003FFFC00000
4FFFD0006FFF900010
5FFFC000AFFF6007A0
4FFFE003FFFF501E30
1FFFFB9EDFFFD8DA00
09FFFFF93FFFFFC100
008DFC6006DFC60000
ENDCHAR
STARTCHAR AEacute
ENCODING 508
SWIDTH 764 0
DWIDTH 21 0
BBX 26 31 0 -3
BITMAP
00000000000000000000687100
00000000000000000003FF7000
0000000000000000000AFA0000
0000000000000000003FD10000
000000000000000000BE200000
00000000000000000174000000
00000000000000000000000000
000000000000004AEE81000013
0000000000001AFFFFFE7215D3
000000000001CE6FFFFFFFFFE0
00000000001DE35FFFFFFFFF70
0000000001CF509FFFC17BC800
0000000009FA00CFFF70000000
000000006FE100FFFF30000000
00000002EF7003FFFE00000000
00169AACFF5106FFF900000000
07EFFFFFFFFFBCFFFFFFFA0000
7FFA31CFF2148FFFFFFFF60000
BFF705FFA0001FFFE000000000
5EE40DFF40004FFFB000000000
00006FFD00007FFF8000000000
0000CFF80000AFFF5000000000
0004FFF30000DFFF2000000000
0009FFD00002FFFE0000000000
000EFF800005FFFB0000000000
004FFF400008FFFFEEEEEB0000
007FFF10000BFFFFFFFFF90000
009FFE00000EFFFFFFFFF60000
009FFC00000000000000000000
005FFB00000000000000000000
0008DC00000000000000000000
ENDCHAR
STARTCHAR aeacute
ENCODING 509
SWIDTH 650 0
DWIDTH 18 0
BBX 20 21 -1 0
BITMAP
00000000000000DFE100
00000000000005FF6000
0000000000000CFB0000
0000000000004FF20000
000000000000BF700000
00000000000066000000
00000000000000000000
000017CFFD8129DFE900
0002DEBBEFFDEFFCEF70
000891004FFFFF807FA0
000000000FFFFC008F90
000000001FFFF500DF60
000000005FFFE009FD00
0016BEFFFFFFA3AFE300
02DFFFDBEFFFFFFC2000
0CFFF600EFFFB8400000
2FFFC004FFFF4000002A
3FFFD11CFFFF500001C3
2FFFFEEFBFFF90004D50
0CFFFFF72EFFFCBDD300
019DEC6002AEFEB60000
ENDCHAR
STARTCHAR Oslashacute
ENCODING 510
SWIDTH 658 0
DWIDTH 18 0
BBX 18 30 0 -2
BITMAP
000000000000003884
00000000000000BFE2
00000000000004FF60
0000000000000BFA00
0000000000004FE100
000000000000584000
000000000000000000
000000000000CA0000
000000000000E80000
00000037BDEFFD6000
00005CE94206FEFC10
001BF912AEB9D6FFB0
02DF804EFE1DA1FFF3
0CFB01EFF61F60EFF8
5FF40AFFE05F30EFFA
8FF04FFF808F00FFFA
6FE0AFFF20BC01FFF9
08B2FFFD00E804FFF8
0006FFF902F507FFF5
000AFFF505F20BFFF1
000DFFF209E01FFFC0
000FFFF00CA07FFF60
001FFFE00F70DFFE10
001FFFE03F47FFF700
000EFFF16F4FFFB000
0009FFF89EEFFD1000
0002DFFFFFFFC20000
000019DFFFC5000000
00000004F300000000
00000007E000000000
ENDCHAR
STARTCHAR oslashacute
ENCODING 511
SWIDTH 428 0
DWIDTH 12 0
BBX 16 23 -2 -2
BITMAP
00000000001EFD00
00000000007FF400
0000000000EF9000
0000000006FE1000
000000000DF50000
0000000016600000
0000000000000000
0000005BEFC40BC1
00001BFFFBFE8D20
0001CFFE308FE300
000AFFF6006FD000
004FFFD003EFD000
00BFFF702EEFC000
01FFFF22DABFB000
04FFFE2DB1EF8000
05FFFEDC16FF3000
05FFFFC11DFC0000
03FFFF31BFF40000
00DFFFEFFF900000
009FFFFFF9000000
05FACFEB40000000
3E90000000000000
6700000000000000
ENDCHAR
STARTCHAR uni0200
ENCODING 512
SWIDTH 668 0
DWIDTH 19 0
BBX 20 30 0 -3
BITMAP
0000000000BFE14FF800
00000000001DF807FE10
000000000003FE10AF80
0000000000006F801CF1
00000000000009E102E9
00000000000000000000
000000000000004AEFD3
00000000000009FFFFF2
000000000001CF8FFFE0
00000000001CF55FFFB0
0000000000BF708FFF80
0000000008FC00BFFF40
000000005FF300EFFF10
00000001EF9002FFFD00
00158AACFF3006FFFA00
06EFFFFFFFFD8BFFF700
5FFD41CFF226BFFFF300
AFF505FFA0000FFFF000
8FF70DFF40003FFFC000
04406FFD00007FFF9000
0000CFF80000AFFF6000
0003FFF30000DFFF2000
0009FFD00001FFFE0000
000EFF800004FFFB0000
004FFF400008FFF80000
007FFF10000BFFF50000
009FFD00000EFFF10000
009FFC00000000000000
005FFB00000000000000
0007DD00000000000000
ENDCHAR
STARTCHAR uni0201
ENCODING 513
SWIDTH 526 0
DWIDTH 15 0
BBX 17 21 -1 0
BITMAP
0009FF32EFB0000000
0000CFB04FF4000000
00002EF407FB000000
000004FB00AF400000
0000006F401DC00000
000000000000000000
000000000000000000
000017CFE8AFFF5000
0002DFFFBEEFFF2000
001CFFE304FFFE0000
009FFF6005FFFA0000
02FFFD0008FFF70000
09FFF7000BFFF40000
0DFFF3000EFFF10000
2FFFE0003FFFC00000
4FFFD0006FFF900010
5FFFC000AFFF6007A0
4FFFE003FFFF501E30
1FFFFB9EDFFFD8DA00
09FFFFF93FFFFFC100
008DFC6006DFC60000
ENDCHAR
STARTCHAR uni0202
ENCODING 514
SWIDTH 668 0
DWIDTH 19 0
BBX 23 30 0 -3
BITMAP
000000000000000279A84000
000000000000009FFFFFFA00
0000000000000BFD5119FF50
0000000000005FF30000EF90
000000000000122000002210
000000000000000000000000
000000000000004AEFD30000
00000000000009FFFFF20000
000000000001CF8FFFE00000
00000000001CF55FFFB00000
0000000000BF708FFF800000
0000000008FC00BFFF400000
000000005FF300EFFF100000
00000001EF9002FFFD000000
00158AACFF3006FFFA000000
06EFFFFFFFFD8BFFF7000000
5FFD41CFF226BFFFF3000000
AFF505FFA0000FFFF0000000
8FF70DFF40003FFFC0000000
04406FFD00007FFF90000000
0000CFF80000AFFF60000000
0003FFF30000DFFF20000000
0009FFD00001FFFE00000000
000EFF800004FFFB00000000
004FFF400008FFF800000000
007FFF10000BFFF500000000
009FFD00000EFFF100000000
009FFC000000000000000000
005FFB000000000000000000
0007DD000000000000000000
ENDCHAR
STARTCHAR uni0203
ENCODING 515
SWIDTH 526 0
DWIDTH 15 0
BBX 17 19 -1 0
BITMAP
00000017CEFD910000
000004EFEBCFFD1000
00002FF91004FF6000
000049900000995000
000000000000000000
000017CFE8AFFF5000
0002DFFFBEEFFF2000
001CFFE304FFFE0000
009FFF6005FFFA0000
02FFFD0008FFF70000
09FFF7000BFFF40000
0DFFF3000EFFF10000
2FFFE0003FFFC00000
4FFFD0006FFF900010
5FFFC000AFFF6007A0
4FFFE003FFFF501E30
1FFFFB9EDFFFD8DA00
09FFFFF93FFFFFC100
008DFC6006DFC60000
ENDCHAR
STARTCHAR uni0204
ENCODING 516
SWIDTH 459 0
DWIDTH 13 0
BBX 14 28 0 0
BITMAP
000AFF32EFB000
0001CFA04FF300
00002EF307FB00
000004FB00AF30
0000007F301DB0
00000000000000
00000000000000
00000017CEEA30
000003EFFCCFF3
00002EFF6008FA
0000BFFB0006FB
0002FFF6000AF9
0004FFF4004FE2
0004FFF6000210
0000EFFC000000
00005FFFA20000
00018EFFB50000
004EFFF8000000
02EFFF90000000
0BFFFD10000000
4FFFF700000000
8FFFF300000000
BFFFF100000033
CFFFF4000002D2
AFFFFC20028F70
4FFFFFFDEFF800
09FFFFFFFD5000
005BEFEB610000
ENDCHAR
STARTCHAR uni0205
ENCODING 517
SWIDTH 384 0
DWIDTH 11 0
BBX 13 21 -1 0
BITMAP
05FF70CFE10000
009FE12EF70000
000BF704FE1000
0001DE107F8000
00003F700AE100
00000000000000
00000000000000
000007CEEC4000
0002CFFECFE100
001CFFE20EF300
009FFF500FF300
02FFFD005FE000
09FFF702EF7000
0DFFF45EFA0000
2FFFFFFF800000
4FFFE971000000
5FFFC000000750
4FFFE00001AB00
1FFFFA569EC100
09FFFFFFF91000
006CFFD9300000
ENDCHAR
STARTCHAR uni0206
ENCODING 518
SWIDTH 459 0
DWIDTH 13 0
BBX 16 27 0 0
BITMAP
000000005AEFEA20
0000001BFFCBFFE2
000000BFD2003FF8
000003FF30000CFB
0000000000000000
0000000000000000
00000017CEEA3000
000003EFFCCFF300
00002EFF6008FA00
0000BFFB0006FB00
0002FFF6000AF900
0004FFF4004FE200
0004FFF600021000
0000EFFC00000000
00005FFFA2000000
00018EFFB5000000
004EFFF800000000
02EFFF9000000000
0BFFFD1000000000
4FFFF70000000000
8FFFF30000000000
BFFFF10000003300
CFFFF4000002D200
AFFFFC20028F7000
4FFFFFFDEFF80000
09FFFFFFFD500000
005BEFEB61000000
ENDCHAR
STARTCHAR uni0207
ENCODING 519
SWIDTH 384 0
DWIDTH 11 0
BBX 13 19 -1 0
BITMAP
000018CEED8100
0005EFEBCFFD10
003FF80006FF50
005A900000AA50
00000000000000
000007CEEC4000
0002CFFECFE100
001CFFE20EF300
009FFF500FF300
02FFFD005FE000
09FFF702EF7000
0DFFF45EFA0000
2FFFFFFF800000
4FFFE971000000
5FFFC000000750
4FFFD000009C00
1FFFF8337DC100
09FFFFFFF91000
006CFFD9300000
ENDCHAR
STARTCHAR uni0208
ENCODING 520
SWIDTH 375 0
DWIDTH 11 0
BBX 12 28 0 0
BITMAP
01CFD05FF700
002EF708FE10
0004FE10BF70
00007F701DE1
00000AE103E8
000000000000
000000000000
0000016ADFE0
00006EFFFFC0
002CFB9FFF90
02DF909FFF60
0DFB00DFFF20
6FF301FFFE00
BFE004FFFB00
CFC007FFF800
9FC00AFFF500
1AD00EFFF100
00002FFFD000
00005FFFA000
00008FFF7000
0000CFFF4000
0000EFFF1000
0003FFFC0000
0006FFF90000
0009FFF60000
000DFFF30000
001FFFE00000
004FFFB00000
ENDCHAR
STARTCHAR uni0209
ENCODING 521
SWIDTH 267 0
DWIDTH 7 0
BBX 12 21 -3 0
BITMAP
6FF60CFE1000
09FE12EF7000
00CF704FE100
002EE107F700
0004F700AE10
000000000000
000000000000
00003FFFC000
00006FFF9000
00009FFF6000
0000DFFF3000
0001FFFE0000
0004FFFB0000
0007FFF80000
000BFFF50000
000EFFF20011
002FFFE000C6
003FFFD007E1
002FFFFBCF50
000CFFFFF700
0002BEEA3000
ENDCHAR
STARTCHAR uni020A
ENCODING 522
SWIDTH 375 0
DWIDTH 11 0
BBX 14 27 0 0
BITMAP
000000169A9600
000007EFFFFFD2
00007FF7216FF9
0001FF60000BFD
00002200000122
00000000000000
0000016ADFE000
00006EFFFFC000
002CFB8FFF9000
02DF809FFF6000
1DFB00DFFF2000
7FF301FFFE0000
BFE004FFFB0000
CFC007FFF80000
9FC00BFFF50000
1AC00EFFF10000
00002FFFD00000
00005FFFA00000
00008FFF700000
0000CFFF400000
0000FFFF100000
0003FFFC000000
0006FFF9000000
0009FFF6000000
000DFFF3000000
001FFFE0000000
004FFFB0000000
ENDCHAR
STARTCHAR uni020B
ENCODING 523
SWIDTH 267 0
DWIDTH 7 0
BBX 10 19 -1 0
BITMAP
0018DEDA20
02DFDBEFD0
0CF7001EF4
1880000683
0000000000
003FFFC000
006FFF9000
009FFF6000
00DFFF3000
01FFFE0000
04FFFB0000
07FFF80000
0BFFF50000
0EFFF20011
2FFFE000C6
3FFFD007E1
2FFFFBCF50
0CFFFFF700
02BEEA3000
ENDCHAR
STARTCHAR uni020C
ENCODING 524
SWIDTH 665 0
DWIDTH 19 0
BBX 19 28 0 0
BITMAP
000005FF70BFE1000000
0000008FE11DF8000000
0000000BF803FE100000
00000001DE106F800000
000000003F8009E10000
00000000000000000000
00000000000000000000
000000159CEFEC920000
000018EFFDBBDFFF6000
0005EFD6113107FFF300
007FF802AFF700CFFB00
05FF802EFF80008FFF10
1EFC00CFFD10006FFF40
5FF507FFF700006FFF50
8FF21FFFE100007FFF50
6FF07FFF9000008FFF50
1BF1DFFF400000AFFF30
0003FFFE000000DFFF00
0006FFFB000002FFFC00
000AFFF8000006FFF700
000CFFF500000CFFF300
000DFFF400003FFFB000
000EFFF30000BFFF4000
000EFFF40004FFFA0000
000BFFF7002DFFD10000
0006FFFE56DFFD200000
0000BFFFFFFFB1000000
000007CFEDA400000000
ENDCHAR
STARTCHAR uni020D
ENCODING 525
SWIDTH 433 0
DWIDTH 12 0
BBX 17 21 -1 0
BITMAP
07FF51DFD000000000
00BFC03FF500000000
001DF506FD00000000
0003EC009F60000000
00005F500CD0000000
000000000000000000
000000000000000000
000017CEFB30000000
0002DFFEBFE2000000
001DFFD10BF7000010
00BFFF401CFA004B60
04FFFB006FFDADE600
0BFFF5003EFE950000
1FFFF1000DF7000000
4FFFC0001FF5000000
7FFFA0005FF1000000
8FFF9000CFB0000000
7FFFB006FF40000000
4FFFF99FF900000000
0BFFFFFF9000000000
007DFEB40000000000
ENDCHAR
STARTCHAR uni020E
ENCODING 526
SWIDTH 665 0
DWIDTH 19 0
BBX 19 27 0 0
BITMAP
0000000000048A972000
0000000003CFFFFFF500
000000002EFA313DFE10
00000000AFC00005FF30
00000000221000002200
00000000000000000000
000000159CEFEC920000
000018EFFDBBDFFF6000
0005EFD6113107FFF300
007FF802AFF700CFFB00
05FF802EFF80008FFF10
1EFC00CFFD10006FFF40
5FF507FFF700006FFF50
8FF21FFFE100007FFF50
6FF07FFF9000008FFF50
1BF1DFFF400000AFFF30
0003FFFE000000DFFF00
0006FFFB000002FFFC00
000AFFF8000006FFF700
000CFFF500000CFFF300
000DFFF400003FFFB000
000EFFF30000BFFF4000
000EFFF40004FFFA0000
000BFFF7002DFFD10000
0006FFFE56DFFD200000
0000BFFFFFFFB1000000
000007CFEDA400000000
ENDCHAR
STARTCHAR uni020F
ENCODING 527
SWIDTH 433 0
DWIDTH 12 0
BBX 17 19 -1 0
BITMAP
0000039DEEC6000000
00009FFDBDFF900000
0007FE5000AFF10000
0008A600003AA20000
000000000000000000
000017CEFB30000000
0002DFFEBFE1000000
001DFFD10BF7000000
00BFFF401CFA003B60
04FFFC006FFD8CE600
0BFFF6004FFE951000
1FFFF1000CF7000000
4FFFD0000FF5000000
7FFFB0004FF1000000
8FFF9000AFB0000000
7FFFA003FF40000000
4FFFE45EF900000000
0BFFFFFF9000000000
007DFEB40000000000
ENDCHAR
STARTCHAR uni0210
ENCODING 528
SWIDTH 601 0
DWIDTH 17 0
BBX 17 28 0 0
BITMAP
0005FF70CFE1000000
00009FE12EF7000000
00000BF704FE100000
000001DE107F800000
0000003F800AE10000
000000000000000000
000000000000000000
0000016ADFEDA50000
00007EFFDBBDFFC100
002DFD6100007FFC00
03EFB15ACE700CFF30
1EFC10CFFF3009FF50
7FF500FFFF000BFF30
CFE003FFFC002FFC00
BFC007FFF800BFE300
7FC00AFFF53BFE4000
06900DFFFFFFFC3000
00001FFFD12DFFE000
00005FFF9008FFF300
00008FFF6008FFF300
0000BFFF300BFFF100
0000EFFF000EFFD000
0003FFFC003FFF9000
0006FFF9007FFF6000
0009FFF600BFFF2000
000DFFF300DFFE0000
001FFFE000EFFE0000
004FFFB0006EFF6000
ENDCHAR
STARTCHAR uni0211
ENCODING 529
SWIDTH 376 0
DWIDTH 11 0
BBX 12 21 -1 0
BITMAP
9FF32EFB0000
0CFB04FF4000
02EF307FC000
004FB00AF400
0006F401DC00
000000000000
000000000000
003FFFC2AED4
006FFFDEFFFC
009FFFE68FFC
00DFFF301ED4
01FFFE000000
04FFFB000000
07FFF8000000
0AFFF5000000
0DFFF2000000
2FFFE0000000
5FFFA0000000
8FFF70000000
BFFF40000000
EFFF10000000
ENDCHAR
STARTCHAR uni0212
ENCODING 530
SWIDTH 601 0
DWIDTH 17 0
BBX 17 27 0 0
BITMAP
000000005AEFEA3000
0000001BFFCBFFE200
000000BFD2003FF900
000003FF40000BFC00
000000000000000000
000000000000000000
0000016ADFEDA50000
00007EFFDBBDFFC100
002DFD6100007FFC00
03EFB15ACE700CFF30
1EFC10CFFF3009FF50
7FF500FFFF000BFF30
CFE003FFFC002FFC00
BFC007FFF800BFE300
7FC00AFFF53BFE4000
06900DFFFFFFFC3000
00001FFFD12DFFE000
00005FFF9008FFF300
00008FFF6008FFF300
0000BFFF300BFFF100
0000EFFF000EFFD000
0003FFFC003FFF9000
0006FFF9007FFF6000
0009FFF600BFFF2000
000DFFF300DFFE0000
001FFFE000EFFE0000
004FFFB0006EFF6000
ENDCHAR
STARTCHAR uni0213
ENCODING 531
SWIDTH 376 0
DWIDTH 11 0
BBX 13 19 -1 0
BITMAP
000017BEFD9200
0004EFEBBFFE20
002EF91003FF80
00388000007850
00000000000000
003FFFC2AED400
006FFFDEFFFC00
009FFFE68FFC00
00DFFF301ED400
01FFFE00000000
04FFFB00000000
07FFF800000000
0AFFF500000000
0DFFF200000000
2FFFE000000000
5FFFA000000000
8FFF7000000000
BFFF4000000000
EFFF1000000000
ENDCHAR
STARTCHAR uni0214
ENCODING 532
SWIDTH 716 0
DWIDTH 20 0
BBX 23 28 -1 0
BITMAP
000000001DFC06FF60000000
0000000003FF509FD0000000
00000000006FC01CF6000000
000000000009F502ED000000
000000000000CD004F600000
000000000000000000000000
000000000000000000000000
00000016ADEF900000DFFF10
000018FEEFFF700002FFFD00
0004EF71CFFF200005FFFA00
006FE401FFFD000008FFF600
03FF6004FFF900000BFFF300
0BFE0008FFF500000EFFF000
1FFA000CFFF100003FFFC000
1FF8001FFFC000006FFF8000
0DF7005FFF800000AFFF5000
03A8009FFF400000DFFF2000
000000CFFE000001FFFE0000
000001FFFB000005FFFA0000
000004FFF7000009FFF60000
000007FFF400000DFFF20000
000009FFF200003FFFC00000
00000BFFF100008FFF700000
00000CFFF10001EFFE100000
00000BFFF6001AFFF7000000
000007FFFFCCEFFFB0000000
000001DFFFFFFFFA10000000
00000018CEFED94000000000
ENDCHAR
STARTCHAR uni0215
ENCODING 533
SWIDTH 505 0
DWIDTH 14 0
BBX 17 21 -1 0
BITMAP
02EFB08FF400000000
004FF30BFC00000000
0007FB01DF40000000
0000AF403FC0000000
00001DB006F4000000
000000000000000000
000000000000000000
003FFFC004FFFB0000
006FFF9008FFF80000
009FFF600BFFF50000
00DFFF300EFFF20000
01FFFE002FFFD00000
04FFFB005FFFA00000
07FFF8009FFF700000
0BFFF500CFFF400000
0EFFF200FFFF100100
2FFFE005FFFD002F10
3FFFD01DFFFC00AA00
2FFFFBDCFFFFBDE200
0CFFFFE2BFFFFE4000
02BEE9102BEE920000
ENDCHAR
STARTCHAR uni0216
ENCODING 534
SWIDTH 716 0
DWIDTH 20 0
BBX 23 27 -1 0
BITMAP
0000000000000159A9600000
0000000000006EFFFFFD1000
000000000007FF7215FF9000
00000000001FF60000AFD000
000000000002200000122000
000000000000000000000000
00000016ADEF900000DFFF10
000018FEEFFF700002FFFD00
0004EF71CFFF200005FFFA00
006FE401FFFD000008FFF600
03FF6004FFF900000BFFF300
0BFE0008FFF500000EFFF000
1FFA000CFFF100003FFFC000
1FF8001FFFC000006FFF8000
0DF7005FFF800000AFFF5000
03A8009FFF400000DFFF2000
000000CFFE000001FFFE0000
000001FFFB000005FFFA0000
000004FFF7000009FFF60000
000007FFF400000DFFF20000
000009FFF200003FFFC00000
00000BFFF100008FFF700000
00000CFFF10001EFFE100000
00000BFFF6001AFFF7000000
000007FFFFCCEFFFB0000000
000001DFFFFFFFFA10000000
00000018CEFED94000000000
ENDCHAR
STARTCHAR uni0217
ENCODING 535
SWIDTH 505 0
DWIDTH 14 0
BBX 17 19 -1 0
BITMAP
0000017CEFD9200000
00004EFEBCFFE10000
0002FF81004FF70000
000488000008850000
000000000000000000
003FFFC004FFFB0000
006FFF9008FFF80000
009FFF600BFFF50000
00DFFF300EFFF20000
01FFFE002FFFD00000
04FFFB005FFFA00000
07FFF8009FFF700000
0BFFF500CFFF400000
0EFFF200FFFF100100
2FFFE005FFFD002F10
3FFFD01DFFFC00AA00
2FFFFBDCFFFFBDE200
0CFFFFE2BFFFFE4000
02BEE9102BEE920000
ENDCHAR
STARTCHAR Scommaaccent
ENCODING 536
SWIDTH 570 0
DWIDTH 16 0
BBX 15 28 1 -7
BITMAP
0000006BEFEB4000
00002DFFEBCFF800
0001DFFD2008FF30
0007FFF60004FF70
000AFFF50006FF60
000AFFF8002EFF20
0007FFFE20068300
0001EFFFC1000000
00005FFFFB000000
000009FFFFA00000
000000BFFFF80000
0000001CFFFF3000
029DC502EFFFC000
2EFFFE207FFFF300
AFFE50001FFFF500
EFF600000DFFF400
FFF200000EFFF200
DFF500005FFFA000
7FFD3016EFFD1000
09FFFFFFFFA20000
004ADFED94000000
0000000000000000
0000660000000000
0006FF7000000000
0003FF8000000000
00008F2000000000
0001D60000000000
0001400000000000
ENDCHAR
STARTCHAR scommaaccent
ENCODING 537
SWIDTH 382 0
DWIDTH 11 0
BBX 13 22 -1 -7
BITMAP
00000357920000
00003FFFF30000
00008FFFF40000
0000DFFFF50000
0004ECFFF60000
000B9AFFF70000
002F39FFF80000
00AA08FFF90000
03F306FFFA0000
3EF505FFFB0000
BFF704FFFC1C50
DB6106FFFDD500
BD001CFFFC2000
3FDBEFFF700000
03BEFD93000000
00000000000000
00165000000000
008FF500000000
005FF500000000
000BE100000000
003E4000000000
00330000000000
ENDCHAR
STARTCHAR uni021A
ENCODING 538
SWIDTH 481 0
DWIDTH 13 0
BBX 21 28 0 -7
BITMAP
000016ADEFEB7100000310
0007EFFFFFFFFE94117E00
00AFFA53BFFFFFFFFFFC00
08FF5000EFFFFFFFFFF500
1FF80002FFFF88BDEC6000
7FF20005FFFF1000000000
AFE00008FFFC0000000000
CFC0000BFFF80000000000
BFC0000EFFF50000000000
7FC0003FFFF10000000000
07A0006FFFD00000000000
0000009FFF900000000000
000000CFFF600000000000
000001FFFF200000000000
000004FFFE000000000000
000007FFFA000000000000
00000AFFF7000000000000
00000DFFF3000000000000
00001FFFF0000000000000
00004FFFC0000000000000
00008FFF80000000000000
0000000000000000000000
0000000000000000000000
00002DE300000000000000
00006FF800000000000000
00000BF500000000000000
00000AC000000000000000
00003C1000000000000000
ENDCHAR
STARTCHAR uni021B
ENCODING 539
SWIDTH 267 0
DWIDTH 7 0
BBX 10 26 -1 -7
BITMAP
0000002400
0004DFFB00
0008FFF700
000BFFF400
000EFFF100
01FFFFFF80
02CFFFEA40
008FFF8000
00BFFF5000
00EFFF1000
03FFFD0000
06FFF90000
0AFFF60000
0DFFF30000
1FFFE000A6
3FFFD005E1
2FFFFABF60
0CFFFFF800
02BEEA4000
0000000000
0373000000
0EFE000000
0AFE000000
01F9000000
07C1000000
0510000000
ENDCHAR
STARTCHAR uni021E
ENCODING 542
SWIDTH 665 0
DWIDTH 19 0
BBX 20 27 0 0
BITMAP
000000000002E20006D6
000000000000BC17DE40
0000000000006FFFD200
0000000000001FFB1000
0000000000000B900000
00000000000000000000
00000049DEF3000AFFF5
00004CFFFFF0000DFFF2
0009FFDFFFC0001FFFE0
00AFF55FFF90004FFFA0
08FF509FFF60007FFF70
2FF900CFFF3000AFFF40
7FF401FFFF0000DFFF10
9FF104FFFC0001FFFD00
8FE007FFF90005FFFA00
2FF00AFFFFFFFFFFF600
02610DFFFFFFFFFFF300
00002FFFE0000EFFF000
00005FFFB0002FFFC000
00008FFF80006FFF9000
0000CFFF40009FFF5000
0000FFFF1000CFFF2000
0003FFFD0001FFFE0000
0007FFF90004FFFB0000
000AFFF60007FFF80000
000DFFF2000BFFF50000
001FFFE0000EFFF10000
ENDCHAR
STARTCHAR uni021F
ENCODING 543
SWIDTH 600 0
DWIDTH 17 0
BBX 17 25 -1 0
BITMAP
000000000E30005C70
000000000AD16DE500
0000000004FFFD3000
0000000000EFC20000
00000000009A100000
000001351000000000
0001EFFE0000000000
0004FFFB0000000000
0008FFF80000000000
000BFFF50000000000
000EFFF20000000000
002FFFD2AEE9100000
006FFFDEFFFFA00000
009FFFFEEFFFE00000
00CFFFC11FFFE00000
01FFFF300FFFD00000
03FFFD002FFFA00000
07FFF9005FFF600000
0AFFF6008FFF200000
0DFFF300CFFE000210
1FFFE000FFFB003F10
5FFFB002FFFC01CA00
8FFF8002FFFFEEF200
BFFF4000CFFFFF6000
EFFF10002AEEB40000
ENDCHAR
STARTCHAR uni0237
ENCODING 567
SWIDTH 240 0
DWIDTH 7 0
BBX 14 21 -6 -7
BITMAP
00000003FFFD00
00000006FFFA00
00000009FFF700
0000000CFFF400
0000001FFFF100
0000004FFFC000
0000007FFF9000
000000AFFF6000
000000DFFF3000
000001FFFF0059
000004FFFC00C6
000008FFF905D0
00000BFFF64D30
00000EFFFCB200
0005BFFFE20000
02CFFFFFA00000
2EF89FFF700000
8F40BFFF300000
9E03FFFC000000
5FCEFFE2000000
06DED810000000
ENDCHAR
STARTCHAR uni0259
ENCODING 601
SWIDTH 404 0
DWIDTH 11 0
BBX 11 14 0 0
BITMAP
0039DFEC7000
04FFFFFFFB00
08D535EFFF50
0220007FFFA0
0000006FFFB0
000058CFFFB0
004DFFFFFF90
06FF92CFFF60
3FF601FFFF10
AFB006FFF900
EF600DFFD100
EF509FFE3000
AFDCFFD30000
1AEEC7100000
ENDCHAR
STARTCHAR uni0292
ENCODING 658
SWIDTH 442 0
DWIDTH 12 0
BBX 14 21 0 -7
BITMAP
008EFFFFFFE200
0AFDBADFFF7000
1FF801DFFD1000
1FF608FFF50000
02302FFFB00000
0000BFFF300000
0005FFF9000000
001DFFE1000000
006FFF60000000
007FFFB0000084
0006FFF70002F2
0000EFFD000AA0
0000BFFF208D20
0000AFFFADC200
0001BFFFC50000
02AFFFFF500000
3ED5CFFF300000
CD11FFFE000000
E908FFF7000000
BFCFFFB0000000
1AEFC700000000
ENDCHAR
STARTCHAR uni02BB
ENCODING 699
SWIDTH 241 0
DWIDTH 7 0
BBX 5 7 3 14
BITMAP
000510
008A00
07F100
2FF600
7FFF20
7FFF30
1BE900
ENDCHAR
STARTCHAR uni02BC
ENCODING 700
SWIDTH 228 0
DWIDTH 6 0
BBX 4 6 4 15
BITMAP
5ED2
CFF8
6FF7
0CF2
2E70
7700
ENDCHAR
STARTCHAR circumflex
ENCODING 710
SWIDTH 293 0
DWIDTH 8 0
BBX 9 5 0 15
BITMAP
000009A000
0001BFF100
002DFFF500
04ED71DB00
6D60002E10
ENDCHAR
STARTCHAR caron
ENCODING 711
SWIDTH 294 0
DWIDTH 8 0
BBX 9 5 2 15
BITMAP
1E20006D60
0BC16DE400
05FFFD2000
01FFB10000
00A9000000
ENDCHAR
STARTCHAR uni02C9
ENCODING 713
SWIDTH 421 0
DWIDTH 12 0
BBX 10 2 3 16
BITMAP
2AAAAAAAA8
7FFFFFFFF8
ENDCHAR
STARTCHAR uni02CA
ENCODING 714
SWIDTH 256 0
DWIDTH 7 0
BBX 6 5 3 15
BITMAP
007FF5
01EF80
07FB00
1ED100
7F3000
ENDCHAR
STARTCHAR uni02CB
ENCODING 715
SWIDTH 274 0
DWIDTH 8 0
BBX 5 5 4 15
BITMAP
6FF600
1EF800
08FB00
02FD00
00AF10
ENDCHAR
STARTCHAR breve
ENCODING 728
SWIDTH 431 0
DWIDTH 12 0
BBX 11 4 1 16
BITMAP
1FF700008FE0
0DFC1005FF70
06FFEBDFF800
005CEFD93000
ENDCHAR
STARTCHAR dotaccent
ENCODING 729
SWIDTH 250 0
DWIDTH 7 0
BBX 5 4 1 16
BITMAP
09ED40
5FFFD0
5FFFD0
09ED40
ENDCHAR
STARTCHAR ring
ENCODING 730
SWIDTH 156 0
DWIDTH 4 0
BBX 5 5 0 15
BITMAP
07A500
8FFF20
EA2F50
EECF30
5DE700
ENDCHAR
STARTCHAR ogonek
ENCODING 731
SWIDTH 291 0
DWIDTH 8 0
BBX 7 7 1 -6
BITMAP
00371000
05F40000
3FB00000
9F900000
BFC00450
7FFDBE20
08EEA200
ENDCHAR
STARTCHAR tilde
ENCODING 732
SWIDTH 403 0
DWIDTH 11 0
BBX 12 3 1 16
BITMAP
018DEEB62141
2DFFFFFFFF80
52148DFEA400
ENDCHAR
STARTCHAR hungarumlaut
ENCODING 733
SWIDTH 436 0
DWIDTH 12 0
BBX 11 5 2 16
BITMAP
004FF80BFE20
00BFB03FF500
04FD10BF8000
0CF304FB0000
4F600BD10000
ENDCHAR
STARTCHAR gravecomb
ENCODING 768
SWIDTH 0 0
DWIDTH 0 0
BBX 4 5 -5 15
BITMAP
BFF1
4FF3
0DF6
06F8
01EB
ENDCHAR
STARTCHAR acutecomb
ENCODING 769
SWIDTH 0 0
DWIDTH 0 0
BBX 6 5 -6 15
BITMAP
003FF9
00BFC0
03FE20
0BF400
3F7000
ENDCHAR
STARTCHAR uni0302
ENCODING 770
SWIDTH 0 0
DWIDTH 0 0
BBX 9 5 -8 15
BITMAP
000006E000
00009FF400
001BFFF900
02DE82AE00
4D81001C40
ENDCHAR
STARTCHAR tildecomb
ENCODING 771
SWIDTH 0 0
DWIDTH 0 0
BBX 12 3 -11 16
BITMAP
003ADFD95115
05FFFFFFFFE4
15115ADFD920
ENDCHAR
STARTCHAR uni0304
ENCODING 772
SWIDTH 0 0
DWIDTH 0 0
BBX 10 2 -9 16
BITMAP
0AAAAAAAAA
4FFFFFFFFB
ENDCHAR
STARTCHAR uni0306
ENCODING 774
SWIDTH 0 0
DWIDTH 0 0
BBX 11 4 -9 16
BITMAP
DFA00005FF20
AFE2003DFA00
3EFEBCFFB100
03AEFDA40000
ENDCHAR
STARTCHAR uni0307
ENCODING 775
SWIDTH 0 0
DWIDTH 0 0
BBX 5 4 -4 16
BITMAP
08ED40
4FFFE0
4FFFE0
08ED50
ENDCHAR
STARTCHAR uni0308
ENCODING 776
SWIDTH 0 0
DWIDTH 0 0
BBX 9 3 -8 16
BITMAP
3DE502DE50
8FFB08FFC0
3DE503DE50
ENDCHAR
STARTCHAR hookabovecomb
ENCODING 777
SWIDTH 0 0
DWIDTH 0 0
BBX 7 6 -7 15
BITMAP
1ADEC400
1EBCFE10
0000BF30
0134DC00
03FD8100
03F30000
ENDCHAR
STARTCHAR uni030A
ENCODING 778
SWIDTH 0 0
DWIDTH 0 0
BBX 5 5 -4 15
BITMAP
039810
2FFF90
7F2AC0
7FBEA0
1BEB20
ENDCHAR
STARTCHAR uni030B
ENCODING 779
SWIDTH 0 0
DWIDTH 0 0
BBX 11 5 -9 16
BITMAP
002FFA09FF30
00AFC12FF600
02FE209F9000
0AF502FC0000
3F800AE20000
ENDCHAR
STARTCHAR uni030C
ENCODING 780
SWIDTH 0 0
DWIDTH 0 0
BBX 9 5 -7 15
BITMAP
7A00029C20
2F729FB100
0CFFF90000
07FF600000
02E4000000
ENDCHAR
STARTCHAR uni030F
ENCODING 783
SWIDTH 0 0
DWIDTH 0 0
BBX 11 5 -10 16
BITMAP
3EFA09FF3000
05FF20CFA000
009FA02EF300
000BF304FB00
0001DA007F30
ENDCHAR
STARTCHAR uni0311
ENCODING 785
SWIDTH 0 0
DWIDTH 0 0
BBX 11 5 -10 15
BITMAP
000279A83000
019FFFFFF600
0BFD512BFF20
6FF20003FF60
476000007730
ENDCHAR
STARTCHAR uni031B
ENCODING 795
SWIDTH 0 0
DWIDTH 0 0
BBX 5 7 -4 11
BITMAP
008E70
00BFA0
00BF70
01EE10
1BF600
2E6000
010000
ENDCHAR
STARTCHAR dotbelowcomb
ENCODING 803
SWIDTH 0 0
DWIDTH 0 0
BBX 6 4 -6 -6
BITMAP
05DE70
1FFFF3
1FFFF3
05DE70
ENDCHAR
STARTCHAR uni0324
ENCODING 804
SWIDTH 0 0
DWIDTH 0 0
BBX 10 3 -13 -6
BITMAP
0AE900AEA0
3FFF22FFF2
0AE900AEA0
ENDCHAR
STARTCHAR uni0326
ENCODING 806
SWIDTH 0 0
DWIDTH 0 0
BBX 4 5 -7 -7
BITMAP
5EC1
9FF5
1EF2
0D90
6A00
ENDCHAR
STARTCHAR uni0327
ENCODING 807
SWIDTH 0 0
DWIDTH 0 0
BBX 7 7 -10 -6
BITMAP
008A0000
00D50000
04E67300
0AFFFF20
0318FF40
8319FD00
6DFD9100
ENDCHAR
STARTCHAR uni0328
ENCODING 808
SWIDTH 0 0
DWIDTH 0 0
BBX 7 7 -10 -6
BITMAP
00560000
09E20000
7F700000
DF500000
FF900720
BFFCCC00
2AED8100
ENDCHAR
STARTCHAR uni032E
ENCODING 814
SWIDTH 0 0
DWIDTH 0 0
BBX 9 4 -12 -6
BITMAP
9C40007C60
9FE88BFD20
1AFFFE9100
0013200000
ENDCHAR
STARTCHAR uni0331
ENCODING 817
SWIDTH 0 0
DWIDTH 0 0
BBX 10 2 -13 -5
BITMAP
5AAAAAAAA5
BFFFFFFFF4
ENDCHAR
STARTCHAR uni0335
ENCODING 821
SWIDTH 0 0
DWIDTH 0 0
BBX 10 2 -11 7
BITMAP
5AAAAAAAA8
AFFFFFFFF9
ENDCHAR
STARTCHAR uni0394
ENCODING 916
SWIDTH 619 0
DWIDTH 17 0
BBX 18 21 0 0
BITMAP
00000000001EFF4000
00000000009FFF6000
0000000003FFFF9000
000000000BFBFFB000
000000005FF2EFD000
00000000DF80CFF100
00000007FE10AFF300
0000002EF6008FF500
000000AFC0006FF700
000003FF40004FFA00
00000CFA00001FFC00
00005FF200000EFE00
0001DF8000000CFF10
0008FE1000000AFF40
002EF600000008FF60
00AFD000000006FF80
04FF4000000004FFA0
0CFB0000000002FFD0
6FF52222222223FFF0
9FFFFFFFFFFFFFFFF1
9FFFFFFFFFFFFFFFF1
ENDCHAR
STARTCHAR uni03A9
ENCODING 937
SWIDTH 745 0
DWIDTH 21 0
BBX 20 22 0 0
BITMAP
00000000000012100000
00000000039EFFFD7000
00000001AFFFFFFFFB00
0000003EFE72014CFF80
000003EFB1000001DFE1
00001EFA000000005FF5
0000AFD0000000001FF8
0003FF40000000000EF9
000AFC00000000000DF9
001FF700000000000EF8
004FF300000000001FF5
006FF100000000004FF2
007FF000000000009FC0
006FF00000000000EF60
005FF10000000006FD00
001FF4000000001EF500
000BF900000000AFA000
0003FE10000007FC1000
00008FA000007FB10000
02222BF80009FA322210
0DFFFFFB003FFFFFFF20
2FFFFFF8006FFFFFFD00
ENDCHAR
STARTCHAR uni03BC
ENCODING 956
SWIDTH 505 0
DWIDTH 14 0
BBX 18 19 -2 -5
BITMAP
0003FFFC004FFFB000
0006FFF9008FFF8000
0009FFF600BFFF5000
000DFFF300EFFF1000
001FFFE002FFFD0000
004FFFB006FFFA0000
007FFF8009FFF70000
00AFFF500CFFF30000
00DFFF101FFFF00000
01FFFE006FFFC002F2
05FFFE02EFFFC01BA0
08FFFFEFBFFFFEEE20
0BFFFFFD2AFFFFF500
0EFFFE9202BEEA3000
2FFFD0000000000000
6FFF90000000000000
9FFF60000000000000
CFFC20000000000000
741000000000000000
ENDCHAR
STARTCHAR pi
ENCODING 960
SWIDTH 530 0
DWIDTH 15 0
BBX 16 15 -1 -1
BITMAP
1FFFFFFFFFFFFFFB
4FFFFFFFFFFFFFF8
122BF92222BF9221
000EF50000EF5000
002FF20002FF2000
005FE00005FE0000
008FB00008FB0000
00BF70000BF80000
00EF40000EF50000
02FF10003FF20000
06FD00006FE00000
09FA00009FB00000
0CF700009FA20000
0FF400004FFA0000
0330000001200000
ENDCHAR
STARTCHAR uni0400
ENCODING 1024
SWIDTH 459 0
DWIDTH 13 0
BBX 14 27 0 0
BITMAP
00000006FF6000
00000001EF8000
000000008FB000
000000002FD000
000000000AF100
00000000000000
00000017CEEA30
000003EFFCCFF3
00002EFF6008FA
0000BFFB0006FB
0002FFF6000AF9
0004FFF4004FE2
0004FFF6000210
0000EFFC000000
00005FFFA20000
00018EFFB50000
004EFFF8000000
02EFFF90000000
0BFFFD10000000
4FFFF700000000
8FFFF300000000
BFFFF100000033
CFFFF4000002D2
AFFFFC20028F70
4FFFFFFDEFF800
09FFFFFFFD5000
005BEFEB610000
ENDCHAR
STARTCHAR uni0401
ENCODING 1025
SWIDTH 459 0
DWIDTH 13 0
BBX 15 26 0 0
BITMAP
0000002CE601CE70
0000006FFD06FFE0
0000002CE701CE70
0000000000000000
0000000000000000
00000017CEEA3000
000003EFFCCFF300
00002EFF6008FA00
0000BFFB0006FB00
0002FFF6000AF900
0004FFF4004FE200
0004FFF600021000
0000EFFC00000000
00005FFFA2000000
00018EFFB5000000
004EFFF800000000
02EFFF9000000000
0BFFFD1000000000
4FFFF70000000000
8FFFF30000000000
BFFFF10000003300
CFFFF4000002D200
AFFFFC20028F7000
4FFFFFFDEFF80000
09FFFFFFFD500000
005BEFEB61000000
ENDCHAR
ENDFONT
